G04 #@! TF.GenerationSoftware,KiCad,Pcbnew,5.1.0*
G04 #@! TF.CreationDate,2019-07-01T01:43:07+09:00*
G04 #@! TF.ProjectId,base_board_a,62617365-5f62-46f6-9172-645f612e6b69,rev?*
G04 #@! TF.SameCoordinates,Original*
G04 #@! TF.FileFunction,Legend,Top*
G04 #@! TF.FilePolarity,Positive*
%FSLAX46Y46*%
G04 Gerber Fmt 4.6, Leading zero omitted, Abs format (unit mm)*
G04 Created by KiCad (PCBNEW 5.1.0) date 2019-07-01 01:43:07*
%MOMM*%
%LPD*%
G04 APERTURE LIST*
%ADD10C,0.120000*%
G04 APERTURE END LIST*
D10*
X138370000Y-15815000D02*
X139700000Y-15815000D01*
X138370000Y-17145000D02*
X138370000Y-15815000D01*
X138370000Y-18415000D02*
X141030000Y-18415000D01*
X141030000Y-18415000D02*
X141030000Y-117535000D01*
X138370000Y-18415000D02*
X138370000Y-117535000D01*
X138370000Y-117535000D02*
X141030000Y-117535000D01*
X135830000Y-15815000D02*
X137160000Y-15815000D01*
X135830000Y-17145000D02*
X135830000Y-15815000D01*
X135830000Y-18415000D02*
X138490000Y-18415000D01*
X138490000Y-18415000D02*
X138490000Y-117535000D01*
X135830000Y-18415000D02*
X135830000Y-117535000D01*
X135830000Y-117535000D02*
X138490000Y-117535000D01*
X79950000Y-15815000D02*
X81280000Y-15815000D01*
X79950000Y-17145000D02*
X79950000Y-15815000D01*
X79950000Y-18415000D02*
X82610000Y-18415000D01*
X82610000Y-18415000D02*
X82610000Y-117535000D01*
X79950000Y-18415000D02*
X79950000Y-117535000D01*
X79950000Y-117535000D02*
X82610000Y-117535000D01*
X16450000Y-15815000D02*
X17780000Y-15815000D01*
X16450000Y-17145000D02*
X16450000Y-15815000D01*
X16450000Y-18415000D02*
X19110000Y-18415000D01*
X19110000Y-18415000D02*
X19110000Y-117535000D01*
X16450000Y-18415000D02*
X16450000Y-117535000D01*
X16450000Y-117535000D02*
X19110000Y-117535000D01*
X85030000Y-15815000D02*
X86360000Y-15815000D01*
X85030000Y-17145000D02*
X85030000Y-15815000D01*
X85030000Y-18415000D02*
X87690000Y-18415000D01*
X87690000Y-18415000D02*
X87690000Y-117535000D01*
X85030000Y-18415000D02*
X85030000Y-117535000D01*
X85030000Y-117535000D02*
X87690000Y-117535000D01*
X36770000Y-15815000D02*
X38100000Y-15815000D01*
X36770000Y-17145000D02*
X36770000Y-15815000D01*
X36770000Y-18415000D02*
X39430000Y-18415000D01*
X39430000Y-18415000D02*
X39430000Y-117535000D01*
X36770000Y-18415000D02*
X36770000Y-117535000D01*
X36770000Y-117535000D02*
X39430000Y-117535000D01*
X90110000Y-15815000D02*
X91440000Y-15815000D01*
X90110000Y-17145000D02*
X90110000Y-15815000D01*
X90110000Y-18415000D02*
X92770000Y-18415000D01*
X92770000Y-18415000D02*
X92770000Y-117535000D01*
X90110000Y-18415000D02*
X90110000Y-117535000D01*
X90110000Y-117535000D02*
X92770000Y-117535000D01*
X87570000Y-15815000D02*
X88900000Y-15815000D01*
X87570000Y-17145000D02*
X87570000Y-15815000D01*
X87570000Y-18415000D02*
X90230000Y-18415000D01*
X90230000Y-18415000D02*
X90230000Y-117535000D01*
X87570000Y-18415000D02*
X87570000Y-117535000D01*
X87570000Y-117535000D02*
X90230000Y-117535000D01*
X77410000Y-15815000D02*
X78740000Y-15815000D01*
X77410000Y-17145000D02*
X77410000Y-15815000D01*
X77410000Y-18415000D02*
X80070000Y-18415000D01*
X80070000Y-18415000D02*
X80070000Y-117535000D01*
X77410000Y-18415000D02*
X77410000Y-117535000D01*
X77410000Y-117535000D02*
X80070000Y-117535000D01*
X74870000Y-15815000D02*
X76200000Y-15815000D01*
X74870000Y-17145000D02*
X74870000Y-15815000D01*
X74870000Y-18415000D02*
X77530000Y-18415000D01*
X77530000Y-18415000D02*
X77530000Y-117535000D01*
X74870000Y-18415000D02*
X74870000Y-117535000D01*
X74870000Y-117535000D02*
X77530000Y-117535000D01*
X69790000Y-15815000D02*
X71120000Y-15815000D01*
X69790000Y-17145000D02*
X69790000Y-15815000D01*
X69790000Y-18415000D02*
X72450000Y-18415000D01*
X72450000Y-18415000D02*
X72450000Y-117535000D01*
X69790000Y-18415000D02*
X69790000Y-117535000D01*
X69790000Y-117535000D02*
X72450000Y-117535000D01*
X67250000Y-15815000D02*
X68580000Y-15815000D01*
X67250000Y-17145000D02*
X67250000Y-15815000D01*
X67250000Y-18415000D02*
X69910000Y-18415000D01*
X69910000Y-18415000D02*
X69910000Y-117535000D01*
X67250000Y-18415000D02*
X67250000Y-117535000D01*
X67250000Y-117535000D02*
X69910000Y-117535000D01*
X64710000Y-15815000D02*
X66040000Y-15815000D01*
X64710000Y-17145000D02*
X64710000Y-15815000D01*
X64710000Y-18415000D02*
X67370000Y-18415000D01*
X67370000Y-18415000D02*
X67370000Y-117535000D01*
X64710000Y-18415000D02*
X64710000Y-117535000D01*
X64710000Y-117535000D02*
X67370000Y-117535000D01*
X140910000Y-15815000D02*
X142240000Y-15815000D01*
X140910000Y-17145000D02*
X140910000Y-15815000D01*
X140910000Y-18415000D02*
X143570000Y-18415000D01*
X143570000Y-18415000D02*
X143570000Y-117535000D01*
X140910000Y-18415000D02*
X140910000Y-117535000D01*
X140910000Y-117535000D02*
X143570000Y-117535000D01*
X59630000Y-15815000D02*
X60960000Y-15815000D01*
X59630000Y-17145000D02*
X59630000Y-15815000D01*
X59630000Y-18415000D02*
X62290000Y-18415000D01*
X62290000Y-18415000D02*
X62290000Y-117535000D01*
X59630000Y-18415000D02*
X59630000Y-117535000D01*
X59630000Y-117535000D02*
X62290000Y-117535000D01*
X57090000Y-15815000D02*
X58420000Y-15815000D01*
X57090000Y-17145000D02*
X57090000Y-15815000D01*
X57090000Y-18415000D02*
X59750000Y-18415000D01*
X59750000Y-18415000D02*
X59750000Y-117535000D01*
X57090000Y-18415000D02*
X57090000Y-117535000D01*
X57090000Y-117535000D02*
X59750000Y-117535000D01*
X54550000Y-15815000D02*
X55880000Y-15815000D01*
X54550000Y-17145000D02*
X54550000Y-15815000D01*
X54550000Y-18415000D02*
X57210000Y-18415000D01*
X57210000Y-18415000D02*
X57210000Y-117535000D01*
X54550000Y-18415000D02*
X54550000Y-117535000D01*
X54550000Y-117535000D02*
X57210000Y-117535000D01*
X130750000Y-15815000D02*
X132080000Y-15815000D01*
X130750000Y-17145000D02*
X130750000Y-15815000D01*
X130750000Y-18415000D02*
X133410000Y-18415000D01*
X133410000Y-18415000D02*
X133410000Y-117535000D01*
X130750000Y-18415000D02*
X130750000Y-117535000D01*
X130750000Y-117535000D02*
X133410000Y-117535000D01*
X49470000Y-15815000D02*
X50800000Y-15815000D01*
X49470000Y-17145000D02*
X49470000Y-15815000D01*
X49470000Y-18415000D02*
X52130000Y-18415000D01*
X52130000Y-18415000D02*
X52130000Y-117535000D01*
X49470000Y-18415000D02*
X49470000Y-117535000D01*
X49470000Y-117535000D02*
X52130000Y-117535000D01*
X128210000Y-15815000D02*
X129540000Y-15815000D01*
X128210000Y-17145000D02*
X128210000Y-15815000D01*
X128210000Y-18415000D02*
X130870000Y-18415000D01*
X130870000Y-18415000D02*
X130870000Y-117535000D01*
X128210000Y-18415000D02*
X128210000Y-117535000D01*
X128210000Y-117535000D02*
X130870000Y-117535000D01*
X46930000Y-15815000D02*
X48260000Y-15815000D01*
X46930000Y-17145000D02*
X46930000Y-15815000D01*
X46930000Y-18415000D02*
X49590000Y-18415000D01*
X49590000Y-18415000D02*
X49590000Y-117535000D01*
X46930000Y-18415000D02*
X46930000Y-117535000D01*
X46930000Y-117535000D02*
X49590000Y-117535000D01*
X125670000Y-15815000D02*
X127000000Y-15815000D01*
X125670000Y-17145000D02*
X125670000Y-15815000D01*
X125670000Y-18415000D02*
X128330000Y-18415000D01*
X128330000Y-18415000D02*
X128330000Y-117535000D01*
X125670000Y-18415000D02*
X125670000Y-117535000D01*
X125670000Y-117535000D02*
X128330000Y-117535000D01*
X44390000Y-15815000D02*
X45720000Y-15815000D01*
X44390000Y-17145000D02*
X44390000Y-15815000D01*
X44390000Y-18415000D02*
X47050000Y-18415000D01*
X47050000Y-18415000D02*
X47050000Y-117535000D01*
X44390000Y-18415000D02*
X44390000Y-117535000D01*
X44390000Y-117535000D02*
X47050000Y-117535000D01*
X120590000Y-15815000D02*
X121920000Y-15815000D01*
X120590000Y-17145000D02*
X120590000Y-15815000D01*
X120590000Y-18415000D02*
X123250000Y-18415000D01*
X123250000Y-18415000D02*
X123250000Y-117535000D01*
X120590000Y-18415000D02*
X120590000Y-117535000D01*
X120590000Y-117535000D02*
X123250000Y-117535000D01*
X39310000Y-15815000D02*
X40640000Y-15815000D01*
X39310000Y-17145000D02*
X39310000Y-15815000D01*
X39310000Y-18415000D02*
X41970000Y-18415000D01*
X41970000Y-18415000D02*
X41970000Y-117535000D01*
X39310000Y-18415000D02*
X39310000Y-117535000D01*
X39310000Y-117535000D02*
X41970000Y-117535000D01*
X118050000Y-15815000D02*
X119380000Y-15815000D01*
X118050000Y-17145000D02*
X118050000Y-15815000D01*
X118050000Y-18415000D02*
X120710000Y-18415000D01*
X120710000Y-18415000D02*
X120710000Y-117535000D01*
X118050000Y-18415000D02*
X118050000Y-117535000D01*
X118050000Y-117535000D02*
X120710000Y-117535000D01*
X115510000Y-15815000D02*
X116840000Y-15815000D01*
X115510000Y-17145000D02*
X115510000Y-15815000D01*
X115510000Y-18415000D02*
X118170000Y-18415000D01*
X118170000Y-18415000D02*
X118170000Y-117535000D01*
X115510000Y-18415000D02*
X115510000Y-117535000D01*
X115510000Y-117535000D02*
X118170000Y-117535000D01*
X34230000Y-15815000D02*
X35560000Y-15815000D01*
X34230000Y-17145000D02*
X34230000Y-15815000D01*
X34230000Y-18415000D02*
X36890000Y-18415000D01*
X36890000Y-18415000D02*
X36890000Y-117535000D01*
X34230000Y-18415000D02*
X34230000Y-117535000D01*
X34230000Y-117535000D02*
X36890000Y-117535000D01*
X110430000Y-15815000D02*
X111760000Y-15815000D01*
X110430000Y-17145000D02*
X110430000Y-15815000D01*
X110430000Y-18415000D02*
X113090000Y-18415000D01*
X113090000Y-18415000D02*
X113090000Y-117535000D01*
X110430000Y-18415000D02*
X110430000Y-117535000D01*
X110430000Y-117535000D02*
X113090000Y-117535000D01*
X29150000Y-15815000D02*
X30480000Y-15815000D01*
X29150000Y-17145000D02*
X29150000Y-15815000D01*
X29150000Y-18415000D02*
X31810000Y-18415000D01*
X31810000Y-18415000D02*
X31810000Y-117535000D01*
X29150000Y-18415000D02*
X29150000Y-117535000D01*
X29150000Y-117535000D02*
X31810000Y-117535000D01*
X107890000Y-15815000D02*
X109220000Y-15815000D01*
X107890000Y-17145000D02*
X107890000Y-15815000D01*
X107890000Y-18415000D02*
X110550000Y-18415000D01*
X110550000Y-18415000D02*
X110550000Y-117535000D01*
X107890000Y-18415000D02*
X107890000Y-117535000D01*
X107890000Y-117535000D02*
X110550000Y-117535000D01*
X26610000Y-15815000D02*
X27940000Y-15815000D01*
X26610000Y-17145000D02*
X26610000Y-15815000D01*
X26610000Y-18415000D02*
X29270000Y-18415000D01*
X29270000Y-18415000D02*
X29270000Y-117535000D01*
X26610000Y-18415000D02*
X26610000Y-117535000D01*
X26610000Y-117535000D02*
X29270000Y-117535000D01*
X105350000Y-15815000D02*
X106680000Y-15815000D01*
X105350000Y-17145000D02*
X105350000Y-15815000D01*
X105350000Y-18415000D02*
X108010000Y-18415000D01*
X108010000Y-18415000D02*
X108010000Y-117535000D01*
X105350000Y-18415000D02*
X105350000Y-117535000D01*
X105350000Y-117535000D02*
X108010000Y-117535000D01*
X24070000Y-15815000D02*
X25400000Y-15815000D01*
X24070000Y-17145000D02*
X24070000Y-15815000D01*
X24070000Y-18415000D02*
X26730000Y-18415000D01*
X26730000Y-18415000D02*
X26730000Y-117535000D01*
X24070000Y-18415000D02*
X24070000Y-117535000D01*
X24070000Y-117535000D02*
X26730000Y-117535000D01*
X100270000Y-15815000D02*
X101600000Y-15815000D01*
X100270000Y-17145000D02*
X100270000Y-15815000D01*
X100270000Y-18415000D02*
X102930000Y-18415000D01*
X102930000Y-18415000D02*
X102930000Y-117535000D01*
X100270000Y-18415000D02*
X100270000Y-117535000D01*
X100270000Y-117535000D02*
X102930000Y-117535000D01*
X18990000Y-15815000D02*
X20320000Y-15815000D01*
X18990000Y-17145000D02*
X18990000Y-15815000D01*
X18990000Y-18415000D02*
X21650000Y-18415000D01*
X21650000Y-18415000D02*
X21650000Y-117535000D01*
X18990000Y-18415000D02*
X18990000Y-117535000D01*
X18990000Y-117535000D02*
X21650000Y-117535000D01*
X97730000Y-15815000D02*
X99060000Y-15815000D01*
X97730000Y-17145000D02*
X97730000Y-15815000D01*
X97730000Y-18415000D02*
X100390000Y-18415000D01*
X100390000Y-18415000D02*
X100390000Y-117535000D01*
X97730000Y-18415000D02*
X97730000Y-117535000D01*
X97730000Y-117535000D02*
X100390000Y-117535000D01*
X95141000Y-15815000D02*
X96471000Y-15815000D01*
X95141000Y-17145000D02*
X95141000Y-15815000D01*
X95141000Y-18415000D02*
X97801000Y-18415000D01*
X97801000Y-18415000D02*
X97801000Y-117535000D01*
X95141000Y-18415000D02*
X95141000Y-117535000D01*
X95141000Y-117535000D02*
X97801000Y-117535000D01*
X13910000Y-117535000D02*
X16570000Y-117535000D01*
X13910000Y-18415000D02*
X13910000Y-117535000D01*
X16570000Y-18415000D02*
X16570000Y-117535000D01*
X13910000Y-18415000D02*
X16570000Y-18415000D01*
X13910000Y-17145000D02*
X13910000Y-15815000D01*
X13910000Y-15815000D02*
X15240000Y-15815000D01*
M02*
