M48
; DRILL file {KiCad 5.1.0} date 2019年07月01日 02時07分35秒
; FORMAT={3:3/ absolute / metric / keep zeros}
; #@! TF.CreationDate,2019-07-01T02:07:35+09:00
; #@! TF.GenerationSoftware,Kicad,Pcbnew,5.1.0
FMAT,2
METRIC
T1C1.000
%
G90
G05
T1
X106680Y-017145
X106680Y-019685
X106680Y-022225
X106680Y-024765
X106680Y-027305
X106680Y-029845
X106680Y-032385
X106680Y-034925
X106680Y-037465
X106680Y-040005
X106680Y-042545
X106680Y-045085
X106680Y-047625
X106680Y-050165
X106680Y-052705
X106680Y-055245
X106680Y-057785
X106680Y-060325
X106680Y-062865
X106680Y-065405
X106680Y-067945
X106680Y-070485
X106680Y-073025
X106680Y-075565
X106680Y-078105
X106680Y-080645
X106680Y-083185
X106680Y-085725
X106680Y-088265
X106680Y-090805
X106680Y-093345
X106680Y-095885
X106680Y-098425
X106680Y-100965
X106680Y-103505
X106680Y-106045
X106680Y-108585
X106680Y-111125
X106680Y-113665
X106680Y-116205
X142240Y-017145
X142240Y-019685
X142240Y-022225
X142240Y-024765
X142240Y-027305
X142240Y-029845
X142240Y-032385
X142240Y-034925
X142240Y-037465
X142240Y-040005
X142240Y-042545
X142240Y-045085
X142240Y-047625
X142240Y-050165
X142240Y-052705
X142240Y-055245
X142240Y-057785
X142240Y-060325
X142240Y-062865
X142240Y-065405
X142240Y-067945
X142240Y-070485
X142240Y-073025
X142240Y-075565
X142240Y-078105
X142240Y-080645
X142240Y-083185
X142240Y-085725
X142240Y-088265
X142240Y-090805
X142240Y-093345
X142240Y-095885
X142240Y-098425
X142240Y-100965
X142240Y-103505
X142240Y-106045
X142240Y-108585
X142240Y-111125
X142240Y-113665
X142240Y-116205
X088900Y-017145
X088900Y-019685
X088900Y-022225
X088900Y-024765
X088900Y-027305
X088900Y-029845
X088900Y-032385
X088900Y-034925
X088900Y-037465
X088900Y-040005
X088900Y-042545
X088900Y-045085
X088900Y-047625
X088900Y-050165
X088900Y-052705
X088900Y-055245
X088900Y-057785
X088900Y-060325
X088900Y-062865
X088900Y-065405
X088900Y-067945
X088900Y-070485
X088900Y-073025
X088900Y-075565
X088900Y-078105
X088900Y-080645
X088900Y-083185
X088900Y-085725
X088900Y-088265
X088900Y-090805
X088900Y-093345
X088900Y-095885
X088900Y-098425
X088900Y-100965
X088900Y-103505
X088900Y-106045
X088900Y-108585
X088900Y-111125
X088900Y-113665
X088900Y-116205
X137160Y-017145
X137160Y-019685
X137160Y-022225
X137160Y-024765
X137160Y-027305
X137160Y-029845
X137160Y-032385
X137160Y-034925
X137160Y-037465
X137160Y-040005
X137160Y-042545
X137160Y-045085
X137160Y-047625
X137160Y-050165
X137160Y-052705
X137160Y-055245
X137160Y-057785
X137160Y-060325
X137160Y-062865
X137160Y-065405
X137160Y-067945
X137160Y-070485
X137160Y-073025
X137160Y-075565
X137160Y-078105
X137160Y-080645
X137160Y-083185
X137160Y-085725
X137160Y-088265
X137160Y-090805
X137160Y-093345
X137160Y-095885
X137160Y-098425
X137160Y-100965
X137160Y-103505
X137160Y-106045
X137160Y-108585
X137160Y-111125
X137160Y-113665
X137160Y-116205
X040640Y-017145
X040640Y-019685
X040640Y-022225
X040640Y-024765
X040640Y-027305
X040640Y-029845
X040640Y-032385
X040640Y-034925
X040640Y-037465
X040640Y-040005
X040640Y-042545
X040640Y-045085
X040640Y-047625
X040640Y-050165
X040640Y-052705
X040640Y-055245
X040640Y-057785
X040640Y-060325
X040640Y-062865
X040640Y-065405
X040640Y-067945
X040640Y-070485
X040640Y-073025
X040640Y-075565
X040640Y-078105
X040640Y-080645
X040640Y-083185
X040640Y-085725
X040640Y-088265
X040640Y-090805
X040640Y-093345
X040640Y-095885
X040640Y-098425
X040640Y-100965
X040640Y-103505
X040640Y-106045
X040640Y-108585
X040640Y-111125
X040640Y-113665
X040640Y-116205
X066040Y-017145
X066040Y-019685
X066040Y-022225
X066040Y-024765
X066040Y-027305
X066040Y-029845
X066040Y-032385
X066040Y-034925
X066040Y-037465
X066040Y-040005
X066040Y-042545
X066040Y-045085
X066040Y-047625
X066040Y-050165
X066040Y-052705
X066040Y-055245
X066040Y-057785
X066040Y-060325
X066040Y-062865
X066040Y-065405
X066040Y-067945
X066040Y-070485
X066040Y-073025
X066040Y-075565
X066040Y-078105
X066040Y-080645
X066040Y-083185
X066040Y-085725
X066040Y-088265
X066040Y-090805
X066040Y-093345
X066040Y-095885
X066040Y-098425
X066040Y-100965
X066040Y-103505
X066040Y-106045
X066040Y-108585
X066040Y-111125
X066040Y-113665
X066040Y-116205
X109220Y-017145
X109220Y-019685
X109220Y-022225
X109220Y-024765
X109220Y-027305
X109220Y-029845
X109220Y-032385
X109220Y-034925
X109220Y-037465
X109220Y-040005
X109220Y-042545
X109220Y-045085
X109220Y-047625
X109220Y-050165
X109220Y-052705
X109220Y-055245
X109220Y-057785
X109220Y-060325
X109220Y-062865
X109220Y-065405
X109220Y-067945
X109220Y-070485
X109220Y-073025
X109220Y-075565
X109220Y-078105
X109220Y-080645
X109220Y-083185
X109220Y-085725
X109220Y-088265
X109220Y-090805
X109220Y-093345
X109220Y-095885
X109220Y-098425
X109220Y-100965
X109220Y-103505
X109220Y-106045
X109220Y-108585
X109220Y-111125
X109220Y-113665
X109220Y-116205
X050800Y-017145
X050800Y-019685
X050800Y-022225
X050800Y-024765
X050800Y-027305
X050800Y-029845
X050800Y-032385
X050800Y-034925
X050800Y-037465
X050800Y-040005
X050800Y-042545
X050800Y-045085
X050800Y-047625
X050800Y-050165
X050800Y-052705
X050800Y-055245
X050800Y-057785
X050800Y-060325
X050800Y-062865
X050800Y-065405
X050800Y-067945
X050800Y-070485
X050800Y-073025
X050800Y-075565
X050800Y-078105
X050800Y-080645
X050800Y-083185
X050800Y-085725
X050800Y-088265
X050800Y-090805
X050800Y-093345
X050800Y-095885
X050800Y-098425
X050800Y-100965
X050800Y-103505
X050800Y-106045
X050800Y-108585
X050800Y-111125
X050800Y-113665
X050800Y-116205
X060960Y-017145
X060960Y-019685
X060960Y-022225
X060960Y-024765
X060960Y-027305
X060960Y-029845
X060960Y-032385
X060960Y-034925
X060960Y-037465
X060960Y-040005
X060960Y-042545
X060960Y-045085
X060960Y-047625
X060960Y-050165
X060960Y-052705
X060960Y-055245
X060960Y-057785
X060960Y-060325
X060960Y-062865
X060960Y-065405
X060960Y-067945
X060960Y-070485
X060960Y-073025
X060960Y-075565
X060960Y-078105
X060960Y-080645
X060960Y-083185
X060960Y-085725
X060960Y-088265
X060960Y-090805
X060960Y-093345
X060960Y-095885
X060960Y-098425
X060960Y-100965
X060960Y-103505
X060960Y-106045
X060960Y-108585
X060960Y-111125
X060960Y-113665
X060960Y-116205
X035560Y-017145
X035560Y-019685
X035560Y-022225
X035560Y-024765
X035560Y-027305
X035560Y-029845
X035560Y-032385
X035560Y-034925
X035560Y-037465
X035560Y-040005
X035560Y-042545
X035560Y-045085
X035560Y-047625
X035560Y-050165
X035560Y-052705
X035560Y-055245
X035560Y-057785
X035560Y-060325
X035560Y-062865
X035560Y-065405
X035560Y-067945
X035560Y-070485
X035560Y-073025
X035560Y-075565
X035560Y-078105
X035560Y-080645
X035560Y-083185
X035560Y-085725
X035560Y-088265
X035560Y-090805
X035560Y-093345
X035560Y-095885
X035560Y-098425
X035560Y-100965
X035560Y-103505
X035560Y-106045
X035560Y-108585
X035560Y-111125
X035560Y-113665
X035560Y-116205
X017780Y-017145
X017780Y-019685
X017780Y-022225
X017780Y-024765
X017780Y-027305
X017780Y-029845
X017780Y-032385
X017780Y-034925
X017780Y-037465
X017780Y-040005
X017780Y-042545
X017780Y-045085
X017780Y-047625
X017780Y-050165
X017780Y-052705
X017780Y-055245
X017780Y-057785
X017780Y-060325
X017780Y-062865
X017780Y-065405
X017780Y-067945
X017780Y-070485
X017780Y-073025
X017780Y-075565
X017780Y-078105
X017780Y-080645
X017780Y-083185
X017780Y-085725
X017780Y-088265
X017780Y-090805
X017780Y-093345
X017780Y-095885
X017780Y-098425
X017780Y-100965
X017780Y-103505
X017780Y-106045
X017780Y-108585
X017780Y-111125
X017780Y-113665
X017780Y-116205
X045720Y-017145
X045720Y-019685
X045720Y-022225
X045720Y-024765
X045720Y-027305
X045720Y-029845
X045720Y-032385
X045720Y-034925
X045720Y-037465
X045720Y-040005
X045720Y-042545
X045720Y-045085
X045720Y-047625
X045720Y-050165
X045720Y-052705
X045720Y-055245
X045720Y-057785
X045720Y-060325
X045720Y-062865
X045720Y-065405
X045720Y-067945
X045720Y-070485
X045720Y-073025
X045720Y-075565
X045720Y-078105
X045720Y-080645
X045720Y-083185
X045720Y-085725
X045720Y-088265
X045720Y-090805
X045720Y-093345
X045720Y-095885
X045720Y-098425
X045720Y-100965
X045720Y-103505
X045720Y-106045
X045720Y-108585
X045720Y-111125
X045720Y-113665
X045720Y-116205
X091440Y-017145
X091440Y-019685
X091440Y-022225
X091440Y-024765
X091440Y-027305
X091440Y-029845
X091440Y-032385
X091440Y-034925
X091440Y-037465
X091440Y-040005
X091440Y-042545
X091440Y-045085
X091440Y-047625
X091440Y-050165
X091440Y-052705
X091440Y-055245
X091440Y-057785
X091440Y-060325
X091440Y-062865
X091440Y-065405
X091440Y-067945
X091440Y-070485
X091440Y-073025
X091440Y-075565
X091440Y-078105
X091440Y-080645
X091440Y-083185
X091440Y-085725
X091440Y-088265
X091440Y-090805
X091440Y-093345
X091440Y-095885
X091440Y-098425
X091440Y-100965
X091440Y-103505
X091440Y-106045
X091440Y-108585
X091440Y-111125
X091440Y-113665
X091440Y-116205
X048260Y-017145
X048260Y-019685
X048260Y-022225
X048260Y-024765
X048260Y-027305
X048260Y-029845
X048260Y-032385
X048260Y-034925
X048260Y-037465
X048260Y-040005
X048260Y-042545
X048260Y-045085
X048260Y-047625
X048260Y-050165
X048260Y-052705
X048260Y-055245
X048260Y-057785
X048260Y-060325
X048260Y-062865
X048260Y-065405
X048260Y-067945
X048260Y-070485
X048260Y-073025
X048260Y-075565
X048260Y-078105
X048260Y-080645
X048260Y-083185
X048260Y-085725
X048260Y-088265
X048260Y-090805
X048260Y-093345
X048260Y-095885
X048260Y-098425
X048260Y-100965
X048260Y-103505
X048260Y-106045
X048260Y-108585
X048260Y-111125
X048260Y-113665
X048260Y-116205
X096471Y-017145
X096471Y-019685
X096471Y-022225
X096471Y-024765
X096471Y-027305
X096471Y-029845
X096471Y-032385
X096471Y-034925
X096471Y-037465
X096471Y-040005
X096471Y-042545
X096471Y-045085
X096471Y-047625
X096471Y-050165
X096471Y-052705
X096471Y-055245
X096471Y-057785
X096471Y-060325
X096471Y-062865
X096471Y-065405
X096471Y-067945
X096471Y-070485
X096471Y-073025
X096471Y-075565
X096471Y-078105
X096471Y-080645
X096471Y-083185
X096471Y-085725
X096471Y-088265
X096471Y-090805
X096471Y-093345
X096471Y-095885
X096471Y-098425
X096471Y-100965
X096471Y-103505
X096471Y-106045
X096471Y-108585
X096471Y-111125
X096471Y-113665
X096471Y-116205
X074930Y-014605
X077470Y-014605
X080010Y-014605
X082550Y-014605
X129540Y-017145
X129540Y-019685
X129540Y-022225
X129540Y-024765
X129540Y-027305
X129540Y-029845
X129540Y-032385
X129540Y-034925
X129540Y-037465
X129540Y-040005
X129540Y-042545
X129540Y-045085
X129540Y-047625
X129540Y-050165
X129540Y-052705
X129540Y-055245
X129540Y-057785
X129540Y-060325
X129540Y-062865
X129540Y-065405
X129540Y-067945
X129540Y-070485
X129540Y-073025
X129540Y-075565
X129540Y-078105
X129540Y-080645
X129540Y-083185
X129540Y-085725
X129540Y-088265
X129540Y-090805
X129540Y-093345
X129540Y-095885
X129540Y-098425
X129540Y-100965
X129540Y-103505
X129540Y-106045
X129540Y-108585
X129540Y-111125
X129540Y-113665
X129540Y-116205
X086360Y-017145
X086360Y-019685
X086360Y-022225
X086360Y-024765
X086360Y-027305
X086360Y-029845
X086360Y-032385
X086360Y-034925
X086360Y-037465
X086360Y-040005
X086360Y-042545
X086360Y-045085
X086360Y-047625
X086360Y-050165
X086360Y-052705
X086360Y-055245
X086360Y-057785
X086360Y-060325
X086360Y-062865
X086360Y-065405
X086360Y-067945
X086360Y-070485
X086360Y-073025
X086360Y-075565
X086360Y-078105
X086360Y-080645
X086360Y-083185
X086360Y-085725
X086360Y-088265
X086360Y-090805
X086360Y-093345
X086360Y-095885
X086360Y-098425
X086360Y-100965
X086360Y-103505
X086360Y-106045
X086360Y-108585
X086360Y-111125
X086360Y-113665
X086360Y-116205
X038100Y-017145
X038100Y-019685
X038100Y-022225
X038100Y-024765
X038100Y-027305
X038100Y-029845
X038100Y-032385
X038100Y-034925
X038100Y-037465
X038100Y-040005
X038100Y-042545
X038100Y-045085
X038100Y-047625
X038100Y-050165
X038100Y-052705
X038100Y-055245
X038100Y-057785
X038100Y-060325
X038100Y-062865
X038100Y-065405
X038100Y-067945
X038100Y-070485
X038100Y-073025
X038100Y-075565
X038100Y-078105
X038100Y-080645
X038100Y-083185
X038100Y-085725
X038100Y-088265
X038100Y-090805
X038100Y-093345
X038100Y-095885
X038100Y-098425
X038100Y-100965
X038100Y-103505
X038100Y-106045
X038100Y-108585
X038100Y-111125
X038100Y-113665
X038100Y-116205
X139700Y-017145
X139700Y-019685
X139700Y-022225
X139700Y-024765
X139700Y-027305
X139700Y-029845
X139700Y-032385
X139700Y-034925
X139700Y-037465
X139700Y-040005
X139700Y-042545
X139700Y-045085
X139700Y-047625
X139700Y-050165
X139700Y-052705
X139700Y-055245
X139700Y-057785
X139700Y-060325
X139700Y-062865
X139700Y-065405
X139700Y-067945
X139700Y-070485
X139700Y-073025
X139700Y-075565
X139700Y-078105
X139700Y-080645
X139700Y-083185
X139700Y-085725
X139700Y-088265
X139700Y-090805
X139700Y-093345
X139700Y-095885
X139700Y-098425
X139700Y-100965
X139700Y-103505
X139700Y-106045
X139700Y-108585
X139700Y-111125
X139700Y-113665
X139700Y-116205
X030480Y-017145
X030480Y-019685
X030480Y-022225
X030480Y-024765
X030480Y-027305
X030480Y-029845
X030480Y-032385
X030480Y-034925
X030480Y-037465
X030480Y-040005
X030480Y-042545
X030480Y-045085
X030480Y-047625
X030480Y-050165
X030480Y-052705
X030480Y-055245
X030480Y-057785
X030480Y-060325
X030480Y-062865
X030480Y-065405
X030480Y-067945
X030480Y-070485
X030480Y-073025
X030480Y-075565
X030480Y-078105
X030480Y-080645
X030480Y-083185
X030480Y-085725
X030480Y-088265
X030480Y-090805
X030480Y-093345
X030480Y-095885
X030480Y-098425
X030480Y-100965
X030480Y-103505
X030480Y-106045
X030480Y-108585
X030480Y-111125
X030480Y-113665
X030480Y-116205
X076200Y-017145
X076200Y-019685
X076200Y-022225
X076200Y-024765
X076200Y-027305
X076200Y-029845
X076200Y-032385
X076200Y-034925
X076200Y-037465
X076200Y-040005
X076200Y-042545
X076200Y-045085
X076200Y-047625
X076200Y-050165
X076200Y-052705
X076200Y-055245
X076200Y-057785
X076200Y-060325
X076200Y-062865
X076200Y-065405
X076200Y-067945
X076200Y-070485
X076200Y-073025
X076200Y-075565
X076200Y-078105
X076200Y-080645
X076200Y-083185
X076200Y-085725
X076200Y-088265
X076200Y-090805
X076200Y-093345
X076200Y-095885
X076200Y-098425
X076200Y-100965
X076200Y-103505
X076200Y-106045
X076200Y-108585
X076200Y-111125
X076200Y-113665
X076200Y-116205
X132080Y-017145
X132080Y-019685
X132080Y-022225
X132080Y-024765
X132080Y-027305
X132080Y-029845
X132080Y-032385
X132080Y-034925
X132080Y-037465
X132080Y-040005
X132080Y-042545
X132080Y-045085
X132080Y-047625
X132080Y-050165
X132080Y-052705
X132080Y-055245
X132080Y-057785
X132080Y-060325
X132080Y-062865
X132080Y-065405
X132080Y-067945
X132080Y-070485
X132080Y-073025
X132080Y-075565
X132080Y-078105
X132080Y-080645
X132080Y-083185
X132080Y-085725
X132080Y-088265
X132080Y-090805
X132080Y-093345
X132080Y-095885
X132080Y-098425
X132080Y-100965
X132080Y-103505
X132080Y-106045
X132080Y-108585
X132080Y-111125
X132080Y-113665
X132080Y-116205
X058420Y-017145
X058420Y-019685
X058420Y-022225
X058420Y-024765
X058420Y-027305
X058420Y-029845
X058420Y-032385
X058420Y-034925
X058420Y-037465
X058420Y-040005
X058420Y-042545
X058420Y-045085
X058420Y-047625
X058420Y-050165
X058420Y-052705
X058420Y-055245
X058420Y-057785
X058420Y-060325
X058420Y-062865
X058420Y-065405
X058420Y-067945
X058420Y-070485
X058420Y-073025
X058420Y-075565
X058420Y-078105
X058420Y-080645
X058420Y-083185
X058420Y-085725
X058420Y-088265
X058420Y-090805
X058420Y-093345
X058420Y-095885
X058420Y-098425
X058420Y-100965
X058420Y-103505
X058420Y-106045
X058420Y-108585
X058420Y-111125
X058420Y-113665
X058420Y-116205
X015240Y-017145
X015240Y-019685
X015240Y-022225
X015240Y-024765
X015240Y-027305
X015240Y-029845
X015240Y-032385
X015240Y-034925
X015240Y-037465
X015240Y-040005
X015240Y-042545
X015240Y-045085
X015240Y-047625
X015240Y-050165
X015240Y-052705
X015240Y-055245
X015240Y-057785
X015240Y-060325
X015240Y-062865
X015240Y-065405
X015240Y-067945
X015240Y-070485
X015240Y-073025
X015240Y-075565
X015240Y-078105
X015240Y-080645
X015240Y-083185
X015240Y-085725
X015240Y-088265
X015240Y-090805
X015240Y-093345
X015240Y-095885
X015240Y-098425
X015240Y-100965
X015240Y-103505
X015240Y-106045
X015240Y-108585
X015240Y-111125
X015240Y-113665
X015240Y-116205
X068580Y-017145
X068580Y-019685
X068580Y-022225
X068580Y-024765
X068580Y-027305
X068580Y-029845
X068580Y-032385
X068580Y-034925
X068580Y-037465
X068580Y-040005
X068580Y-042545
X068580Y-045085
X068580Y-047625
X068580Y-050165
X068580Y-052705
X068580Y-055245
X068580Y-057785
X068580Y-060325
X068580Y-062865
X068580Y-065405
X068580Y-067945
X068580Y-070485
X068580Y-073025
X068580Y-075565
X068580Y-078105
X068580Y-080645
X068580Y-083185
X068580Y-085725
X068580Y-088265
X068580Y-090805
X068580Y-093345
X068580Y-095885
X068580Y-098425
X068580Y-100965
X068580Y-103505
X068580Y-106045
X068580Y-108585
X068580Y-111125
X068580Y-113665
X068580Y-116205
X111760Y-017145
X111760Y-019685
X111760Y-022225
X111760Y-024765
X111760Y-027305
X111760Y-029845
X111760Y-032385
X111760Y-034925
X111760Y-037465
X111760Y-040005
X111760Y-042545
X111760Y-045085
X111760Y-047625
X111760Y-050165
X111760Y-052705
X111760Y-055245
X111760Y-057785
X111760Y-060325
X111760Y-062865
X111760Y-065405
X111760Y-067945
X111760Y-070485
X111760Y-073025
X111760Y-075565
X111760Y-078105
X111760Y-080645
X111760Y-083185
X111760Y-085725
X111760Y-088265
X111760Y-090805
X111760Y-093345
X111760Y-095885
X111760Y-098425
X111760Y-100965
X111760Y-103505
X111760Y-106045
X111760Y-108585
X111760Y-111125
X111760Y-113665
X111760Y-116205
X121920Y-017145
X121920Y-019685
X121920Y-022225
X121920Y-024765
X121920Y-027305
X121920Y-029845
X121920Y-032385
X121920Y-034925
X121920Y-037465
X121920Y-040005
X121920Y-042545
X121920Y-045085
X121920Y-047625
X121920Y-050165
X121920Y-052705
X121920Y-055245
X121920Y-057785
X121920Y-060325
X121920Y-062865
X121920Y-065405
X121920Y-067945
X121920Y-070485
X121920Y-073025
X121920Y-075565
X121920Y-078105
X121920Y-080645
X121920Y-083185
X121920Y-085725
X121920Y-088265
X121920Y-090805
X121920Y-093345
X121920Y-095885
X121920Y-098425
X121920Y-100965
X121920Y-103505
X121920Y-106045
X121920Y-108585
X121920Y-111125
X121920Y-113665
X121920Y-116205
X025400Y-017145
X025400Y-019685
X025400Y-022225
X025400Y-024765
X025400Y-027305
X025400Y-029845
X025400Y-032385
X025400Y-034925
X025400Y-037465
X025400Y-040005
X025400Y-042545
X025400Y-045085
X025400Y-047625
X025400Y-050165
X025400Y-052705
X025400Y-055245
X025400Y-057785
X025400Y-060325
X025400Y-062865
X025400Y-065405
X025400Y-067945
X025400Y-070485
X025400Y-073025
X025400Y-075565
X025400Y-078105
X025400Y-080645
X025400Y-083185
X025400Y-085725
X025400Y-088265
X025400Y-090805
X025400Y-093345
X025400Y-095885
X025400Y-098425
X025400Y-100965
X025400Y-103505
X025400Y-106045
X025400Y-108585
X025400Y-111125
X025400Y-113665
X025400Y-116205
X027940Y-017145
X027940Y-019685
X027940Y-022225
X027940Y-024765
X027940Y-027305
X027940Y-029845
X027940Y-032385
X027940Y-034925
X027940Y-037465
X027940Y-040005
X027940Y-042545
X027940Y-045085
X027940Y-047625
X027940Y-050165
X027940Y-052705
X027940Y-055245
X027940Y-057785
X027940Y-060325
X027940Y-062865
X027940Y-065405
X027940Y-067945
X027940Y-070485
X027940Y-073025
X027940Y-075565
X027940Y-078105
X027940Y-080645
X027940Y-083185
X027940Y-085725
X027940Y-088265
X027940Y-090805
X027940Y-093345
X027940Y-095885
X027940Y-098425
X027940Y-100965
X027940Y-103505
X027940Y-106045
X027940Y-108585
X027940Y-111125
X027940Y-113665
X027940Y-116205
X078740Y-017145
X078740Y-019685
X078740Y-022225
X078740Y-024765
X078740Y-027305
X078740Y-029845
X078740Y-032385
X078740Y-034925
X078740Y-037465
X078740Y-040005
X078740Y-042545
X078740Y-045085
X078740Y-047625
X078740Y-050165
X078740Y-052705
X078740Y-055245
X078740Y-057785
X078740Y-060325
X078740Y-062865
X078740Y-065405
X078740Y-067945
X078740Y-070485
X078740Y-073025
X078740Y-075565
X078740Y-078105
X078740Y-080645
X078740Y-083185
X078740Y-085725
X078740Y-088265
X078740Y-090805
X078740Y-093345
X078740Y-095885
X078740Y-098425
X078740Y-100965
X078740Y-103505
X078740Y-106045
X078740Y-108585
X078740Y-111125
X078740Y-113665
X078740Y-116205
X055880Y-017145
X055880Y-019685
X055880Y-022225
X055880Y-024765
X055880Y-027305
X055880Y-029845
X055880Y-032385
X055880Y-034925
X055880Y-037465
X055880Y-040005
X055880Y-042545
X055880Y-045085
X055880Y-047625
X055880Y-050165
X055880Y-052705
X055880Y-055245
X055880Y-057785
X055880Y-060325
X055880Y-062865
X055880Y-065405
X055880Y-067945
X055880Y-070485
X055880Y-073025
X055880Y-075565
X055880Y-078105
X055880Y-080645
X055880Y-083185
X055880Y-085725
X055880Y-088265
X055880Y-090805
X055880Y-093345
X055880Y-095885
X055880Y-098425
X055880Y-100965
X055880Y-103505
X055880Y-106045
X055880Y-108585
X055880Y-111125
X055880Y-113665
X055880Y-116205
X099060Y-017145
X099060Y-019685
X099060Y-022225
X099060Y-024765
X099060Y-027305
X099060Y-029845
X099060Y-032385
X099060Y-034925
X099060Y-037465
X099060Y-040005
X099060Y-042545
X099060Y-045085
X099060Y-047625
X099060Y-050165
X099060Y-052705
X099060Y-055245
X099060Y-057785
X099060Y-060325
X099060Y-062865
X099060Y-065405
X099060Y-067945
X099060Y-070485
X099060Y-073025
X099060Y-075565
X099060Y-078105
X099060Y-080645
X099060Y-083185
X099060Y-085725
X099060Y-088265
X099060Y-090805
X099060Y-093345
X099060Y-095885
X099060Y-098425
X099060Y-100965
X099060Y-103505
X099060Y-106045
X099060Y-108585
X099060Y-111125
X099060Y-113665
X099060Y-116205
X101600Y-017145
X101600Y-019685
X101600Y-022225
X101600Y-024765
X101600Y-027305
X101600Y-029845
X101600Y-032385
X101600Y-034925
X101600Y-037465
X101600Y-040005
X101600Y-042545
X101600Y-045085
X101600Y-047625
X101600Y-050165
X101600Y-052705
X101600Y-055245
X101600Y-057785
X101600Y-060325
X101600Y-062865
X101600Y-065405
X101600Y-067945
X101600Y-070485
X101600Y-073025
X101600Y-075565
X101600Y-078105
X101600Y-080645
X101600Y-083185
X101600Y-085725
X101600Y-088265
X101600Y-090805
X101600Y-093345
X101600Y-095885
X101600Y-098425
X101600Y-100965
X101600Y-103505
X101600Y-106045
X101600Y-108585
X101600Y-111125
X101600Y-113665
X101600Y-116205
X071120Y-017145
X071120Y-019685
X071120Y-022225
X071120Y-024765
X071120Y-027305
X071120Y-029845
X071120Y-032385
X071120Y-034925
X071120Y-037465
X071120Y-040005
X071120Y-042545
X071120Y-045085
X071120Y-047625
X071120Y-050165
X071120Y-052705
X071120Y-055245
X071120Y-057785
X071120Y-060325
X071120Y-062865
X071120Y-065405
X071120Y-067945
X071120Y-070485
X071120Y-073025
X071120Y-075565
X071120Y-078105
X071120Y-080645
X071120Y-083185
X071120Y-085725
X071120Y-088265
X071120Y-090805
X071120Y-093345
X071120Y-095885
X071120Y-098425
X071120Y-100965
X071120Y-103505
X071120Y-106045
X071120Y-108585
X071120Y-111125
X071120Y-113665
X071120Y-116205
X081280Y-017145
X081280Y-019685
X081280Y-022225
X081280Y-024765
X081280Y-027305
X081280Y-029845
X081280Y-032385
X081280Y-034925
X081280Y-037465
X081280Y-040005
X081280Y-042545
X081280Y-045085
X081280Y-047625
X081280Y-050165
X081280Y-052705
X081280Y-055245
X081280Y-057785
X081280Y-060325
X081280Y-062865
X081280Y-065405
X081280Y-067945
X081280Y-070485
X081280Y-073025
X081280Y-075565
X081280Y-078105
X081280Y-080645
X081280Y-083185
X081280Y-085725
X081280Y-088265
X081280Y-090805
X081280Y-093345
X081280Y-095885
X081280Y-098425
X081280Y-100965
X081280Y-103505
X081280Y-106045
X081280Y-108585
X081280Y-111125
X081280Y-113665
X081280Y-116205
X119380Y-017145
X119380Y-019685
X119380Y-022225
X119380Y-024765
X119380Y-027305
X119380Y-029845
X119380Y-032385
X119380Y-034925
X119380Y-037465
X119380Y-040005
X119380Y-042545
X119380Y-045085
X119380Y-047625
X119380Y-050165
X119380Y-052705
X119380Y-055245
X119380Y-057785
X119380Y-060325
X119380Y-062865
X119380Y-065405
X119380Y-067945
X119380Y-070485
X119380Y-073025
X119380Y-075565
X119380Y-078105
X119380Y-080645
X119380Y-083185
X119380Y-085725
X119380Y-088265
X119380Y-090805
X119380Y-093345
X119380Y-095885
X119380Y-098425
X119380Y-100965
X119380Y-103505
X119380Y-106045
X119380Y-108585
X119380Y-111125
X119380Y-113665
X119380Y-116205
X127000Y-017145
X127000Y-019685
X127000Y-022225
X127000Y-024765
X127000Y-027305
X127000Y-029845
X127000Y-032385
X127000Y-034925
X127000Y-037465
X127000Y-040005
X127000Y-042545
X127000Y-045085
X127000Y-047625
X127000Y-050165
X127000Y-052705
X127000Y-055245
X127000Y-057785
X127000Y-060325
X127000Y-062865
X127000Y-065405
X127000Y-067945
X127000Y-070485
X127000Y-073025
X127000Y-075565
X127000Y-078105
X127000Y-080645
X127000Y-083185
X127000Y-085725
X127000Y-088265
X127000Y-090805
X127000Y-093345
X127000Y-095885
X127000Y-098425
X127000Y-100965
X127000Y-103505
X127000Y-106045
X127000Y-108585
X127000Y-111125
X127000Y-113665
X127000Y-116205
X116840Y-017145
X116840Y-019685
X116840Y-022225
X116840Y-024765
X116840Y-027305
X116840Y-029845
X116840Y-032385
X116840Y-034925
X116840Y-037465
X116840Y-040005
X116840Y-042545
X116840Y-045085
X116840Y-047625
X116840Y-050165
X116840Y-052705
X116840Y-055245
X116840Y-057785
X116840Y-060325
X116840Y-062865
X116840Y-065405
X116840Y-067945
X116840Y-070485
X116840Y-073025
X116840Y-075565
X116840Y-078105
X116840Y-080645
X116840Y-083185
X116840Y-085725
X116840Y-088265
X116840Y-090805
X116840Y-093345
X116840Y-095885
X116840Y-098425
X116840Y-100965
X116840Y-103505
X116840Y-106045
X116840Y-108585
X116840Y-111125
X116840Y-113665
X116840Y-116205
X020320Y-017145
X020320Y-019685
X020320Y-022225
X020320Y-024765
X020320Y-027305
X020320Y-029845
X020320Y-032385
X020320Y-034925
X020320Y-037465
X020320Y-040005
X020320Y-042545
X020320Y-045085
X020320Y-047625
X020320Y-050165
X020320Y-052705
X020320Y-055245
X020320Y-057785
X020320Y-060325
X020320Y-062865
X020320Y-065405
X020320Y-067945
X020320Y-070485
X020320Y-073025
X020320Y-075565
X020320Y-078105
X020320Y-080645
X020320Y-083185
X020320Y-085725
X020320Y-088265
X020320Y-090805
X020320Y-093345
X020320Y-095885
X020320Y-098425
X020320Y-100965
X020320Y-103505
X020320Y-106045
X020320Y-108585
X020320Y-111125
X020320Y-113665
X020320Y-116205
T0
M30
