G04 #@! TF.GenerationSoftware,KiCad,Pcbnew,5.1.0*
G04 #@! TF.CreationDate,2019-07-01T01:43:07+09:00*
G04 #@! TF.ProjectId,base_board_a,62617365-5f62-46f6-9172-645f612e6b69,rev?*
G04 #@! TF.SameCoordinates,Original*
G04 #@! TF.FileFunction,Soldermask,Top*
G04 #@! TF.FilePolarity,Negative*
%FSLAX46Y46*%
G04 Gerber Fmt 4.6, Leading zero omitted, Abs format (unit mm)*
G04 Created by KiCad (PCBNEW 5.1.0) date 2019-07-01 01:43:07*
%MOMM*%
%LPD*%
G04 APERTURE LIST*
%ADD10O,1.700000X1.700000*%
%ADD11C,1.700000*%
G04 APERTURE END LIST*
D10*
X139700000Y-116205000D03*
X139700000Y-113665000D03*
X139700000Y-111125000D03*
X139700000Y-108585000D03*
X139700000Y-106045000D03*
X139700000Y-103505000D03*
X139700000Y-100965000D03*
X139700000Y-98425000D03*
X139700000Y-95885000D03*
X139700000Y-93345000D03*
X139700000Y-90805000D03*
X139700000Y-88265000D03*
X139700000Y-85725000D03*
X139700000Y-83185000D03*
X139700000Y-80645000D03*
X139700000Y-78105000D03*
X139700000Y-75565000D03*
X139700000Y-73025000D03*
X139700000Y-70485000D03*
X139700000Y-67945000D03*
X139700000Y-65405000D03*
X139700000Y-62865000D03*
X139700000Y-60325000D03*
X139700000Y-57785000D03*
X139700000Y-55245000D03*
X139700000Y-52705000D03*
X139700000Y-50165000D03*
X139700000Y-47625000D03*
X139700000Y-45085000D03*
X139700000Y-42545000D03*
X139700000Y-40005000D03*
X139700000Y-37465000D03*
X139700000Y-34925000D03*
X139700000Y-32385000D03*
X139700000Y-29845000D03*
X139700000Y-27305000D03*
X139700000Y-24765000D03*
X139700000Y-22225000D03*
X139700000Y-19685000D03*
D11*
X139700000Y-17145000D03*
D10*
X137160000Y-116205000D03*
X137160000Y-113665000D03*
X137160000Y-111125000D03*
X137160000Y-108585000D03*
X137160000Y-106045000D03*
X137160000Y-103505000D03*
X137160000Y-100965000D03*
X137160000Y-98425000D03*
X137160000Y-95885000D03*
X137160000Y-93345000D03*
X137160000Y-90805000D03*
X137160000Y-88265000D03*
X137160000Y-85725000D03*
X137160000Y-83185000D03*
X137160000Y-80645000D03*
X137160000Y-78105000D03*
X137160000Y-75565000D03*
X137160000Y-73025000D03*
X137160000Y-70485000D03*
X137160000Y-67945000D03*
X137160000Y-65405000D03*
X137160000Y-62865000D03*
X137160000Y-60325000D03*
X137160000Y-57785000D03*
X137160000Y-55245000D03*
X137160000Y-52705000D03*
X137160000Y-50165000D03*
X137160000Y-47625000D03*
X137160000Y-45085000D03*
X137160000Y-42545000D03*
X137160000Y-40005000D03*
X137160000Y-37465000D03*
X137160000Y-34925000D03*
X137160000Y-32385000D03*
X137160000Y-29845000D03*
X137160000Y-27305000D03*
X137160000Y-24765000D03*
X137160000Y-22225000D03*
X137160000Y-19685000D03*
D11*
X137160000Y-17145000D03*
D10*
X81280000Y-116205000D03*
X81280000Y-113665000D03*
X81280000Y-111125000D03*
X81280000Y-108585000D03*
X81280000Y-106045000D03*
X81280000Y-103505000D03*
X81280000Y-100965000D03*
X81280000Y-98425000D03*
X81280000Y-95885000D03*
X81280000Y-93345000D03*
X81280000Y-90805000D03*
X81280000Y-88265000D03*
X81280000Y-85725000D03*
X81280000Y-83185000D03*
X81280000Y-80645000D03*
X81280000Y-78105000D03*
X81280000Y-75565000D03*
X81280000Y-73025000D03*
X81280000Y-70485000D03*
X81280000Y-67945000D03*
X81280000Y-65405000D03*
X81280000Y-62865000D03*
X81280000Y-60325000D03*
X81280000Y-57785000D03*
X81280000Y-55245000D03*
X81280000Y-52705000D03*
X81280000Y-50165000D03*
X81280000Y-47625000D03*
X81280000Y-45085000D03*
X81280000Y-42545000D03*
X81280000Y-40005000D03*
X81280000Y-37465000D03*
X81280000Y-34925000D03*
X81280000Y-32385000D03*
X81280000Y-29845000D03*
X81280000Y-27305000D03*
X81280000Y-24765000D03*
X81280000Y-22225000D03*
X81280000Y-19685000D03*
D11*
X81280000Y-17145000D03*
X74930000Y-14605000D03*
D10*
X77470000Y-14605000D03*
X80010000Y-14605000D03*
X82550000Y-14605000D03*
X17780000Y-116205000D03*
X17780000Y-113665000D03*
X17780000Y-111125000D03*
X17780000Y-108585000D03*
X17780000Y-106045000D03*
X17780000Y-103505000D03*
X17780000Y-100965000D03*
X17780000Y-98425000D03*
X17780000Y-95885000D03*
X17780000Y-93345000D03*
X17780000Y-90805000D03*
X17780000Y-88265000D03*
X17780000Y-85725000D03*
X17780000Y-83185000D03*
X17780000Y-80645000D03*
X17780000Y-78105000D03*
X17780000Y-75565000D03*
X17780000Y-73025000D03*
X17780000Y-70485000D03*
X17780000Y-67945000D03*
X17780000Y-65405000D03*
X17780000Y-62865000D03*
X17780000Y-60325000D03*
X17780000Y-57785000D03*
X17780000Y-55245000D03*
X17780000Y-52705000D03*
X17780000Y-50165000D03*
X17780000Y-47625000D03*
X17780000Y-45085000D03*
X17780000Y-42545000D03*
X17780000Y-40005000D03*
X17780000Y-37465000D03*
X17780000Y-34925000D03*
X17780000Y-32385000D03*
X17780000Y-29845000D03*
X17780000Y-27305000D03*
X17780000Y-24765000D03*
X17780000Y-22225000D03*
X17780000Y-19685000D03*
D11*
X17780000Y-17145000D03*
D10*
X86360000Y-116205000D03*
X86360000Y-113665000D03*
X86360000Y-111125000D03*
X86360000Y-108585000D03*
X86360000Y-106045000D03*
X86360000Y-103505000D03*
X86360000Y-100965000D03*
X86360000Y-98425000D03*
X86360000Y-95885000D03*
X86360000Y-93345000D03*
X86360000Y-90805000D03*
X86360000Y-88265000D03*
X86360000Y-85725000D03*
X86360000Y-83185000D03*
X86360000Y-80645000D03*
X86360000Y-78105000D03*
X86360000Y-75565000D03*
X86360000Y-73025000D03*
X86360000Y-70485000D03*
X86360000Y-67945000D03*
X86360000Y-65405000D03*
X86360000Y-62865000D03*
X86360000Y-60325000D03*
X86360000Y-57785000D03*
X86360000Y-55245000D03*
X86360000Y-52705000D03*
X86360000Y-50165000D03*
X86360000Y-47625000D03*
X86360000Y-45085000D03*
X86360000Y-42545000D03*
X86360000Y-40005000D03*
X86360000Y-37465000D03*
X86360000Y-34925000D03*
X86360000Y-32385000D03*
X86360000Y-29845000D03*
X86360000Y-27305000D03*
X86360000Y-24765000D03*
X86360000Y-22225000D03*
X86360000Y-19685000D03*
D11*
X86360000Y-17145000D03*
D10*
X38100000Y-116205000D03*
X38100000Y-113665000D03*
X38100000Y-111125000D03*
X38100000Y-108585000D03*
X38100000Y-106045000D03*
X38100000Y-103505000D03*
X38100000Y-100965000D03*
X38100000Y-98425000D03*
X38100000Y-95885000D03*
X38100000Y-93345000D03*
X38100000Y-90805000D03*
X38100000Y-88265000D03*
X38100000Y-85725000D03*
X38100000Y-83185000D03*
X38100000Y-80645000D03*
X38100000Y-78105000D03*
X38100000Y-75565000D03*
X38100000Y-73025000D03*
X38100000Y-70485000D03*
X38100000Y-67945000D03*
X38100000Y-65405000D03*
X38100000Y-62865000D03*
X38100000Y-60325000D03*
X38100000Y-57785000D03*
X38100000Y-55245000D03*
X38100000Y-52705000D03*
X38100000Y-50165000D03*
X38100000Y-47625000D03*
X38100000Y-45085000D03*
X38100000Y-42545000D03*
X38100000Y-40005000D03*
X38100000Y-37465000D03*
X38100000Y-34925000D03*
X38100000Y-32385000D03*
X38100000Y-29845000D03*
X38100000Y-27305000D03*
X38100000Y-24765000D03*
X38100000Y-22225000D03*
X38100000Y-19685000D03*
D11*
X38100000Y-17145000D03*
D10*
X91440000Y-116205000D03*
X91440000Y-113665000D03*
X91440000Y-111125000D03*
X91440000Y-108585000D03*
X91440000Y-106045000D03*
X91440000Y-103505000D03*
X91440000Y-100965000D03*
X91440000Y-98425000D03*
X91440000Y-95885000D03*
X91440000Y-93345000D03*
X91440000Y-90805000D03*
X91440000Y-88265000D03*
X91440000Y-85725000D03*
X91440000Y-83185000D03*
X91440000Y-80645000D03*
X91440000Y-78105000D03*
X91440000Y-75565000D03*
X91440000Y-73025000D03*
X91440000Y-70485000D03*
X91440000Y-67945000D03*
X91440000Y-65405000D03*
X91440000Y-62865000D03*
X91440000Y-60325000D03*
X91440000Y-57785000D03*
X91440000Y-55245000D03*
X91440000Y-52705000D03*
X91440000Y-50165000D03*
X91440000Y-47625000D03*
X91440000Y-45085000D03*
X91440000Y-42545000D03*
X91440000Y-40005000D03*
X91440000Y-37465000D03*
X91440000Y-34925000D03*
X91440000Y-32385000D03*
X91440000Y-29845000D03*
X91440000Y-27305000D03*
X91440000Y-24765000D03*
X91440000Y-22225000D03*
X91440000Y-19685000D03*
D11*
X91440000Y-17145000D03*
D10*
X88900000Y-116205000D03*
X88900000Y-113665000D03*
X88900000Y-111125000D03*
X88900000Y-108585000D03*
X88900000Y-106045000D03*
X88900000Y-103505000D03*
X88900000Y-100965000D03*
X88900000Y-98425000D03*
X88900000Y-95885000D03*
X88900000Y-93345000D03*
X88900000Y-90805000D03*
X88900000Y-88265000D03*
X88900000Y-85725000D03*
X88900000Y-83185000D03*
X88900000Y-80645000D03*
X88900000Y-78105000D03*
X88900000Y-75565000D03*
X88900000Y-73025000D03*
X88900000Y-70485000D03*
X88900000Y-67945000D03*
X88900000Y-65405000D03*
X88900000Y-62865000D03*
X88900000Y-60325000D03*
X88900000Y-57785000D03*
X88900000Y-55245000D03*
X88900000Y-52705000D03*
X88900000Y-50165000D03*
X88900000Y-47625000D03*
X88900000Y-45085000D03*
X88900000Y-42545000D03*
X88900000Y-40005000D03*
X88900000Y-37465000D03*
X88900000Y-34925000D03*
X88900000Y-32385000D03*
X88900000Y-29845000D03*
X88900000Y-27305000D03*
X88900000Y-24765000D03*
X88900000Y-22225000D03*
X88900000Y-19685000D03*
D11*
X88900000Y-17145000D03*
D10*
X78740000Y-116205000D03*
X78740000Y-113665000D03*
X78740000Y-111125000D03*
X78740000Y-108585000D03*
X78740000Y-106045000D03*
X78740000Y-103505000D03*
X78740000Y-100965000D03*
X78740000Y-98425000D03*
X78740000Y-95885000D03*
X78740000Y-93345000D03*
X78740000Y-90805000D03*
X78740000Y-88265000D03*
X78740000Y-85725000D03*
X78740000Y-83185000D03*
X78740000Y-80645000D03*
X78740000Y-78105000D03*
X78740000Y-75565000D03*
X78740000Y-73025000D03*
X78740000Y-70485000D03*
X78740000Y-67945000D03*
X78740000Y-65405000D03*
X78740000Y-62865000D03*
X78740000Y-60325000D03*
X78740000Y-57785000D03*
X78740000Y-55245000D03*
X78740000Y-52705000D03*
X78740000Y-50165000D03*
X78740000Y-47625000D03*
X78740000Y-45085000D03*
X78740000Y-42545000D03*
X78740000Y-40005000D03*
X78740000Y-37465000D03*
X78740000Y-34925000D03*
X78740000Y-32385000D03*
X78740000Y-29845000D03*
X78740000Y-27305000D03*
X78740000Y-24765000D03*
X78740000Y-22225000D03*
X78740000Y-19685000D03*
D11*
X78740000Y-17145000D03*
D10*
X76200000Y-116205000D03*
X76200000Y-113665000D03*
X76200000Y-111125000D03*
X76200000Y-108585000D03*
X76200000Y-106045000D03*
X76200000Y-103505000D03*
X76200000Y-100965000D03*
X76200000Y-98425000D03*
X76200000Y-95885000D03*
X76200000Y-93345000D03*
X76200000Y-90805000D03*
X76200000Y-88265000D03*
X76200000Y-85725000D03*
X76200000Y-83185000D03*
X76200000Y-80645000D03*
X76200000Y-78105000D03*
X76200000Y-75565000D03*
X76200000Y-73025000D03*
X76200000Y-70485000D03*
X76200000Y-67945000D03*
X76200000Y-65405000D03*
X76200000Y-62865000D03*
X76200000Y-60325000D03*
X76200000Y-57785000D03*
X76200000Y-55245000D03*
X76200000Y-52705000D03*
X76200000Y-50165000D03*
X76200000Y-47625000D03*
X76200000Y-45085000D03*
X76200000Y-42545000D03*
X76200000Y-40005000D03*
X76200000Y-37465000D03*
X76200000Y-34925000D03*
X76200000Y-32385000D03*
X76200000Y-29845000D03*
X76200000Y-27305000D03*
X76200000Y-24765000D03*
X76200000Y-22225000D03*
X76200000Y-19685000D03*
D11*
X76200000Y-17145000D03*
D10*
X71120000Y-116205000D03*
X71120000Y-113665000D03*
X71120000Y-111125000D03*
X71120000Y-108585000D03*
X71120000Y-106045000D03*
X71120000Y-103505000D03*
X71120000Y-100965000D03*
X71120000Y-98425000D03*
X71120000Y-95885000D03*
X71120000Y-93345000D03*
X71120000Y-90805000D03*
X71120000Y-88265000D03*
X71120000Y-85725000D03*
X71120000Y-83185000D03*
X71120000Y-80645000D03*
X71120000Y-78105000D03*
X71120000Y-75565000D03*
X71120000Y-73025000D03*
X71120000Y-70485000D03*
X71120000Y-67945000D03*
X71120000Y-65405000D03*
X71120000Y-62865000D03*
X71120000Y-60325000D03*
X71120000Y-57785000D03*
X71120000Y-55245000D03*
X71120000Y-52705000D03*
X71120000Y-50165000D03*
X71120000Y-47625000D03*
X71120000Y-45085000D03*
X71120000Y-42545000D03*
X71120000Y-40005000D03*
X71120000Y-37465000D03*
X71120000Y-34925000D03*
X71120000Y-32385000D03*
X71120000Y-29845000D03*
X71120000Y-27305000D03*
X71120000Y-24765000D03*
X71120000Y-22225000D03*
X71120000Y-19685000D03*
D11*
X71120000Y-17145000D03*
D10*
X68580000Y-116205000D03*
X68580000Y-113665000D03*
X68580000Y-111125000D03*
X68580000Y-108585000D03*
X68580000Y-106045000D03*
X68580000Y-103505000D03*
X68580000Y-100965000D03*
X68580000Y-98425000D03*
X68580000Y-95885000D03*
X68580000Y-93345000D03*
X68580000Y-90805000D03*
X68580000Y-88265000D03*
X68580000Y-85725000D03*
X68580000Y-83185000D03*
X68580000Y-80645000D03*
X68580000Y-78105000D03*
X68580000Y-75565000D03*
X68580000Y-73025000D03*
X68580000Y-70485000D03*
X68580000Y-67945000D03*
X68580000Y-65405000D03*
X68580000Y-62865000D03*
X68580000Y-60325000D03*
X68580000Y-57785000D03*
X68580000Y-55245000D03*
X68580000Y-52705000D03*
X68580000Y-50165000D03*
X68580000Y-47625000D03*
X68580000Y-45085000D03*
X68580000Y-42545000D03*
X68580000Y-40005000D03*
X68580000Y-37465000D03*
X68580000Y-34925000D03*
X68580000Y-32385000D03*
X68580000Y-29845000D03*
X68580000Y-27305000D03*
X68580000Y-24765000D03*
X68580000Y-22225000D03*
X68580000Y-19685000D03*
D11*
X68580000Y-17145000D03*
D10*
X66040000Y-116205000D03*
X66040000Y-113665000D03*
X66040000Y-111125000D03*
X66040000Y-108585000D03*
X66040000Y-106045000D03*
X66040000Y-103505000D03*
X66040000Y-100965000D03*
X66040000Y-98425000D03*
X66040000Y-95885000D03*
X66040000Y-93345000D03*
X66040000Y-90805000D03*
X66040000Y-88265000D03*
X66040000Y-85725000D03*
X66040000Y-83185000D03*
X66040000Y-80645000D03*
X66040000Y-78105000D03*
X66040000Y-75565000D03*
X66040000Y-73025000D03*
X66040000Y-70485000D03*
X66040000Y-67945000D03*
X66040000Y-65405000D03*
X66040000Y-62865000D03*
X66040000Y-60325000D03*
X66040000Y-57785000D03*
X66040000Y-55245000D03*
X66040000Y-52705000D03*
X66040000Y-50165000D03*
X66040000Y-47625000D03*
X66040000Y-45085000D03*
X66040000Y-42545000D03*
X66040000Y-40005000D03*
X66040000Y-37465000D03*
X66040000Y-34925000D03*
X66040000Y-32385000D03*
X66040000Y-29845000D03*
X66040000Y-27305000D03*
X66040000Y-24765000D03*
X66040000Y-22225000D03*
X66040000Y-19685000D03*
D11*
X66040000Y-17145000D03*
D10*
X142240000Y-116205000D03*
X142240000Y-113665000D03*
X142240000Y-111125000D03*
X142240000Y-108585000D03*
X142240000Y-106045000D03*
X142240000Y-103505000D03*
X142240000Y-100965000D03*
X142240000Y-98425000D03*
X142240000Y-95885000D03*
X142240000Y-93345000D03*
X142240000Y-90805000D03*
X142240000Y-88265000D03*
X142240000Y-85725000D03*
X142240000Y-83185000D03*
X142240000Y-80645000D03*
X142240000Y-78105000D03*
X142240000Y-75565000D03*
X142240000Y-73025000D03*
X142240000Y-70485000D03*
X142240000Y-67945000D03*
X142240000Y-65405000D03*
X142240000Y-62865000D03*
X142240000Y-60325000D03*
X142240000Y-57785000D03*
X142240000Y-55245000D03*
X142240000Y-52705000D03*
X142240000Y-50165000D03*
X142240000Y-47625000D03*
X142240000Y-45085000D03*
X142240000Y-42545000D03*
X142240000Y-40005000D03*
X142240000Y-37465000D03*
X142240000Y-34925000D03*
X142240000Y-32385000D03*
X142240000Y-29845000D03*
X142240000Y-27305000D03*
X142240000Y-24765000D03*
X142240000Y-22225000D03*
X142240000Y-19685000D03*
D11*
X142240000Y-17145000D03*
D10*
X60960000Y-116205000D03*
X60960000Y-113665000D03*
X60960000Y-111125000D03*
X60960000Y-108585000D03*
X60960000Y-106045000D03*
X60960000Y-103505000D03*
X60960000Y-100965000D03*
X60960000Y-98425000D03*
X60960000Y-95885000D03*
X60960000Y-93345000D03*
X60960000Y-90805000D03*
X60960000Y-88265000D03*
X60960000Y-85725000D03*
X60960000Y-83185000D03*
X60960000Y-80645000D03*
X60960000Y-78105000D03*
X60960000Y-75565000D03*
X60960000Y-73025000D03*
X60960000Y-70485000D03*
X60960000Y-67945000D03*
X60960000Y-65405000D03*
X60960000Y-62865000D03*
X60960000Y-60325000D03*
X60960000Y-57785000D03*
X60960000Y-55245000D03*
X60960000Y-52705000D03*
X60960000Y-50165000D03*
X60960000Y-47625000D03*
X60960000Y-45085000D03*
X60960000Y-42545000D03*
X60960000Y-40005000D03*
X60960000Y-37465000D03*
X60960000Y-34925000D03*
X60960000Y-32385000D03*
X60960000Y-29845000D03*
X60960000Y-27305000D03*
X60960000Y-24765000D03*
X60960000Y-22225000D03*
X60960000Y-19685000D03*
D11*
X60960000Y-17145000D03*
D10*
X58420000Y-116205000D03*
X58420000Y-113665000D03*
X58420000Y-111125000D03*
X58420000Y-108585000D03*
X58420000Y-106045000D03*
X58420000Y-103505000D03*
X58420000Y-100965000D03*
X58420000Y-98425000D03*
X58420000Y-95885000D03*
X58420000Y-93345000D03*
X58420000Y-90805000D03*
X58420000Y-88265000D03*
X58420000Y-85725000D03*
X58420000Y-83185000D03*
X58420000Y-80645000D03*
X58420000Y-78105000D03*
X58420000Y-75565000D03*
X58420000Y-73025000D03*
X58420000Y-70485000D03*
X58420000Y-67945000D03*
X58420000Y-65405000D03*
X58420000Y-62865000D03*
X58420000Y-60325000D03*
X58420000Y-57785000D03*
X58420000Y-55245000D03*
X58420000Y-52705000D03*
X58420000Y-50165000D03*
X58420000Y-47625000D03*
X58420000Y-45085000D03*
X58420000Y-42545000D03*
X58420000Y-40005000D03*
X58420000Y-37465000D03*
X58420000Y-34925000D03*
X58420000Y-32385000D03*
X58420000Y-29845000D03*
X58420000Y-27305000D03*
X58420000Y-24765000D03*
X58420000Y-22225000D03*
X58420000Y-19685000D03*
D11*
X58420000Y-17145000D03*
D10*
X55880000Y-116205000D03*
X55880000Y-113665000D03*
X55880000Y-111125000D03*
X55880000Y-108585000D03*
X55880000Y-106045000D03*
X55880000Y-103505000D03*
X55880000Y-100965000D03*
X55880000Y-98425000D03*
X55880000Y-95885000D03*
X55880000Y-93345000D03*
X55880000Y-90805000D03*
X55880000Y-88265000D03*
X55880000Y-85725000D03*
X55880000Y-83185000D03*
X55880000Y-80645000D03*
X55880000Y-78105000D03*
X55880000Y-75565000D03*
X55880000Y-73025000D03*
X55880000Y-70485000D03*
X55880000Y-67945000D03*
X55880000Y-65405000D03*
X55880000Y-62865000D03*
X55880000Y-60325000D03*
X55880000Y-57785000D03*
X55880000Y-55245000D03*
X55880000Y-52705000D03*
X55880000Y-50165000D03*
X55880000Y-47625000D03*
X55880000Y-45085000D03*
X55880000Y-42545000D03*
X55880000Y-40005000D03*
X55880000Y-37465000D03*
X55880000Y-34925000D03*
X55880000Y-32385000D03*
X55880000Y-29845000D03*
X55880000Y-27305000D03*
X55880000Y-24765000D03*
X55880000Y-22225000D03*
X55880000Y-19685000D03*
D11*
X55880000Y-17145000D03*
D10*
X132080000Y-116205000D03*
X132080000Y-113665000D03*
X132080000Y-111125000D03*
X132080000Y-108585000D03*
X132080000Y-106045000D03*
X132080000Y-103505000D03*
X132080000Y-100965000D03*
X132080000Y-98425000D03*
X132080000Y-95885000D03*
X132080000Y-93345000D03*
X132080000Y-90805000D03*
X132080000Y-88265000D03*
X132080000Y-85725000D03*
X132080000Y-83185000D03*
X132080000Y-80645000D03*
X132080000Y-78105000D03*
X132080000Y-75565000D03*
X132080000Y-73025000D03*
X132080000Y-70485000D03*
X132080000Y-67945000D03*
X132080000Y-65405000D03*
X132080000Y-62865000D03*
X132080000Y-60325000D03*
X132080000Y-57785000D03*
X132080000Y-55245000D03*
X132080000Y-52705000D03*
X132080000Y-50165000D03*
X132080000Y-47625000D03*
X132080000Y-45085000D03*
X132080000Y-42545000D03*
X132080000Y-40005000D03*
X132080000Y-37465000D03*
X132080000Y-34925000D03*
X132080000Y-32385000D03*
X132080000Y-29845000D03*
X132080000Y-27305000D03*
X132080000Y-24765000D03*
X132080000Y-22225000D03*
X132080000Y-19685000D03*
D11*
X132080000Y-17145000D03*
D10*
X50800000Y-116205000D03*
X50800000Y-113665000D03*
X50800000Y-111125000D03*
X50800000Y-108585000D03*
X50800000Y-106045000D03*
X50800000Y-103505000D03*
X50800000Y-100965000D03*
X50800000Y-98425000D03*
X50800000Y-95885000D03*
X50800000Y-93345000D03*
X50800000Y-90805000D03*
X50800000Y-88265000D03*
X50800000Y-85725000D03*
X50800000Y-83185000D03*
X50800000Y-80645000D03*
X50800000Y-78105000D03*
X50800000Y-75565000D03*
X50800000Y-73025000D03*
X50800000Y-70485000D03*
X50800000Y-67945000D03*
X50800000Y-65405000D03*
X50800000Y-62865000D03*
X50800000Y-60325000D03*
X50800000Y-57785000D03*
X50800000Y-55245000D03*
X50800000Y-52705000D03*
X50800000Y-50165000D03*
X50800000Y-47625000D03*
X50800000Y-45085000D03*
X50800000Y-42545000D03*
X50800000Y-40005000D03*
X50800000Y-37465000D03*
X50800000Y-34925000D03*
X50800000Y-32385000D03*
X50800000Y-29845000D03*
X50800000Y-27305000D03*
X50800000Y-24765000D03*
X50800000Y-22225000D03*
X50800000Y-19685000D03*
D11*
X50800000Y-17145000D03*
D10*
X129540000Y-116205000D03*
X129540000Y-113665000D03*
X129540000Y-111125000D03*
X129540000Y-108585000D03*
X129540000Y-106045000D03*
X129540000Y-103505000D03*
X129540000Y-100965000D03*
X129540000Y-98425000D03*
X129540000Y-95885000D03*
X129540000Y-93345000D03*
X129540000Y-90805000D03*
X129540000Y-88265000D03*
X129540000Y-85725000D03*
X129540000Y-83185000D03*
X129540000Y-80645000D03*
X129540000Y-78105000D03*
X129540000Y-75565000D03*
X129540000Y-73025000D03*
X129540000Y-70485000D03*
X129540000Y-67945000D03*
X129540000Y-65405000D03*
X129540000Y-62865000D03*
X129540000Y-60325000D03*
X129540000Y-57785000D03*
X129540000Y-55245000D03*
X129540000Y-52705000D03*
X129540000Y-50165000D03*
X129540000Y-47625000D03*
X129540000Y-45085000D03*
X129540000Y-42545000D03*
X129540000Y-40005000D03*
X129540000Y-37465000D03*
X129540000Y-34925000D03*
X129540000Y-32385000D03*
X129540000Y-29845000D03*
X129540000Y-27305000D03*
X129540000Y-24765000D03*
X129540000Y-22225000D03*
X129540000Y-19685000D03*
D11*
X129540000Y-17145000D03*
D10*
X48260000Y-116205000D03*
X48260000Y-113665000D03*
X48260000Y-111125000D03*
X48260000Y-108585000D03*
X48260000Y-106045000D03*
X48260000Y-103505000D03*
X48260000Y-100965000D03*
X48260000Y-98425000D03*
X48260000Y-95885000D03*
X48260000Y-93345000D03*
X48260000Y-90805000D03*
X48260000Y-88265000D03*
X48260000Y-85725000D03*
X48260000Y-83185000D03*
X48260000Y-80645000D03*
X48260000Y-78105000D03*
X48260000Y-75565000D03*
X48260000Y-73025000D03*
X48260000Y-70485000D03*
X48260000Y-67945000D03*
X48260000Y-65405000D03*
X48260000Y-62865000D03*
X48260000Y-60325000D03*
X48260000Y-57785000D03*
X48260000Y-55245000D03*
X48260000Y-52705000D03*
X48260000Y-50165000D03*
X48260000Y-47625000D03*
X48260000Y-45085000D03*
X48260000Y-42545000D03*
X48260000Y-40005000D03*
X48260000Y-37465000D03*
X48260000Y-34925000D03*
X48260000Y-32385000D03*
X48260000Y-29845000D03*
X48260000Y-27305000D03*
X48260000Y-24765000D03*
X48260000Y-22225000D03*
X48260000Y-19685000D03*
D11*
X48260000Y-17145000D03*
D10*
X127000000Y-116205000D03*
X127000000Y-113665000D03*
X127000000Y-111125000D03*
X127000000Y-108585000D03*
X127000000Y-106045000D03*
X127000000Y-103505000D03*
X127000000Y-100965000D03*
X127000000Y-98425000D03*
X127000000Y-95885000D03*
X127000000Y-93345000D03*
X127000000Y-90805000D03*
X127000000Y-88265000D03*
X127000000Y-85725000D03*
X127000000Y-83185000D03*
X127000000Y-80645000D03*
X127000000Y-78105000D03*
X127000000Y-75565000D03*
X127000000Y-73025000D03*
X127000000Y-70485000D03*
X127000000Y-67945000D03*
X127000000Y-65405000D03*
X127000000Y-62865000D03*
X127000000Y-60325000D03*
X127000000Y-57785000D03*
X127000000Y-55245000D03*
X127000000Y-52705000D03*
X127000000Y-50165000D03*
X127000000Y-47625000D03*
X127000000Y-45085000D03*
X127000000Y-42545000D03*
X127000000Y-40005000D03*
X127000000Y-37465000D03*
X127000000Y-34925000D03*
X127000000Y-32385000D03*
X127000000Y-29845000D03*
X127000000Y-27305000D03*
X127000000Y-24765000D03*
X127000000Y-22225000D03*
X127000000Y-19685000D03*
D11*
X127000000Y-17145000D03*
D10*
X45720000Y-116205000D03*
X45720000Y-113665000D03*
X45720000Y-111125000D03*
X45720000Y-108585000D03*
X45720000Y-106045000D03*
X45720000Y-103505000D03*
X45720000Y-100965000D03*
X45720000Y-98425000D03*
X45720000Y-95885000D03*
X45720000Y-93345000D03*
X45720000Y-90805000D03*
X45720000Y-88265000D03*
X45720000Y-85725000D03*
X45720000Y-83185000D03*
X45720000Y-80645000D03*
X45720000Y-78105000D03*
X45720000Y-75565000D03*
X45720000Y-73025000D03*
X45720000Y-70485000D03*
X45720000Y-67945000D03*
X45720000Y-65405000D03*
X45720000Y-62865000D03*
X45720000Y-60325000D03*
X45720000Y-57785000D03*
X45720000Y-55245000D03*
X45720000Y-52705000D03*
X45720000Y-50165000D03*
X45720000Y-47625000D03*
X45720000Y-45085000D03*
X45720000Y-42545000D03*
X45720000Y-40005000D03*
X45720000Y-37465000D03*
X45720000Y-34925000D03*
X45720000Y-32385000D03*
X45720000Y-29845000D03*
X45720000Y-27305000D03*
X45720000Y-24765000D03*
X45720000Y-22225000D03*
X45720000Y-19685000D03*
D11*
X45720000Y-17145000D03*
D10*
X121920000Y-116205000D03*
X121920000Y-113665000D03*
X121920000Y-111125000D03*
X121920000Y-108585000D03*
X121920000Y-106045000D03*
X121920000Y-103505000D03*
X121920000Y-100965000D03*
X121920000Y-98425000D03*
X121920000Y-95885000D03*
X121920000Y-93345000D03*
X121920000Y-90805000D03*
X121920000Y-88265000D03*
X121920000Y-85725000D03*
X121920000Y-83185000D03*
X121920000Y-80645000D03*
X121920000Y-78105000D03*
X121920000Y-75565000D03*
X121920000Y-73025000D03*
X121920000Y-70485000D03*
X121920000Y-67945000D03*
X121920000Y-65405000D03*
X121920000Y-62865000D03*
X121920000Y-60325000D03*
X121920000Y-57785000D03*
X121920000Y-55245000D03*
X121920000Y-52705000D03*
X121920000Y-50165000D03*
X121920000Y-47625000D03*
X121920000Y-45085000D03*
X121920000Y-42545000D03*
X121920000Y-40005000D03*
X121920000Y-37465000D03*
X121920000Y-34925000D03*
X121920000Y-32385000D03*
X121920000Y-29845000D03*
X121920000Y-27305000D03*
X121920000Y-24765000D03*
X121920000Y-22225000D03*
X121920000Y-19685000D03*
D11*
X121920000Y-17145000D03*
D10*
X40640000Y-116205000D03*
X40640000Y-113665000D03*
X40640000Y-111125000D03*
X40640000Y-108585000D03*
X40640000Y-106045000D03*
X40640000Y-103505000D03*
X40640000Y-100965000D03*
X40640000Y-98425000D03*
X40640000Y-95885000D03*
X40640000Y-93345000D03*
X40640000Y-90805000D03*
X40640000Y-88265000D03*
X40640000Y-85725000D03*
X40640000Y-83185000D03*
X40640000Y-80645000D03*
X40640000Y-78105000D03*
X40640000Y-75565000D03*
X40640000Y-73025000D03*
X40640000Y-70485000D03*
X40640000Y-67945000D03*
X40640000Y-65405000D03*
X40640000Y-62865000D03*
X40640000Y-60325000D03*
X40640000Y-57785000D03*
X40640000Y-55245000D03*
X40640000Y-52705000D03*
X40640000Y-50165000D03*
X40640000Y-47625000D03*
X40640000Y-45085000D03*
X40640000Y-42545000D03*
X40640000Y-40005000D03*
X40640000Y-37465000D03*
X40640000Y-34925000D03*
X40640000Y-32385000D03*
X40640000Y-29845000D03*
X40640000Y-27305000D03*
X40640000Y-24765000D03*
X40640000Y-22225000D03*
X40640000Y-19685000D03*
D11*
X40640000Y-17145000D03*
D10*
X119380000Y-116205000D03*
X119380000Y-113665000D03*
X119380000Y-111125000D03*
X119380000Y-108585000D03*
X119380000Y-106045000D03*
X119380000Y-103505000D03*
X119380000Y-100965000D03*
X119380000Y-98425000D03*
X119380000Y-95885000D03*
X119380000Y-93345000D03*
X119380000Y-90805000D03*
X119380000Y-88265000D03*
X119380000Y-85725000D03*
X119380000Y-83185000D03*
X119380000Y-80645000D03*
X119380000Y-78105000D03*
X119380000Y-75565000D03*
X119380000Y-73025000D03*
X119380000Y-70485000D03*
X119380000Y-67945000D03*
X119380000Y-65405000D03*
X119380000Y-62865000D03*
X119380000Y-60325000D03*
X119380000Y-57785000D03*
X119380000Y-55245000D03*
X119380000Y-52705000D03*
X119380000Y-50165000D03*
X119380000Y-47625000D03*
X119380000Y-45085000D03*
X119380000Y-42545000D03*
X119380000Y-40005000D03*
X119380000Y-37465000D03*
X119380000Y-34925000D03*
X119380000Y-32385000D03*
X119380000Y-29845000D03*
X119380000Y-27305000D03*
X119380000Y-24765000D03*
X119380000Y-22225000D03*
X119380000Y-19685000D03*
D11*
X119380000Y-17145000D03*
D10*
X116840000Y-116205000D03*
X116840000Y-113665000D03*
X116840000Y-111125000D03*
X116840000Y-108585000D03*
X116840000Y-106045000D03*
X116840000Y-103505000D03*
X116840000Y-100965000D03*
X116840000Y-98425000D03*
X116840000Y-95885000D03*
X116840000Y-93345000D03*
X116840000Y-90805000D03*
X116840000Y-88265000D03*
X116840000Y-85725000D03*
X116840000Y-83185000D03*
X116840000Y-80645000D03*
X116840000Y-78105000D03*
X116840000Y-75565000D03*
X116840000Y-73025000D03*
X116840000Y-70485000D03*
X116840000Y-67945000D03*
X116840000Y-65405000D03*
X116840000Y-62865000D03*
X116840000Y-60325000D03*
X116840000Y-57785000D03*
X116840000Y-55245000D03*
X116840000Y-52705000D03*
X116840000Y-50165000D03*
X116840000Y-47625000D03*
X116840000Y-45085000D03*
X116840000Y-42545000D03*
X116840000Y-40005000D03*
X116840000Y-37465000D03*
X116840000Y-34925000D03*
X116840000Y-32385000D03*
X116840000Y-29845000D03*
X116840000Y-27305000D03*
X116840000Y-24765000D03*
X116840000Y-22225000D03*
X116840000Y-19685000D03*
D11*
X116840000Y-17145000D03*
D10*
X35560000Y-116205000D03*
X35560000Y-113665000D03*
X35560000Y-111125000D03*
X35560000Y-108585000D03*
X35560000Y-106045000D03*
X35560000Y-103505000D03*
X35560000Y-100965000D03*
X35560000Y-98425000D03*
X35560000Y-95885000D03*
X35560000Y-93345000D03*
X35560000Y-90805000D03*
X35560000Y-88265000D03*
X35560000Y-85725000D03*
X35560000Y-83185000D03*
X35560000Y-80645000D03*
X35560000Y-78105000D03*
X35560000Y-75565000D03*
X35560000Y-73025000D03*
X35560000Y-70485000D03*
X35560000Y-67945000D03*
X35560000Y-65405000D03*
X35560000Y-62865000D03*
X35560000Y-60325000D03*
X35560000Y-57785000D03*
X35560000Y-55245000D03*
X35560000Y-52705000D03*
X35560000Y-50165000D03*
X35560000Y-47625000D03*
X35560000Y-45085000D03*
X35560000Y-42545000D03*
X35560000Y-40005000D03*
X35560000Y-37465000D03*
X35560000Y-34925000D03*
X35560000Y-32385000D03*
X35560000Y-29845000D03*
X35560000Y-27305000D03*
X35560000Y-24765000D03*
X35560000Y-22225000D03*
X35560000Y-19685000D03*
D11*
X35560000Y-17145000D03*
D10*
X111760000Y-116205000D03*
X111760000Y-113665000D03*
X111760000Y-111125000D03*
X111760000Y-108585000D03*
X111760000Y-106045000D03*
X111760000Y-103505000D03*
X111760000Y-100965000D03*
X111760000Y-98425000D03*
X111760000Y-95885000D03*
X111760000Y-93345000D03*
X111760000Y-90805000D03*
X111760000Y-88265000D03*
X111760000Y-85725000D03*
X111760000Y-83185000D03*
X111760000Y-80645000D03*
X111760000Y-78105000D03*
X111760000Y-75565000D03*
X111760000Y-73025000D03*
X111760000Y-70485000D03*
X111760000Y-67945000D03*
X111760000Y-65405000D03*
X111760000Y-62865000D03*
X111760000Y-60325000D03*
X111760000Y-57785000D03*
X111760000Y-55245000D03*
X111760000Y-52705000D03*
X111760000Y-50165000D03*
X111760000Y-47625000D03*
X111760000Y-45085000D03*
X111760000Y-42545000D03*
X111760000Y-40005000D03*
X111760000Y-37465000D03*
X111760000Y-34925000D03*
X111760000Y-32385000D03*
X111760000Y-29845000D03*
X111760000Y-27305000D03*
X111760000Y-24765000D03*
X111760000Y-22225000D03*
X111760000Y-19685000D03*
D11*
X111760000Y-17145000D03*
D10*
X30480000Y-116205000D03*
X30480000Y-113665000D03*
X30480000Y-111125000D03*
X30480000Y-108585000D03*
X30480000Y-106045000D03*
X30480000Y-103505000D03*
X30480000Y-100965000D03*
X30480000Y-98425000D03*
X30480000Y-95885000D03*
X30480000Y-93345000D03*
X30480000Y-90805000D03*
X30480000Y-88265000D03*
X30480000Y-85725000D03*
X30480000Y-83185000D03*
X30480000Y-80645000D03*
X30480000Y-78105000D03*
X30480000Y-75565000D03*
X30480000Y-73025000D03*
X30480000Y-70485000D03*
X30480000Y-67945000D03*
X30480000Y-65405000D03*
X30480000Y-62865000D03*
X30480000Y-60325000D03*
X30480000Y-57785000D03*
X30480000Y-55245000D03*
X30480000Y-52705000D03*
X30480000Y-50165000D03*
X30480000Y-47625000D03*
X30480000Y-45085000D03*
X30480000Y-42545000D03*
X30480000Y-40005000D03*
X30480000Y-37465000D03*
X30480000Y-34925000D03*
X30480000Y-32385000D03*
X30480000Y-29845000D03*
X30480000Y-27305000D03*
X30480000Y-24765000D03*
X30480000Y-22225000D03*
X30480000Y-19685000D03*
D11*
X30480000Y-17145000D03*
D10*
X109220000Y-116205000D03*
X109220000Y-113665000D03*
X109220000Y-111125000D03*
X109220000Y-108585000D03*
X109220000Y-106045000D03*
X109220000Y-103505000D03*
X109220000Y-100965000D03*
X109220000Y-98425000D03*
X109220000Y-95885000D03*
X109220000Y-93345000D03*
X109220000Y-90805000D03*
X109220000Y-88265000D03*
X109220000Y-85725000D03*
X109220000Y-83185000D03*
X109220000Y-80645000D03*
X109220000Y-78105000D03*
X109220000Y-75565000D03*
X109220000Y-73025000D03*
X109220000Y-70485000D03*
X109220000Y-67945000D03*
X109220000Y-65405000D03*
X109220000Y-62865000D03*
X109220000Y-60325000D03*
X109220000Y-57785000D03*
X109220000Y-55245000D03*
X109220000Y-52705000D03*
X109220000Y-50165000D03*
X109220000Y-47625000D03*
X109220000Y-45085000D03*
X109220000Y-42545000D03*
X109220000Y-40005000D03*
X109220000Y-37465000D03*
X109220000Y-34925000D03*
X109220000Y-32385000D03*
X109220000Y-29845000D03*
X109220000Y-27305000D03*
X109220000Y-24765000D03*
X109220000Y-22225000D03*
X109220000Y-19685000D03*
D11*
X109220000Y-17145000D03*
D10*
X27940000Y-116205000D03*
X27940000Y-113665000D03*
X27940000Y-111125000D03*
X27940000Y-108585000D03*
X27940000Y-106045000D03*
X27940000Y-103505000D03*
X27940000Y-100965000D03*
X27940000Y-98425000D03*
X27940000Y-95885000D03*
X27940000Y-93345000D03*
X27940000Y-90805000D03*
X27940000Y-88265000D03*
X27940000Y-85725000D03*
X27940000Y-83185000D03*
X27940000Y-80645000D03*
X27940000Y-78105000D03*
X27940000Y-75565000D03*
X27940000Y-73025000D03*
X27940000Y-70485000D03*
X27940000Y-67945000D03*
X27940000Y-65405000D03*
X27940000Y-62865000D03*
X27940000Y-60325000D03*
X27940000Y-57785000D03*
X27940000Y-55245000D03*
X27940000Y-52705000D03*
X27940000Y-50165000D03*
X27940000Y-47625000D03*
X27940000Y-45085000D03*
X27940000Y-42545000D03*
X27940000Y-40005000D03*
X27940000Y-37465000D03*
X27940000Y-34925000D03*
X27940000Y-32385000D03*
X27940000Y-29845000D03*
X27940000Y-27305000D03*
X27940000Y-24765000D03*
X27940000Y-22225000D03*
X27940000Y-19685000D03*
D11*
X27940000Y-17145000D03*
D10*
X106680000Y-116205000D03*
X106680000Y-113665000D03*
X106680000Y-111125000D03*
X106680000Y-108585000D03*
X106680000Y-106045000D03*
X106680000Y-103505000D03*
X106680000Y-100965000D03*
X106680000Y-98425000D03*
X106680000Y-95885000D03*
X106680000Y-93345000D03*
X106680000Y-90805000D03*
X106680000Y-88265000D03*
X106680000Y-85725000D03*
X106680000Y-83185000D03*
X106680000Y-80645000D03*
X106680000Y-78105000D03*
X106680000Y-75565000D03*
X106680000Y-73025000D03*
X106680000Y-70485000D03*
X106680000Y-67945000D03*
X106680000Y-65405000D03*
X106680000Y-62865000D03*
X106680000Y-60325000D03*
X106680000Y-57785000D03*
X106680000Y-55245000D03*
X106680000Y-52705000D03*
X106680000Y-50165000D03*
X106680000Y-47625000D03*
X106680000Y-45085000D03*
X106680000Y-42545000D03*
X106680000Y-40005000D03*
X106680000Y-37465000D03*
X106680000Y-34925000D03*
X106680000Y-32385000D03*
X106680000Y-29845000D03*
X106680000Y-27305000D03*
X106680000Y-24765000D03*
X106680000Y-22225000D03*
X106680000Y-19685000D03*
D11*
X106680000Y-17145000D03*
D10*
X25400000Y-116205000D03*
X25400000Y-113665000D03*
X25400000Y-111125000D03*
X25400000Y-108585000D03*
X25400000Y-106045000D03*
X25400000Y-103505000D03*
X25400000Y-100965000D03*
X25400000Y-98425000D03*
X25400000Y-95885000D03*
X25400000Y-93345000D03*
X25400000Y-90805000D03*
X25400000Y-88265000D03*
X25400000Y-85725000D03*
X25400000Y-83185000D03*
X25400000Y-80645000D03*
X25400000Y-78105000D03*
X25400000Y-75565000D03*
X25400000Y-73025000D03*
X25400000Y-70485000D03*
X25400000Y-67945000D03*
X25400000Y-65405000D03*
X25400000Y-62865000D03*
X25400000Y-60325000D03*
X25400000Y-57785000D03*
X25400000Y-55245000D03*
X25400000Y-52705000D03*
X25400000Y-50165000D03*
X25400000Y-47625000D03*
X25400000Y-45085000D03*
X25400000Y-42545000D03*
X25400000Y-40005000D03*
X25400000Y-37465000D03*
X25400000Y-34925000D03*
X25400000Y-32385000D03*
X25400000Y-29845000D03*
X25400000Y-27305000D03*
X25400000Y-24765000D03*
X25400000Y-22225000D03*
X25400000Y-19685000D03*
D11*
X25400000Y-17145000D03*
D10*
X101600000Y-116205000D03*
X101600000Y-113665000D03*
X101600000Y-111125000D03*
X101600000Y-108585000D03*
X101600000Y-106045000D03*
X101600000Y-103505000D03*
X101600000Y-100965000D03*
X101600000Y-98425000D03*
X101600000Y-95885000D03*
X101600000Y-93345000D03*
X101600000Y-90805000D03*
X101600000Y-88265000D03*
X101600000Y-85725000D03*
X101600000Y-83185000D03*
X101600000Y-80645000D03*
X101600000Y-78105000D03*
X101600000Y-75565000D03*
X101600000Y-73025000D03*
X101600000Y-70485000D03*
X101600000Y-67945000D03*
X101600000Y-65405000D03*
X101600000Y-62865000D03*
X101600000Y-60325000D03*
X101600000Y-57785000D03*
X101600000Y-55245000D03*
X101600000Y-52705000D03*
X101600000Y-50165000D03*
X101600000Y-47625000D03*
X101600000Y-45085000D03*
X101600000Y-42545000D03*
X101600000Y-40005000D03*
X101600000Y-37465000D03*
X101600000Y-34925000D03*
X101600000Y-32385000D03*
X101600000Y-29845000D03*
X101600000Y-27305000D03*
X101600000Y-24765000D03*
X101600000Y-22225000D03*
X101600000Y-19685000D03*
D11*
X101600000Y-17145000D03*
D10*
X20320000Y-116205000D03*
X20320000Y-113665000D03*
X20320000Y-111125000D03*
X20320000Y-108585000D03*
X20320000Y-106045000D03*
X20320000Y-103505000D03*
X20320000Y-100965000D03*
X20320000Y-98425000D03*
X20320000Y-95885000D03*
X20320000Y-93345000D03*
X20320000Y-90805000D03*
X20320000Y-88265000D03*
X20320000Y-85725000D03*
X20320000Y-83185000D03*
X20320000Y-80645000D03*
X20320000Y-78105000D03*
X20320000Y-75565000D03*
X20320000Y-73025000D03*
X20320000Y-70485000D03*
X20320000Y-67945000D03*
X20320000Y-65405000D03*
X20320000Y-62865000D03*
X20320000Y-60325000D03*
X20320000Y-57785000D03*
X20320000Y-55245000D03*
X20320000Y-52705000D03*
X20320000Y-50165000D03*
X20320000Y-47625000D03*
X20320000Y-45085000D03*
X20320000Y-42545000D03*
X20320000Y-40005000D03*
X20320000Y-37465000D03*
X20320000Y-34925000D03*
X20320000Y-32385000D03*
X20320000Y-29845000D03*
X20320000Y-27305000D03*
X20320000Y-24765000D03*
X20320000Y-22225000D03*
X20320000Y-19685000D03*
D11*
X20320000Y-17145000D03*
D10*
X99060000Y-116205000D03*
X99060000Y-113665000D03*
X99060000Y-111125000D03*
X99060000Y-108585000D03*
X99060000Y-106045000D03*
X99060000Y-103505000D03*
X99060000Y-100965000D03*
X99060000Y-98425000D03*
X99060000Y-95885000D03*
X99060000Y-93345000D03*
X99060000Y-90805000D03*
X99060000Y-88265000D03*
X99060000Y-85725000D03*
X99060000Y-83185000D03*
X99060000Y-80645000D03*
X99060000Y-78105000D03*
X99060000Y-75565000D03*
X99060000Y-73025000D03*
X99060000Y-70485000D03*
X99060000Y-67945000D03*
X99060000Y-65405000D03*
X99060000Y-62865000D03*
X99060000Y-60325000D03*
X99060000Y-57785000D03*
X99060000Y-55245000D03*
X99060000Y-52705000D03*
X99060000Y-50165000D03*
X99060000Y-47625000D03*
X99060000Y-45085000D03*
X99060000Y-42545000D03*
X99060000Y-40005000D03*
X99060000Y-37465000D03*
X99060000Y-34925000D03*
X99060000Y-32385000D03*
X99060000Y-29845000D03*
X99060000Y-27305000D03*
X99060000Y-24765000D03*
X99060000Y-22225000D03*
X99060000Y-19685000D03*
D11*
X99060000Y-17145000D03*
D10*
X96471000Y-116205000D03*
X96471000Y-113665000D03*
X96471000Y-111125000D03*
X96471000Y-108585000D03*
X96471000Y-106045000D03*
X96471000Y-103505000D03*
X96471000Y-100965000D03*
X96471000Y-98425000D03*
X96471000Y-95885000D03*
X96471000Y-93345000D03*
X96471000Y-90805000D03*
X96471000Y-88265000D03*
X96471000Y-85725000D03*
X96471000Y-83185000D03*
X96471000Y-80645000D03*
X96471000Y-78105000D03*
X96471000Y-75565000D03*
X96471000Y-73025000D03*
X96471000Y-70485000D03*
X96471000Y-67945000D03*
X96471000Y-65405000D03*
X96471000Y-62865000D03*
X96471000Y-60325000D03*
X96471000Y-57785000D03*
X96471000Y-55245000D03*
X96471000Y-52705000D03*
X96471000Y-50165000D03*
X96471000Y-47625000D03*
X96471000Y-45085000D03*
X96471000Y-42545000D03*
X96471000Y-40005000D03*
X96471000Y-37465000D03*
X96471000Y-34925000D03*
X96471000Y-32385000D03*
X96471000Y-29845000D03*
X96471000Y-27305000D03*
X96471000Y-24765000D03*
X96471000Y-22225000D03*
X96471000Y-19685000D03*
D11*
X96471000Y-17145000D03*
X15240000Y-17145000D03*
D10*
X15240000Y-19685000D03*
X15240000Y-22225000D03*
X15240000Y-24765000D03*
X15240000Y-27305000D03*
X15240000Y-29845000D03*
X15240000Y-32385000D03*
X15240000Y-34925000D03*
X15240000Y-37465000D03*
X15240000Y-40005000D03*
X15240000Y-42545000D03*
X15240000Y-45085000D03*
X15240000Y-47625000D03*
X15240000Y-50165000D03*
X15240000Y-52705000D03*
X15240000Y-55245000D03*
X15240000Y-57785000D03*
X15240000Y-60325000D03*
X15240000Y-62865000D03*
X15240000Y-65405000D03*
X15240000Y-67945000D03*
X15240000Y-70485000D03*
X15240000Y-73025000D03*
X15240000Y-75565000D03*
X15240000Y-78105000D03*
X15240000Y-80645000D03*
X15240000Y-83185000D03*
X15240000Y-85725000D03*
X15240000Y-88265000D03*
X15240000Y-90805000D03*
X15240000Y-93345000D03*
X15240000Y-95885000D03*
X15240000Y-98425000D03*
X15240000Y-100965000D03*
X15240000Y-103505000D03*
X15240000Y-106045000D03*
X15240000Y-108585000D03*
X15240000Y-111125000D03*
X15240000Y-113665000D03*
X15240000Y-116205000D03*
M02*
