G04 #@! TF.GenerationSoftware,KiCad,Pcbnew,5.1.0*
G04 #@! TF.CreationDate,2019-09-19T00:51:00+09:00*
G04 #@! TF.ProjectId,panelized_key,70616e65-6c69-47a6-9564-5f6b65792e6b,rev?*
G04 #@! TF.SameCoordinates,Original*
G04 #@! TF.FileFunction,Legend,Bot*
G04 #@! TF.FilePolarity,Positive*
%FSLAX46Y46*%
G04 Gerber Fmt 4.6, Leading zero omitted, Abs format (unit mm)*
G04 Created by KiCad (PCBNEW 5.1.0) date 2019-09-19 00:51:00*
%MOMM*%
%LPD*%
G04 APERTURE LIST*
%ADD10C,0.150000*%
%ADD11C,0.120000*%
G04 APERTURE END LIST*
D10*
X67845000Y-87903000D02*
X68320000Y-87903000D01*
X67845000Y-93453000D02*
X68420000Y-93453000D01*
X74395000Y-93453000D02*
X73820000Y-93453000D01*
X74395000Y-87903000D02*
X73820000Y-87903000D01*
X67845000Y-87903000D02*
X67845000Y-93453000D01*
X74395000Y-87903000D02*
X74395000Y-93453000D01*
X68320000Y-87903000D02*
X68320000Y-86628000D01*
D11*
X42864000Y-94632000D02*
X40964000Y-94632000D01*
X41464000Y-92312000D02*
X42864000Y-92312000D01*
X24446000Y-86724000D02*
X25846000Y-86724000D01*
X25846000Y-89044000D02*
X23946000Y-89044000D01*
X58482000Y-89772000D02*
X60382000Y-89772000D01*
X59882000Y-92092000D02*
X58482000Y-92092000D01*
X59882000Y-94632000D02*
X57982000Y-94632000D01*
X58482000Y-92312000D02*
X59882000Y-92312000D01*
D10*
X50827000Y-87903000D02*
X51302000Y-87903000D01*
X50827000Y-93453000D02*
X51402000Y-93453000D01*
X57377000Y-93453000D02*
X56802000Y-93453000D01*
X57377000Y-87903000D02*
X56802000Y-87903000D01*
X50827000Y-87903000D02*
X50827000Y-93453000D01*
X57377000Y-87903000D02*
X57377000Y-93453000D01*
X51302000Y-87903000D02*
X51302000Y-86628000D01*
D11*
X48596733Y-92204000D02*
X48939267Y-92204000D01*
X48596733Y-91184000D02*
X48939267Y-91184000D01*
X59882000Y-89044000D02*
X57982000Y-89044000D01*
X58482000Y-86724000D02*
X59882000Y-86724000D01*
X76900000Y-94632000D02*
X75000000Y-94632000D01*
X75500000Y-92312000D02*
X76900000Y-92312000D01*
X65614733Y-92204000D02*
X65957267Y-92204000D01*
X65614733Y-91184000D02*
X65957267Y-91184000D01*
X75500000Y-89772000D02*
X77400000Y-89772000D01*
X76900000Y-92092000D02*
X75500000Y-92092000D01*
X76900000Y-89044000D02*
X75000000Y-89044000D01*
X75500000Y-86724000D02*
X76900000Y-86724000D01*
D10*
X84863000Y-87903000D02*
X85338000Y-87903000D01*
X84863000Y-93453000D02*
X85438000Y-93453000D01*
X91413000Y-93453000D02*
X90838000Y-93453000D01*
X91413000Y-87903000D02*
X90838000Y-87903000D01*
X84863000Y-87903000D02*
X84863000Y-93453000D01*
X91413000Y-87903000D02*
X91413000Y-93453000D01*
X85338000Y-87903000D02*
X85338000Y-86628000D01*
D11*
X93918000Y-94632000D02*
X92018000Y-94632000D01*
X92518000Y-92312000D02*
X93918000Y-92312000D01*
X31578733Y-92204000D02*
X31921267Y-92204000D01*
X31578733Y-91184000D02*
X31921267Y-91184000D01*
X82632733Y-92204000D02*
X82975267Y-92204000D01*
X82632733Y-91184000D02*
X82975267Y-91184000D01*
X93918000Y-89044000D02*
X92018000Y-89044000D01*
X92518000Y-86724000D02*
X93918000Y-86724000D01*
X41464000Y-89772000D02*
X43364000Y-89772000D01*
X42864000Y-92092000D02*
X41464000Y-92092000D01*
X92518000Y-89772000D02*
X94418000Y-89772000D01*
X93918000Y-92092000D02*
X92518000Y-92092000D01*
X25846000Y-92092000D02*
X24446000Y-92092000D01*
X24446000Y-89772000D02*
X26346000Y-89772000D01*
X14560733Y-91184000D02*
X14903267Y-91184000D01*
X14560733Y-92204000D02*
X14903267Y-92204000D01*
X24446000Y-92312000D02*
X25846000Y-92312000D01*
X25846000Y-94632000D02*
X23946000Y-94632000D01*
X42864000Y-89044000D02*
X40964000Y-89044000D01*
X41464000Y-86724000D02*
X42864000Y-86724000D01*
D10*
X17266000Y-87903000D02*
X17266000Y-86628000D01*
X23341000Y-87903000D02*
X23341000Y-93453000D01*
X16791000Y-87903000D02*
X16791000Y-93453000D01*
X23341000Y-87903000D02*
X22766000Y-87903000D01*
X23341000Y-93453000D02*
X22766000Y-93453000D01*
X16791000Y-93453000D02*
X17366000Y-93453000D01*
X16791000Y-87903000D02*
X17266000Y-87903000D01*
X33809000Y-87903000D02*
X34284000Y-87903000D01*
X33809000Y-93453000D02*
X34384000Y-93453000D01*
X40359000Y-93453000D02*
X39784000Y-93453000D01*
X40359000Y-87903000D02*
X39784000Y-87903000D01*
X33809000Y-87903000D02*
X33809000Y-93453000D01*
X40359000Y-87903000D02*
X40359000Y-93453000D01*
X34284000Y-87903000D02*
X34284000Y-86628000D01*
X67845000Y-70631000D02*
X68320000Y-70631000D01*
X67845000Y-76181000D02*
X68420000Y-76181000D01*
X74395000Y-76181000D02*
X73820000Y-76181000D01*
X74395000Y-70631000D02*
X73820000Y-70631000D01*
X67845000Y-70631000D02*
X67845000Y-76181000D01*
X74395000Y-70631000D02*
X74395000Y-76181000D01*
X68320000Y-70631000D02*
X68320000Y-69356000D01*
D11*
X42864000Y-77360000D02*
X40964000Y-77360000D01*
X41464000Y-75040000D02*
X42864000Y-75040000D01*
X24446000Y-69452000D02*
X25846000Y-69452000D01*
X25846000Y-71772000D02*
X23946000Y-71772000D01*
X58482000Y-72500000D02*
X60382000Y-72500000D01*
X59882000Y-74820000D02*
X58482000Y-74820000D01*
X59882000Y-77360000D02*
X57982000Y-77360000D01*
X58482000Y-75040000D02*
X59882000Y-75040000D01*
D10*
X50827000Y-70631000D02*
X51302000Y-70631000D01*
X50827000Y-76181000D02*
X51402000Y-76181000D01*
X57377000Y-76181000D02*
X56802000Y-76181000D01*
X57377000Y-70631000D02*
X56802000Y-70631000D01*
X50827000Y-70631000D02*
X50827000Y-76181000D01*
X57377000Y-70631000D02*
X57377000Y-76181000D01*
X51302000Y-70631000D02*
X51302000Y-69356000D01*
D11*
X48596733Y-74932000D02*
X48939267Y-74932000D01*
X48596733Y-73912000D02*
X48939267Y-73912000D01*
X59882000Y-71772000D02*
X57982000Y-71772000D01*
X58482000Y-69452000D02*
X59882000Y-69452000D01*
X76900000Y-77360000D02*
X75000000Y-77360000D01*
X75500000Y-75040000D02*
X76900000Y-75040000D01*
X65614733Y-74932000D02*
X65957267Y-74932000D01*
X65614733Y-73912000D02*
X65957267Y-73912000D01*
X75500000Y-72500000D02*
X77400000Y-72500000D01*
X76900000Y-74820000D02*
X75500000Y-74820000D01*
X76900000Y-71772000D02*
X75000000Y-71772000D01*
X75500000Y-69452000D02*
X76900000Y-69452000D01*
D10*
X84863000Y-70631000D02*
X85338000Y-70631000D01*
X84863000Y-76181000D02*
X85438000Y-76181000D01*
X91413000Y-76181000D02*
X90838000Y-76181000D01*
X91413000Y-70631000D02*
X90838000Y-70631000D01*
X84863000Y-70631000D02*
X84863000Y-76181000D01*
X91413000Y-70631000D02*
X91413000Y-76181000D01*
X85338000Y-70631000D02*
X85338000Y-69356000D01*
D11*
X93918000Y-77360000D02*
X92018000Y-77360000D01*
X92518000Y-75040000D02*
X93918000Y-75040000D01*
X31578733Y-74932000D02*
X31921267Y-74932000D01*
X31578733Y-73912000D02*
X31921267Y-73912000D01*
X82632733Y-74932000D02*
X82975267Y-74932000D01*
X82632733Y-73912000D02*
X82975267Y-73912000D01*
X93918000Y-71772000D02*
X92018000Y-71772000D01*
X92518000Y-69452000D02*
X93918000Y-69452000D01*
X41464000Y-72500000D02*
X43364000Y-72500000D01*
X42864000Y-74820000D02*
X41464000Y-74820000D01*
X92518000Y-72500000D02*
X94418000Y-72500000D01*
X93918000Y-74820000D02*
X92518000Y-74820000D01*
X25846000Y-74820000D02*
X24446000Y-74820000D01*
X24446000Y-72500000D02*
X26346000Y-72500000D01*
X14560733Y-73912000D02*
X14903267Y-73912000D01*
X14560733Y-74932000D02*
X14903267Y-74932000D01*
X24446000Y-75040000D02*
X25846000Y-75040000D01*
X25846000Y-77360000D02*
X23946000Y-77360000D01*
X42864000Y-71772000D02*
X40964000Y-71772000D01*
X41464000Y-69452000D02*
X42864000Y-69452000D01*
D10*
X17266000Y-70631000D02*
X17266000Y-69356000D01*
X23341000Y-70631000D02*
X23341000Y-76181000D01*
X16791000Y-70631000D02*
X16791000Y-76181000D01*
X23341000Y-70631000D02*
X22766000Y-70631000D01*
X23341000Y-76181000D02*
X22766000Y-76181000D01*
X16791000Y-76181000D02*
X17366000Y-76181000D01*
X16791000Y-70631000D02*
X17266000Y-70631000D01*
X33809000Y-70631000D02*
X34284000Y-70631000D01*
X33809000Y-76181000D02*
X34384000Y-76181000D01*
X40359000Y-76181000D02*
X39784000Y-76181000D01*
X40359000Y-70631000D02*
X39784000Y-70631000D01*
X33809000Y-70631000D02*
X33809000Y-76181000D01*
X40359000Y-70631000D02*
X40359000Y-76181000D01*
X34284000Y-70631000D02*
X34284000Y-69356000D01*
X67845000Y-53359000D02*
X68320000Y-53359000D01*
X67845000Y-58909000D02*
X68420000Y-58909000D01*
X74395000Y-58909000D02*
X73820000Y-58909000D01*
X74395000Y-53359000D02*
X73820000Y-53359000D01*
X67845000Y-53359000D02*
X67845000Y-58909000D01*
X74395000Y-53359000D02*
X74395000Y-58909000D01*
X68320000Y-53359000D02*
X68320000Y-52084000D01*
D11*
X42864000Y-60088000D02*
X40964000Y-60088000D01*
X41464000Y-57768000D02*
X42864000Y-57768000D01*
X24446000Y-52180000D02*
X25846000Y-52180000D01*
X25846000Y-54500000D02*
X23946000Y-54500000D01*
X58482000Y-55228000D02*
X60382000Y-55228000D01*
X59882000Y-57548000D02*
X58482000Y-57548000D01*
X59882000Y-60088000D02*
X57982000Y-60088000D01*
X58482000Y-57768000D02*
X59882000Y-57768000D01*
D10*
X50827000Y-53359000D02*
X51302000Y-53359000D01*
X50827000Y-58909000D02*
X51402000Y-58909000D01*
X57377000Y-58909000D02*
X56802000Y-58909000D01*
X57377000Y-53359000D02*
X56802000Y-53359000D01*
X50827000Y-53359000D02*
X50827000Y-58909000D01*
X57377000Y-53359000D02*
X57377000Y-58909000D01*
X51302000Y-53359000D02*
X51302000Y-52084000D01*
D11*
X48596733Y-57660000D02*
X48939267Y-57660000D01*
X48596733Y-56640000D02*
X48939267Y-56640000D01*
X59882000Y-54500000D02*
X57982000Y-54500000D01*
X58482000Y-52180000D02*
X59882000Y-52180000D01*
X76900000Y-60088000D02*
X75000000Y-60088000D01*
X75500000Y-57768000D02*
X76900000Y-57768000D01*
X65614733Y-57660000D02*
X65957267Y-57660000D01*
X65614733Y-56640000D02*
X65957267Y-56640000D01*
X75500000Y-55228000D02*
X77400000Y-55228000D01*
X76900000Y-57548000D02*
X75500000Y-57548000D01*
X76900000Y-54500000D02*
X75000000Y-54500000D01*
X75500000Y-52180000D02*
X76900000Y-52180000D01*
D10*
X84863000Y-53359000D02*
X85338000Y-53359000D01*
X84863000Y-58909000D02*
X85438000Y-58909000D01*
X91413000Y-58909000D02*
X90838000Y-58909000D01*
X91413000Y-53359000D02*
X90838000Y-53359000D01*
X84863000Y-53359000D02*
X84863000Y-58909000D01*
X91413000Y-53359000D02*
X91413000Y-58909000D01*
X85338000Y-53359000D02*
X85338000Y-52084000D01*
D11*
X93918000Y-60088000D02*
X92018000Y-60088000D01*
X92518000Y-57768000D02*
X93918000Y-57768000D01*
X31578733Y-57660000D02*
X31921267Y-57660000D01*
X31578733Y-56640000D02*
X31921267Y-56640000D01*
X82632733Y-57660000D02*
X82975267Y-57660000D01*
X82632733Y-56640000D02*
X82975267Y-56640000D01*
X93918000Y-54500000D02*
X92018000Y-54500000D01*
X92518000Y-52180000D02*
X93918000Y-52180000D01*
X41464000Y-55228000D02*
X43364000Y-55228000D01*
X42864000Y-57548000D02*
X41464000Y-57548000D01*
X92518000Y-55228000D02*
X94418000Y-55228000D01*
X93918000Y-57548000D02*
X92518000Y-57548000D01*
X25846000Y-57548000D02*
X24446000Y-57548000D01*
X24446000Y-55228000D02*
X26346000Y-55228000D01*
X14560733Y-56640000D02*
X14903267Y-56640000D01*
X14560733Y-57660000D02*
X14903267Y-57660000D01*
X24446000Y-57768000D02*
X25846000Y-57768000D01*
X25846000Y-60088000D02*
X23946000Y-60088000D01*
X42864000Y-54500000D02*
X40964000Y-54500000D01*
X41464000Y-52180000D02*
X42864000Y-52180000D01*
D10*
X17266000Y-53359000D02*
X17266000Y-52084000D01*
X23341000Y-53359000D02*
X23341000Y-58909000D01*
X16791000Y-53359000D02*
X16791000Y-58909000D01*
X23341000Y-53359000D02*
X22766000Y-53359000D01*
X23341000Y-58909000D02*
X22766000Y-58909000D01*
X16791000Y-58909000D02*
X17366000Y-58909000D01*
X16791000Y-53359000D02*
X17266000Y-53359000D01*
X33809000Y-53359000D02*
X34284000Y-53359000D01*
X33809000Y-58909000D02*
X34384000Y-58909000D01*
X40359000Y-58909000D02*
X39784000Y-58909000D01*
X40359000Y-53359000D02*
X39784000Y-53359000D01*
X33809000Y-53359000D02*
X33809000Y-58909000D01*
X40359000Y-53359000D02*
X40359000Y-58909000D01*
X34284000Y-53359000D02*
X34284000Y-52084000D01*
X67845000Y-36087000D02*
X68320000Y-36087000D01*
X67845000Y-41637000D02*
X68420000Y-41637000D01*
X74395000Y-41637000D02*
X73820000Y-41637000D01*
X74395000Y-36087000D02*
X73820000Y-36087000D01*
X67845000Y-36087000D02*
X67845000Y-41637000D01*
X74395000Y-36087000D02*
X74395000Y-41637000D01*
X68320000Y-36087000D02*
X68320000Y-34812000D01*
D11*
X42864000Y-42816000D02*
X40964000Y-42816000D01*
X41464000Y-40496000D02*
X42864000Y-40496000D01*
X24446000Y-34908000D02*
X25846000Y-34908000D01*
X25846000Y-37228000D02*
X23946000Y-37228000D01*
X58482000Y-37956000D02*
X60382000Y-37956000D01*
X59882000Y-40276000D02*
X58482000Y-40276000D01*
X59882000Y-42816000D02*
X57982000Y-42816000D01*
X58482000Y-40496000D02*
X59882000Y-40496000D01*
D10*
X50827000Y-36087000D02*
X51302000Y-36087000D01*
X50827000Y-41637000D02*
X51402000Y-41637000D01*
X57377000Y-41637000D02*
X56802000Y-41637000D01*
X57377000Y-36087000D02*
X56802000Y-36087000D01*
X50827000Y-36087000D02*
X50827000Y-41637000D01*
X57377000Y-36087000D02*
X57377000Y-41637000D01*
X51302000Y-36087000D02*
X51302000Y-34812000D01*
D11*
X48596733Y-40388000D02*
X48939267Y-40388000D01*
X48596733Y-39368000D02*
X48939267Y-39368000D01*
X59882000Y-37228000D02*
X57982000Y-37228000D01*
X58482000Y-34908000D02*
X59882000Y-34908000D01*
X76900000Y-42816000D02*
X75000000Y-42816000D01*
X75500000Y-40496000D02*
X76900000Y-40496000D01*
X65614733Y-40388000D02*
X65957267Y-40388000D01*
X65614733Y-39368000D02*
X65957267Y-39368000D01*
X75500000Y-37956000D02*
X77400000Y-37956000D01*
X76900000Y-40276000D02*
X75500000Y-40276000D01*
X76900000Y-37228000D02*
X75000000Y-37228000D01*
X75500000Y-34908000D02*
X76900000Y-34908000D01*
D10*
X84863000Y-36087000D02*
X85338000Y-36087000D01*
X84863000Y-41637000D02*
X85438000Y-41637000D01*
X91413000Y-41637000D02*
X90838000Y-41637000D01*
X91413000Y-36087000D02*
X90838000Y-36087000D01*
X84863000Y-36087000D02*
X84863000Y-41637000D01*
X91413000Y-36087000D02*
X91413000Y-41637000D01*
X85338000Y-36087000D02*
X85338000Y-34812000D01*
D11*
X93918000Y-42816000D02*
X92018000Y-42816000D01*
X92518000Y-40496000D02*
X93918000Y-40496000D01*
X31578733Y-40388000D02*
X31921267Y-40388000D01*
X31578733Y-39368000D02*
X31921267Y-39368000D01*
X82632733Y-40388000D02*
X82975267Y-40388000D01*
X82632733Y-39368000D02*
X82975267Y-39368000D01*
X93918000Y-37228000D02*
X92018000Y-37228000D01*
X92518000Y-34908000D02*
X93918000Y-34908000D01*
X41464000Y-37956000D02*
X43364000Y-37956000D01*
X42864000Y-40276000D02*
X41464000Y-40276000D01*
X92518000Y-37956000D02*
X94418000Y-37956000D01*
X93918000Y-40276000D02*
X92518000Y-40276000D01*
X25846000Y-40276000D02*
X24446000Y-40276000D01*
X24446000Y-37956000D02*
X26346000Y-37956000D01*
X14560733Y-39368000D02*
X14903267Y-39368000D01*
X14560733Y-40388000D02*
X14903267Y-40388000D01*
X24446000Y-40496000D02*
X25846000Y-40496000D01*
X25846000Y-42816000D02*
X23946000Y-42816000D01*
X42864000Y-37228000D02*
X40964000Y-37228000D01*
X41464000Y-34908000D02*
X42864000Y-34908000D01*
D10*
X17266000Y-36087000D02*
X17266000Y-34812000D01*
X23341000Y-36087000D02*
X23341000Y-41637000D01*
X16791000Y-36087000D02*
X16791000Y-41637000D01*
X23341000Y-36087000D02*
X22766000Y-36087000D01*
X23341000Y-41637000D02*
X22766000Y-41637000D01*
X16791000Y-41637000D02*
X17366000Y-41637000D01*
X16791000Y-36087000D02*
X17266000Y-36087000D01*
X33809000Y-36087000D02*
X34284000Y-36087000D01*
X33809000Y-41637000D02*
X34384000Y-41637000D01*
X40359000Y-41637000D02*
X39784000Y-41637000D01*
X40359000Y-36087000D02*
X39784000Y-36087000D01*
X33809000Y-36087000D02*
X33809000Y-41637000D01*
X40359000Y-36087000D02*
X40359000Y-41637000D01*
X34284000Y-36087000D02*
X34284000Y-34812000D01*
D11*
X92518000Y-17636000D02*
X93918000Y-17636000D01*
X93918000Y-19956000D02*
X92018000Y-19956000D01*
X93918000Y-23004000D02*
X92518000Y-23004000D01*
X92518000Y-20684000D02*
X94418000Y-20684000D01*
X82632733Y-22096000D02*
X82975267Y-22096000D01*
X82632733Y-23116000D02*
X82975267Y-23116000D01*
X92518000Y-23224000D02*
X93918000Y-23224000D01*
X93918000Y-25544000D02*
X92018000Y-25544000D01*
D10*
X85338000Y-18815000D02*
X85338000Y-17540000D01*
X91413000Y-18815000D02*
X91413000Y-24365000D01*
X84863000Y-18815000D02*
X84863000Y-24365000D01*
X91413000Y-18815000D02*
X90838000Y-18815000D01*
X91413000Y-24365000D02*
X90838000Y-24365000D01*
X84863000Y-24365000D02*
X85438000Y-24365000D01*
X84863000Y-18815000D02*
X85338000Y-18815000D01*
D11*
X75500000Y-17636000D02*
X76900000Y-17636000D01*
X76900000Y-19956000D02*
X75000000Y-19956000D01*
X76900000Y-23004000D02*
X75500000Y-23004000D01*
X75500000Y-20684000D02*
X77400000Y-20684000D01*
X65614733Y-22096000D02*
X65957267Y-22096000D01*
X65614733Y-23116000D02*
X65957267Y-23116000D01*
X75500000Y-23224000D02*
X76900000Y-23224000D01*
X76900000Y-25544000D02*
X75000000Y-25544000D01*
D10*
X68320000Y-18815000D02*
X68320000Y-17540000D01*
X74395000Y-18815000D02*
X74395000Y-24365000D01*
X67845000Y-18815000D02*
X67845000Y-24365000D01*
X74395000Y-18815000D02*
X73820000Y-18815000D01*
X74395000Y-24365000D02*
X73820000Y-24365000D01*
X67845000Y-24365000D02*
X68420000Y-24365000D01*
X67845000Y-18815000D02*
X68320000Y-18815000D01*
D11*
X58482000Y-17636000D02*
X59882000Y-17636000D01*
X59882000Y-19956000D02*
X57982000Y-19956000D01*
X59882000Y-23004000D02*
X58482000Y-23004000D01*
X58482000Y-20684000D02*
X60382000Y-20684000D01*
X48596733Y-22096000D02*
X48939267Y-22096000D01*
X48596733Y-23116000D02*
X48939267Y-23116000D01*
X58482000Y-23224000D02*
X59882000Y-23224000D01*
X59882000Y-25544000D02*
X57982000Y-25544000D01*
D10*
X51302000Y-18815000D02*
X51302000Y-17540000D01*
X57377000Y-18815000D02*
X57377000Y-24365000D01*
X50827000Y-18815000D02*
X50827000Y-24365000D01*
X57377000Y-18815000D02*
X56802000Y-18815000D01*
X57377000Y-24365000D02*
X56802000Y-24365000D01*
X50827000Y-24365000D02*
X51402000Y-24365000D01*
X50827000Y-18815000D02*
X51302000Y-18815000D01*
D11*
X41464000Y-17636000D02*
X42864000Y-17636000D01*
X42864000Y-19956000D02*
X40964000Y-19956000D01*
X42864000Y-23004000D02*
X41464000Y-23004000D01*
X41464000Y-20684000D02*
X43364000Y-20684000D01*
X31578733Y-22096000D02*
X31921267Y-22096000D01*
X31578733Y-23116000D02*
X31921267Y-23116000D01*
X41464000Y-23224000D02*
X42864000Y-23224000D01*
X42864000Y-25544000D02*
X40964000Y-25544000D01*
D10*
X34284000Y-18815000D02*
X34284000Y-17540000D01*
X40359000Y-18815000D02*
X40359000Y-24365000D01*
X33809000Y-18815000D02*
X33809000Y-24365000D01*
X40359000Y-18815000D02*
X39784000Y-18815000D01*
X40359000Y-24365000D02*
X39784000Y-24365000D01*
X33809000Y-24365000D02*
X34384000Y-24365000D01*
X33809000Y-18815000D02*
X34284000Y-18815000D01*
D11*
X25846000Y-25544000D02*
X23946000Y-25544000D01*
X24446000Y-23224000D02*
X25846000Y-23224000D01*
X14560733Y-23116000D02*
X14903267Y-23116000D01*
X14560733Y-22096000D02*
X14903267Y-22096000D01*
D10*
X16791000Y-18815000D02*
X17266000Y-18815000D01*
X16791000Y-24365000D02*
X17366000Y-24365000D01*
X23341000Y-24365000D02*
X22766000Y-24365000D01*
X23341000Y-18815000D02*
X22766000Y-18815000D01*
X16791000Y-18815000D02*
X16791000Y-24365000D01*
X23341000Y-18815000D02*
X23341000Y-24365000D01*
X17266000Y-18815000D02*
X17266000Y-17540000D01*
D11*
X24446000Y-20684000D02*
X26346000Y-20684000D01*
X25846000Y-23004000D02*
X24446000Y-23004000D01*
X25846000Y-19956000D02*
X23946000Y-19956000D01*
X24446000Y-17636000D02*
X25846000Y-17636000D01*
M02*
