M48
; DRILL file {KiCad 5.1.0} date 2019年09月19日 00時51分23秒
; FORMAT={3:3/ absolute / metric / keep zeros}
; #@! TF.CreationDate,2019-09-19T00:51:23+09:00
; #@! TF.GenerationSoftware,Kicad,Pcbnew,5.1.0
FMAT,2
METRIC
T1C0.400
T2C1.000
%
G90
G05
T1
X013857Y-022606
X013857Y-039878
X013857Y-057150
X013857Y-074422
X013857Y-091694
X015607Y-022606
X015607Y-039878
X015607Y-057150
X015607Y-074422
X015607Y-091694
X016512Y-020955
X016512Y-038227
X016512Y-055499
X016512Y-072771
X016512Y-090043
X016764Y-022479
X016764Y-039751
X016764Y-057023
X016764Y-074295
X016764Y-091567
X017284Y-020318
X017284Y-037590
X017284Y-054862
X017284Y-072134
X017284Y-089406
X018034Y-022606
X018034Y-039878
X018034Y-057150
X018034Y-074422
X018034Y-091694
X018392Y-020300
X018392Y-037572
X018392Y-054844
X018392Y-072116
X018392Y-089388
X019147Y-020955
X019147Y-038227
X019147Y-055499
X019147Y-072771
X019147Y-090043
X019177Y-022860
X019177Y-040132
X019177Y-057404
X019177Y-074676
X019177Y-091948
X019812Y-026236
X019812Y-043508
X019812Y-060780
X019812Y-078052
X019812Y-095324
X020147Y-020935
X020147Y-038207
X020147Y-055479
X020147Y-072751
X020147Y-090023
X020955Y-022225
X020955Y-039497
X020955Y-056769
X020955Y-074041
X020955Y-091313
X021100Y-016600
X021100Y-033872
X021100Y-051144
X021100Y-068416
X021100Y-085688
X021116Y-020521
X021116Y-037793
X021116Y-055065
X021116Y-072337
X021116Y-089609
X022606Y-019558
X022606Y-020574
X022606Y-036830
X022606Y-037846
X022606Y-054102
X022606Y-055118
X022606Y-071374
X022606Y-072390
X022606Y-088646
X022606Y-089662
X022987Y-022733
X022987Y-040005
X022987Y-057277
X022987Y-074549
X022987Y-091821
X023079Y-023828
X023079Y-041100
X023079Y-058372
X023079Y-075644
X023079Y-092916
X023622Y-016886
X023622Y-034158
X023622Y-051430
X023622Y-068702
X023622Y-085974
X024779Y-017018
X024779Y-034290
X024779Y-051562
X024779Y-068834
X024779Y-086106
X026529Y-017018
X026529Y-034290
X026529Y-051562
X026529Y-068834
X026529Y-086106
X026670Y-023763
X026670Y-025513
X026670Y-041035
X026670Y-042785
X026670Y-058307
X026670Y-060057
X026670Y-075579
X026670Y-077329
X026670Y-092851
X026670Y-094601
X027065Y-022479
X027065Y-039751
X027065Y-057023
X027065Y-074295
X027065Y-091567
X027522Y-020954
X027522Y-038226
X027522Y-055498
X027522Y-072770
X027522Y-090042
X028829Y-023696
X028829Y-040968
X028829Y-058240
X028829Y-075512
X028829Y-092784
X030875Y-022606
X030875Y-039878
X030875Y-057150
X030875Y-074422
X030875Y-091694
X032625Y-022606
X032625Y-039878
X032625Y-057150
X032625Y-074422
X032625Y-091694
X033530Y-020955
X033530Y-038227
X033530Y-055499
X033530Y-072771
X033530Y-090043
X033782Y-022479
X033782Y-039751
X033782Y-057023
X033782Y-074295
X033782Y-091567
X034302Y-020318
X034302Y-037590
X034302Y-054862
X034302Y-072134
X034302Y-089406
X035052Y-022606
X035052Y-039878
X035052Y-057150
X035052Y-074422
X035052Y-091694
X035410Y-020300
X035410Y-037572
X035410Y-054844
X035410Y-072116
X035410Y-089388
X036165Y-020955
X036165Y-038227
X036165Y-055499
X036165Y-072771
X036165Y-090043
X036195Y-022860
X036195Y-040132
X036195Y-057404
X036195Y-074676
X036195Y-091948
X036830Y-026236
X036830Y-043508
X036830Y-060780
X036830Y-078052
X036830Y-095324
X037165Y-020935
X037165Y-038207
X037165Y-055479
X037165Y-072751
X037165Y-090023
X037973Y-022225
X037973Y-039497
X037973Y-056769
X037973Y-074041
X037973Y-091313
X038118Y-016600
X038118Y-033872
X038118Y-051144
X038118Y-068416
X038118Y-085688
X038134Y-020521
X038134Y-037793
X038134Y-055065
X038134Y-072337
X038134Y-089609
X039624Y-019558
X039624Y-020574
X039624Y-036830
X039624Y-037846
X039624Y-054102
X039624Y-055118
X039624Y-071374
X039624Y-072390
X039624Y-088646
X039624Y-089662
X040005Y-022733
X040005Y-040005
X040005Y-057277
X040005Y-074549
X040005Y-091821
X040097Y-023828
X040097Y-041100
X040097Y-058372
X040097Y-075644
X040097Y-092916
X040640Y-016886
X040640Y-034158
X040640Y-051430
X040640Y-068702
X040640Y-085974
X041797Y-017018
X041797Y-034290
X041797Y-051562
X041797Y-068834
X041797Y-086106
X043547Y-017018
X043547Y-034290
X043547Y-051562
X043547Y-068834
X043547Y-086106
X043688Y-023763
X043688Y-025513
X043688Y-041035
X043688Y-042785
X043688Y-058307
X043688Y-060057
X043688Y-075579
X043688Y-077329
X043688Y-092851
X043688Y-094601
X044083Y-022479
X044083Y-039751
X044083Y-057023
X044083Y-074295
X044083Y-091567
X044540Y-020954
X044540Y-038226
X044540Y-055498
X044540Y-072770
X044540Y-090042
X045847Y-023696
X045847Y-040968
X045847Y-058240
X045847Y-075512
X045847Y-092784
X047893Y-022606
X047893Y-039878
X047893Y-057150
X047893Y-074422
X047893Y-091694
X049643Y-022606
X049643Y-039878
X049643Y-057150
X049643Y-074422
X049643Y-091694
X050548Y-020955
X050548Y-038227
X050548Y-055499
X050548Y-072771
X050548Y-090043
X050800Y-022479
X050800Y-039751
X050800Y-057023
X050800Y-074295
X050800Y-091567
X051320Y-020318
X051320Y-037590
X051320Y-054862
X051320Y-072134
X051320Y-089406
X052070Y-022606
X052070Y-039878
X052070Y-057150
X052070Y-074422
X052070Y-091694
X052428Y-020300
X052428Y-037572
X052428Y-054844
X052428Y-072116
X052428Y-089388
X053183Y-020955
X053183Y-038227
X053183Y-055499
X053183Y-072771
X053183Y-090043
X053213Y-022860
X053213Y-040132
X053213Y-057404
X053213Y-074676
X053213Y-091948
X053848Y-026236
X053848Y-043508
X053848Y-060780
X053848Y-078052
X053848Y-095324
X054183Y-020935
X054183Y-038207
X054183Y-055479
X054183Y-072751
X054183Y-090023
X054991Y-022225
X054991Y-039497
X054991Y-056769
X054991Y-074041
X054991Y-091313
X055136Y-016600
X055136Y-033872
X055136Y-051144
X055136Y-068416
X055136Y-085688
X055152Y-020521
X055152Y-037793
X055152Y-055065
X055152Y-072337
X055152Y-089609
X056642Y-019558
X056642Y-020574
X056642Y-036830
X056642Y-037846
X056642Y-054102
X056642Y-055118
X056642Y-071374
X056642Y-072390
X056642Y-088646
X056642Y-089662
X057023Y-022733
X057023Y-040005
X057023Y-057277
X057023Y-074549
X057023Y-091821
X057115Y-023828
X057115Y-041100
X057115Y-058372
X057115Y-075644
X057115Y-092916
X057658Y-016886
X057658Y-034158
X057658Y-051430
X057658Y-068702
X057658Y-085974
X058815Y-017018
X058815Y-034290
X058815Y-051562
X058815Y-068834
X058815Y-086106
X060565Y-017018
X060565Y-034290
X060565Y-051562
X060565Y-068834
X060565Y-086106
X060706Y-023763
X060706Y-025513
X060706Y-041035
X060706Y-042785
X060706Y-058307
X060706Y-060057
X060706Y-075579
X060706Y-077329
X060706Y-092851
X060706Y-094601
X061101Y-022479
X061101Y-039751
X061101Y-057023
X061101Y-074295
X061101Y-091567
X061558Y-020954
X061558Y-038226
X061558Y-055498
X061558Y-072770
X061558Y-090042
X062865Y-023696
X062865Y-040968
X062865Y-058240
X062865Y-075512
X062865Y-092784
X064911Y-022606
X064911Y-039878
X064911Y-057150
X064911Y-074422
X064911Y-091694
X066661Y-022606
X066661Y-039878
X066661Y-057150
X066661Y-074422
X066661Y-091694
X067566Y-020955
X067566Y-038227
X067566Y-055499
X067566Y-072771
X067566Y-090043
X067818Y-022479
X067818Y-039751
X067818Y-057023
X067818Y-074295
X067818Y-091567
X068338Y-020318
X068338Y-037590
X068338Y-054862
X068338Y-072134
X068338Y-089406
X069088Y-022606
X069088Y-039878
X069088Y-057150
X069088Y-074422
X069088Y-091694
X069446Y-020300
X069446Y-037572
X069446Y-054844
X069446Y-072116
X069446Y-089388
X070201Y-020955
X070201Y-038227
X070201Y-055499
X070201Y-072771
X070201Y-090043
X070231Y-022860
X070231Y-040132
X070231Y-057404
X070231Y-074676
X070231Y-091948
X070866Y-026236
X070866Y-043508
X070866Y-060780
X070866Y-078052
X070866Y-095324
X071201Y-020935
X071201Y-038207
X071201Y-055479
X071201Y-072751
X071201Y-090023
X072009Y-022225
X072009Y-039497
X072009Y-056769
X072009Y-074041
X072009Y-091313
X072154Y-016600
X072154Y-033872
X072154Y-051144
X072154Y-068416
X072154Y-085688
X072170Y-020521
X072170Y-037793
X072170Y-055065
X072170Y-072337
X072170Y-089609
X073660Y-019558
X073660Y-020574
X073660Y-036830
X073660Y-037846
X073660Y-054102
X073660Y-055118
X073660Y-071374
X073660Y-072390
X073660Y-088646
X073660Y-089662
X074041Y-022733
X074041Y-040005
X074041Y-057277
X074041Y-074549
X074041Y-091821
X074133Y-023828
X074133Y-041100
X074133Y-058372
X074133Y-075644
X074133Y-092916
X074676Y-016886
X074676Y-034158
X074676Y-051430
X074676Y-068702
X074676Y-085974
X075833Y-017018
X075833Y-034290
X075833Y-051562
X075833Y-068834
X075833Y-086106
X077583Y-017018
X077583Y-034290
X077583Y-051562
X077583Y-068834
X077583Y-086106
X077724Y-023763
X077724Y-025513
X077724Y-041035
X077724Y-042785
X077724Y-058307
X077724Y-060057
X077724Y-075579
X077724Y-077329
X077724Y-092851
X077724Y-094601
X078119Y-022479
X078119Y-039751
X078119Y-057023
X078119Y-074295
X078119Y-091567
X078576Y-020954
X078576Y-038226
X078576Y-055498
X078576Y-072770
X078576Y-090042
X079883Y-023696
X079883Y-040968
X079883Y-058240
X079883Y-075512
X079883Y-092784
X081929Y-022606
X081929Y-039878
X081929Y-057150
X081929Y-074422
X081929Y-091694
X083679Y-022606
X083679Y-039878
X083679Y-057150
X083679Y-074422
X083679Y-091694
X084584Y-020955
X084584Y-038227
X084584Y-055499
X084584Y-072771
X084584Y-090043
X084836Y-022479
X084836Y-039751
X084836Y-057023
X084836Y-074295
X084836Y-091567
X085356Y-020318
X085356Y-037590
X085356Y-054862
X085356Y-072134
X085356Y-089406
X086106Y-022606
X086106Y-039878
X086106Y-057150
X086106Y-074422
X086106Y-091694
X086464Y-020300
X086464Y-037572
X086464Y-054844
X086464Y-072116
X086464Y-089388
X087219Y-020955
X087219Y-038227
X087219Y-055499
X087219Y-072771
X087219Y-090043
X087249Y-022860
X087249Y-040132
X087249Y-057404
X087249Y-074676
X087249Y-091948
X087884Y-026236
X087884Y-043508
X087884Y-060780
X087884Y-078052
X087884Y-095324
X088219Y-020935
X088219Y-038207
X088219Y-055479
X088219Y-072751
X088219Y-090023
X089027Y-022225
X089027Y-039497
X089027Y-056769
X089027Y-074041
X089027Y-091313
X089172Y-016600
X089172Y-033872
X089172Y-051144
X089172Y-068416
X089172Y-085688
X089188Y-020521
X089188Y-037793
X089188Y-055065
X089188Y-072337
X089188Y-089609
X090678Y-019558
X090678Y-020574
X090678Y-036830
X090678Y-037846
X090678Y-054102
X090678Y-055118
X090678Y-071374
X090678Y-072390
X090678Y-088646
X090678Y-089662
X091059Y-022733
X091059Y-040005
X091059Y-057277
X091059Y-074549
X091059Y-091821
X091151Y-023828
X091151Y-041100
X091151Y-058372
X091151Y-075644
X091151Y-092916
X091694Y-016886
X091694Y-034158
X091694Y-051430
X091694Y-068702
X091694Y-085974
X092851Y-017018
X092851Y-034290
X092851Y-051562
X092851Y-068834
X092851Y-086106
X094601Y-017018
X094601Y-034290
X094601Y-051562
X094601Y-068834
X094601Y-086106
X094742Y-023763
X094742Y-025513
X094742Y-041035
X094742Y-042785
X094742Y-058307
X094742Y-060057
X094742Y-075579
X094742Y-077329
X094742Y-092851
X094742Y-094601
X095137Y-022479
X095137Y-039751
X095137Y-057023
X095137Y-074295
X095137Y-091567
X095594Y-020954
X095594Y-038226
X095594Y-055498
X095594Y-072770
X095594Y-090042
X096901Y-023696
X096901Y-040968
X096901Y-058240
X096901Y-075512
X096901Y-092784
T2
X096774Y-069342
X096774Y-071882
X014732Y-079502
X017272Y-079502
X019812Y-079502
X022352Y-079502
X062738Y-052070
X062738Y-054610
X045720Y-025146
X062738Y-076962
X014732Y-034798
X014732Y-037338
X082804Y-034798
X082804Y-037338
X065786Y-076962
X031750Y-076962
X082804Y-062230
X085344Y-062230
X087884Y-062230
X090424Y-062230
X075946Y-027686
X078486Y-027686
X096774Y-017526
X096774Y-020066
X028702Y-017526
X028702Y-020066
X048768Y-086614
X048768Y-089154
X031750Y-079502
X034290Y-079502
X036830Y-079502
X039370Y-079502
X062738Y-034798
X062738Y-037338
X096774Y-076962
X014732Y-084074
X017272Y-084074
X019812Y-066802
X022352Y-066802
X024892Y-066802
X027432Y-066802
X087884Y-066802
X090424Y-066802
X092964Y-066802
X095504Y-066802
X045720Y-042418
X048768Y-017526
X048768Y-020066
X031750Y-027686
X034290Y-027686
X036830Y-027686
X039370Y-027686
X096774Y-094234
X036830Y-049530
X039370Y-049530
X041910Y-049530
X044450Y-049530
X014732Y-014986
X017272Y-014986
X045720Y-076962
X031750Y-094234
X062738Y-059690
X031750Y-096774
X034290Y-096774
X036830Y-096774
X039370Y-096774
X079756Y-052070
X079756Y-054610
X075946Y-044958
X078486Y-044958
X065786Y-062230
X068326Y-062230
X070866Y-062230
X073406Y-062230
X082804Y-052070
X082804Y-054610
X096774Y-059690
X045720Y-017526
X045720Y-020066
X024892Y-096774
X027432Y-096774
X082804Y-076962
X082804Y-014986
X085344Y-014986
X070866Y-014986
X073406Y-014986
X075946Y-014986
X078486Y-014986
X082804Y-084074
X085344Y-084074
X065786Y-069342
X065786Y-071882
X019812Y-049530
X022352Y-049530
X024892Y-049530
X027432Y-049530
X079756Y-025146
X065786Y-044958
X068326Y-044958
X070866Y-044958
X073406Y-044958
X048768Y-025146
X031750Y-014986
X034290Y-014986
X096774Y-042418
X036830Y-032258
X039370Y-032258
X041910Y-032258
X044450Y-032258
X024892Y-044958
X027432Y-044958
X014732Y-069342
X014732Y-071882
X045720Y-059690
X019812Y-032258
X022352Y-032258
X024892Y-032258
X027432Y-032258
X079756Y-059690
X087884Y-084074
X090424Y-084074
X092964Y-084074
X095504Y-084074
X014732Y-076962
X053848Y-066802
X056388Y-066802
X058928Y-066802
X061468Y-066802
X031750Y-059690
X065786Y-049530
X068326Y-049530
X065786Y-027686
X068326Y-027686
X070866Y-027686
X073406Y-027686
X024892Y-079502
X027432Y-079502
X079756Y-034798
X079756Y-037338
X031750Y-062230
X034290Y-062230
X036830Y-062230
X039370Y-062230
X070866Y-032258
X073406Y-032258
X075946Y-032258
X078486Y-032258
X031750Y-086614
X031750Y-089154
X048768Y-076962
X031750Y-069342
X031750Y-071882
X092964Y-044958
X095504Y-044958
X082804Y-094234
X048768Y-059690
X014732Y-086614
X014732Y-089154
X014732Y-066802
X017272Y-066802
X082804Y-032258
X085344Y-032258
X028702Y-025146
X058928Y-027686
X061468Y-027686
X082804Y-042418
X014732Y-049530
X017272Y-049530
X062738Y-042418
X014732Y-027686
X017272Y-027686
X019812Y-027686
X022352Y-027686
X041910Y-096774
X044450Y-096774
X014732Y-059690
X082804Y-017526
X082804Y-020066
X079756Y-094234
X028702Y-042418
X019812Y-084074
X022352Y-084074
X024892Y-084074
X027432Y-084074
X041910Y-079502
X044450Y-079502
X031750Y-042418
X048768Y-066802
X051308Y-066802
X065786Y-014986
X068326Y-014986
X079756Y-042418
X031750Y-017526
X031750Y-020066
X058928Y-096774
X061468Y-096774
X082804Y-059690
X014732Y-032258
X017272Y-032258
X031750Y-044958
X034290Y-044958
X036830Y-044958
X039370Y-044958
X028702Y-094234
X048768Y-069342
X048768Y-071882
X028702Y-034798
X028702Y-037338
X082804Y-066802
X085344Y-066802
X092964Y-062230
X095504Y-062230
X031750Y-052070
X031750Y-054610
X048768Y-042418
X014732Y-096774
X017272Y-096774
X019812Y-096774
X022352Y-096774
X053848Y-049530
X056388Y-049530
X058928Y-049530
X061468Y-049530
X014732Y-062230
X017272Y-062230
X019812Y-062230
X022352Y-062230
X031750Y-034798
X031750Y-037338
X082804Y-049530
X085344Y-049530
X082804Y-025146
X053848Y-014986
X056388Y-014986
X058928Y-014986
X061468Y-014986
X079756Y-086614
X079756Y-089154
X048768Y-049530
X051308Y-049530
X062738Y-025146
X028702Y-086614
X028702Y-089154
X065786Y-032258
X068326Y-032258
X070866Y-049530
X073406Y-049530
X075946Y-049530
X078486Y-049530
X041910Y-062230
X044450Y-062230
X065786Y-096774
X068326Y-096774
X070866Y-096774
X073406Y-096774
X075946Y-079502
X078486Y-079502
X028702Y-076962
X014732Y-094234
X048768Y-032258
X051308Y-032258
X058928Y-079502
X061468Y-079502
X041910Y-044958
X044450Y-044958
X014732Y-025146
X065786Y-094234
X065786Y-017526
X065786Y-020066
X082804Y-044958
X085344Y-044958
X087884Y-044958
X090424Y-044958
X045720Y-086614
X045720Y-089154
X065786Y-079502
X068326Y-079502
X070866Y-079502
X073406Y-079502
X082804Y-079502
X085344Y-079502
X087884Y-079502
X090424Y-079502
X028702Y-052070
X028702Y-054610
X014732Y-042418
X053848Y-032258
X056388Y-032258
X058928Y-032258
X061468Y-032258
X096774Y-034798
X096774Y-037338
X014732Y-044958
X017272Y-044958
X019812Y-044958
X022352Y-044958
X024892Y-062230
X027432Y-062230
X031750Y-025146
X092964Y-027686
X095504Y-027686
X048768Y-052070
X048768Y-054610
X087884Y-049530
X090424Y-049530
X092964Y-049530
X095504Y-049530
X079756Y-017526
X079756Y-020066
X048768Y-079502
X051308Y-079502
X053848Y-079502
X056388Y-079502
X065786Y-052070
X065786Y-054610
X019812Y-014986
X022352Y-014986
X024892Y-014986
X027432Y-014986
X048768Y-084074
X051308Y-084074
X058928Y-062230
X061468Y-062230
X036830Y-066802
X039370Y-066802
X041910Y-066802
X044450Y-066802
X024892Y-027686
X027432Y-027686
X031750Y-084074
X034290Y-084074
X079756Y-069342
X079756Y-071882
X014732Y-052070
X014732Y-054610
X048768Y-027686
X051308Y-027686
X053848Y-027686
X056388Y-027686
X062738Y-086614
X062738Y-089154
X070866Y-066802
X073406Y-066802
X075946Y-066802
X078486Y-066802
X031750Y-066802
X034290Y-066802
X048768Y-096774
X051308Y-096774
X053848Y-096774
X056388Y-096774
X062738Y-094234
X028702Y-069342
X028702Y-071882
X065786Y-034798
X065786Y-037338
X096774Y-086614
X096774Y-089154
X092964Y-079502
X095504Y-079502
X062738Y-069342
X062738Y-071882
X065786Y-086614
X065786Y-089154
X065786Y-066802
X068326Y-066802
X065786Y-042418
X014732Y-017526
X014732Y-020066
X048768Y-094234
X053848Y-084074
X056388Y-084074
X058928Y-084074
X061468Y-084074
X082804Y-096774
X085344Y-096774
X087884Y-096774
X090424Y-096774
X082804Y-069342
X082804Y-071882
X045720Y-034798
X045720Y-037338
X048768Y-062230
X051308Y-062230
X053848Y-062230
X056388Y-062230
X041910Y-027686
X044450Y-027686
X070866Y-084074
X073406Y-084074
X075946Y-084074
X078486Y-084074
X028702Y-059690
X048768Y-034798
X048768Y-037338
X087884Y-032258
X090424Y-032258
X092964Y-032258
X095504Y-032258
X096774Y-025146
X079756Y-076962
X058928Y-044958
X061468Y-044958
X065786Y-025146
X075946Y-096774
X078486Y-096774
X092964Y-096774
X095504Y-096774
X031750Y-049530
X034290Y-049530
X045720Y-094234
X036830Y-084074
X039370Y-084074
X041910Y-084074
X044450Y-084074
X096774Y-052070
X096774Y-054610
X065786Y-084074
X068326Y-084074
X045720Y-069342
X045720Y-071882
X031750Y-032258
X034290Y-032258
X062738Y-017526
X062738Y-020066
X065786Y-059690
X087884Y-014986
X090424Y-014986
X092964Y-014986
X095504Y-014986
X082804Y-027686
X085344Y-027686
X087884Y-027686
X090424Y-027686
X082804Y-086614
X082804Y-089154
X045720Y-052070
X045720Y-054610
X075946Y-062230
X078486Y-062230
X048768Y-044958
X051308Y-044958
X053848Y-044958
X056388Y-044958
X048768Y-014986
X051308Y-014986
X036830Y-014986
X039370Y-014986
X041910Y-014986
X044450Y-014986
T0
M30
