M48
; DRILL file {KiCad 5.1.0} date 2019年09月19日 01時17分56秒
; FORMAT={3:3/ absolute / metric / keep zeros}
; #@! TF.CreationDate,2019-09-19T01:17:56+09:00
; #@! TF.GenerationSoftware,Kicad,Pcbnew,5.1.0
FMAT,2
METRIC
T1C0.400
T2C0.900
T3C1.000
T4C1.500
T5C1.700
T6C4.000
%
G90
G05
T1
X017018Y-016510
X017018Y-033782
X017018Y-051054
X017018Y-068326
X017018Y-085598
X025400Y-014224
X025400Y-031496
X025400Y-048768
X025400Y-066040
X025400Y-083312
X033020Y-016510
X033020Y-033782
X033020Y-051054
X033020Y-068326
X033020Y-085598
X041402Y-014224
X041402Y-031496
X041402Y-048768
X041402Y-066040
X041402Y-083312
X049022Y-016510
X049022Y-033782
X049022Y-051054
X049022Y-068326
X049022Y-085598
X057404Y-014224
X057404Y-031496
X057404Y-048768
X057404Y-066040
X057404Y-083312
X065024Y-016510
X065024Y-033782
X065024Y-051054
X065024Y-068326
X065024Y-085598
X073406Y-014224
X073406Y-031496
X073406Y-048768
X073406Y-066040
X073406Y-083312
X081026Y-016510
X081026Y-033782
X081026Y-051054
X081026Y-068326
X081026Y-085598
X089408Y-014224
X089408Y-031496
X089408Y-048768
X089408Y-066040
X089408Y-083312
X097028Y-016510
X097028Y-033782
X097028Y-051054
X097028Y-068326
X097028Y-085598
X105410Y-014224
X105410Y-031496
X105410Y-048768
X105410Y-066040
X105410Y-083312
T2
X035433Y-096139
X037973Y-096139
X067437Y-044323
X069977Y-044323
X083439Y-061595
X085979Y-061595
X051435Y-044323
X053975Y-044323
X051435Y-061595
X053975Y-061595
X051435Y-078867
X053975Y-078867
X051435Y-027051
X053975Y-027051
X067437Y-078867
X069977Y-078867
X035433Y-044323
X037973Y-044323
X035433Y-027051
X037973Y-027051
X035433Y-078867
X037973Y-078867
X099441Y-061595
X101981Y-061595
X051435Y-096139
X053975Y-096139
X099441Y-078867
X101981Y-078867
X035433Y-061595
X037973Y-061595
X019431Y-044323
X021971Y-044323
X099441Y-027051
X101981Y-027051
X067437Y-061595
X069977Y-061595
X019431Y-027051
X021971Y-027051
X019431Y-061595
X021971Y-061595
X067437Y-096139
X069977Y-096139
X099441Y-096139
X101981Y-096139
X083439Y-044323
X085979Y-044323
X083439Y-027051
X085979Y-027051
X067437Y-027051
X069977Y-027051
X019431Y-096139
X021971Y-096139
X019431Y-078867
X021971Y-078867
X083439Y-096139
X085979Y-096139
X099441Y-044323
X101981Y-044323
X083439Y-078867
X085979Y-078867
T3
X091694Y-086614
X027686Y-091694
X027686Y-094234
X091694Y-069342
X093726Y-059690
X013716Y-052070
X013716Y-054610
X045720Y-059690
X075692Y-039878
X075692Y-042418
X075692Y-022606
X075692Y-025146
X043688Y-039878
X043688Y-042418
X013716Y-069342
X013716Y-071882
X043688Y-022606
X043688Y-025146
X059690Y-086614
X107696Y-039878
X107696Y-042418
X093726Y-017526
X093726Y-020066
X043688Y-052070
X061722Y-025146
X013716Y-025146
X077724Y-094234
X045720Y-025146
X107696Y-074422
X107696Y-076962
X061722Y-034798
X061722Y-037338
X045720Y-069342
X045720Y-071882
X013716Y-059690
X107696Y-034798
X061722Y-076962
X093726Y-052070
X093726Y-054610
X107696Y-086614
X027686Y-034798
X091694Y-022606
X091694Y-025146
X027686Y-022606
X027686Y-025146
X093726Y-086614
X093726Y-089154
X075692Y-034798
X061722Y-059690
X027686Y-074422
X027686Y-076962
X043688Y-017526
X075692Y-052070
X093726Y-069342
X093726Y-071882
X043688Y-057150
X043688Y-059690
X029718Y-042418
X043688Y-074422
X043688Y-076962
X029718Y-034798
X029718Y-037338
X059690Y-034798
X045720Y-076962
X045720Y-086614
X045720Y-089154
X059690Y-052070
X059690Y-091694
X059690Y-094234
X027686Y-086614
X107696Y-017526
X045720Y-052070
X045720Y-054610
X059690Y-017526
X093726Y-094234
X027686Y-017526
X029718Y-094234
X029718Y-069342
X029718Y-071882
X027686Y-052070
X043688Y-086614
X061722Y-086614
X061722Y-089154
X091694Y-091694
X091694Y-094234
X075692Y-086614
X027686Y-069342
X077724Y-034798
X077724Y-037338
X077724Y-017526
X077724Y-020066
X027686Y-057150
X027686Y-059690
X013716Y-086614
X013716Y-089154
X107696Y-052070
X107696Y-057150
X107696Y-059690
X029718Y-059690
X107696Y-022606
X107696Y-025146
X059690Y-039878
X059690Y-042418
X061722Y-017526
X061722Y-020066
X061722Y-069342
X061722Y-071882
X059690Y-074422
X059690Y-076962
X075692Y-057150
X075692Y-059690
X061722Y-052070
X061722Y-054610
X077724Y-042418
X093726Y-025146
X029718Y-017526
X029718Y-020066
X077724Y-076962
X029718Y-052070
X029718Y-054610
X091694Y-034798
X077724Y-025146
X013716Y-076962
X043688Y-034798
X045720Y-094234
X061722Y-094234
X093726Y-042418
X045720Y-042418
X013716Y-094234
X059690Y-022606
X059690Y-025146
X075692Y-069342
X013716Y-017526
X013716Y-020066
X043688Y-091694
X043688Y-094234
X059690Y-069342
X059690Y-057150
X059690Y-059690
X107696Y-069342
X013716Y-034798
X013716Y-037338
X029718Y-076962
X107696Y-091694
X107696Y-094234
X091694Y-039878
X091694Y-042418
X029718Y-086614
X029718Y-089154
X077724Y-069342
X077724Y-071882
X091694Y-074422
X091694Y-076962
X075692Y-017526
X061722Y-042418
X091694Y-017526
X075692Y-091694
X075692Y-094234
X093726Y-076962
X077724Y-059690
X077724Y-052070
X077724Y-054610
X091694Y-057150
X091694Y-059690
X045720Y-034798
X045720Y-037338
X077724Y-086614
X077724Y-089154
X013716Y-042418
X075692Y-074422
X075692Y-076962
X091694Y-052070
X027686Y-039878
X027686Y-042418
X045720Y-017526
X045720Y-020066
X029718Y-025146
X043688Y-069342
X093726Y-034798
X093726Y-037338
T4
X064897Y-053975
X071247Y-051435
X032893Y-036703
X039243Y-034163
X032893Y-088519
X039243Y-085979
X064897Y-019431
X071247Y-016891
X096901Y-036703
X103251Y-034163
X016891Y-019431
X023241Y-016891
X048895Y-036703
X055245Y-034163
X016891Y-053975
X023241Y-051435
X096901Y-088519
X103251Y-085979
X096901Y-053975
X103251Y-051435
X080899Y-071247
X087249Y-068707
X032893Y-071247
X039243Y-068707
X048895Y-071247
X055245Y-068707
X064897Y-088519
X071247Y-085979
X064897Y-036703
X071247Y-034163
X064897Y-071247
X071247Y-068707
X048895Y-053975
X055245Y-051435
X016891Y-088519
X023241Y-085979
X032893Y-053975
X039243Y-051435
X080899Y-036703
X087249Y-034163
X096901Y-071247
X103251Y-068707
X096901Y-019431
X103251Y-016891
X080899Y-053975
X087249Y-051435
X016891Y-036703
X023241Y-034163
X016891Y-071247
X023241Y-068707
X080899Y-019431
X087249Y-016891
X048895Y-019431
X055245Y-016891
X080899Y-088519
X087249Y-085979
X048895Y-088519
X055245Y-085979
X032893Y-019431
X039243Y-016891
T5
X063627Y-056515
X073787Y-056515
X031623Y-039243
X041783Y-039243
X031623Y-091059
X041783Y-091059
X063627Y-021971
X073787Y-021971
X095631Y-039243
X105791Y-039243
X015621Y-021971
X025781Y-021971
X047625Y-039243
X057785Y-039243
X015621Y-056515
X025781Y-056515
X095631Y-091059
X105791Y-091059
X095631Y-056515
X105791Y-056515
X079629Y-073787
X089789Y-073787
X031623Y-073787
X041783Y-073787
X047625Y-073787
X057785Y-073787
X063627Y-091059
X073787Y-091059
X063627Y-039243
X073787Y-039243
X063627Y-073787
X073787Y-073787
X047625Y-056515
X057785Y-056515
X015621Y-091059
X025781Y-091059
X031623Y-056515
X041783Y-056515
X079629Y-039243
X089789Y-039243
X095631Y-073787
X105791Y-073787
X095631Y-021971
X105791Y-021971
X079629Y-056515
X089789Y-056515
X015621Y-039243
X025781Y-039243
X015621Y-073787
X025781Y-073787
X079629Y-021971
X089789Y-021971
X047625Y-021971
X057785Y-021971
X079629Y-091059
X089789Y-091059
X047625Y-091059
X057785Y-091059
X031623Y-021971
X041783Y-021971
T6
X020701Y-039243
X020701Y-073787
X084709Y-021971
X052705Y-021971
X084709Y-091059
X052705Y-091059
X036703Y-021971
X068707Y-056515
X036703Y-039243
X036703Y-091059
X068707Y-021971
X100711Y-039243
X020701Y-021971
X052705Y-039243
X020701Y-056515
X100711Y-091059
X100711Y-056515
X084709Y-073787
X036703Y-073787
X052705Y-073787
X068707Y-091059
X068707Y-039243
X068707Y-073787
X052705Y-056515
X020701Y-091059
X036703Y-056515
X084709Y-039243
X100711Y-073787
X100711Y-021971
X084709Y-056515
T0
M30
