G04 #@! TF.GenerationSoftware,KiCad,Pcbnew,5.1.0*
G04 #@! TF.CreationDate,2019-09-19T00:51:01+09:00*
G04 #@! TF.ProjectId,panelized_key,70616e65-6c69-47a6-9564-5f6b65792e6b,rev?*
G04 #@! TF.SameCoordinates,Original*
G04 #@! TF.FileFunction,Profile,NP*
%FSLAX46Y46*%
G04 Gerber Fmt 4.6, Leading zero omitted, Abs format (unit mm)*
G04 Created by KiCad (PCBNEW 5.1.0) date 2019-09-19 00:51:01*
%MOMM*%
%LPD*%
G04 APERTURE LIST*
%ADD10C,0.050000*%
G04 APERTURE END LIST*
D10*
X46736000Y-81788000D02*
X46736000Y-99060000D01*
X29718000Y-99060000D02*
X12700000Y-99060000D01*
X12700000Y-99060000D02*
X12700000Y-81788000D01*
X46736000Y-99060000D02*
X29718000Y-99060000D01*
X12700000Y-81788000D02*
X29718000Y-81788000D01*
X46736000Y-99060000D02*
X46736000Y-81788000D01*
X80772000Y-81788000D02*
X80772000Y-99060000D01*
X63754000Y-81788000D02*
X80772000Y-81788000D01*
X80772000Y-99060000D02*
X63754000Y-99060000D01*
X63754000Y-99060000D02*
X63754000Y-81788000D01*
X46736000Y-81788000D02*
X63754000Y-81788000D01*
X97790000Y-81788000D02*
X97790000Y-99060000D01*
X97790000Y-99060000D02*
X80772000Y-99060000D01*
X80772000Y-99060000D02*
X80772000Y-81788000D01*
X80772000Y-81788000D02*
X97790000Y-81788000D01*
X63754000Y-99060000D02*
X46736000Y-99060000D01*
X29718000Y-81788000D02*
X46736000Y-81788000D01*
X63754000Y-81788000D02*
X63754000Y-99060000D01*
X29718000Y-99060000D02*
X29718000Y-81788000D01*
X29718000Y-81788000D02*
X29718000Y-99060000D01*
X46736000Y-64516000D02*
X46736000Y-81788000D01*
X29718000Y-81788000D02*
X12700000Y-81788000D01*
X12700000Y-81788000D02*
X12700000Y-64516000D01*
X46736000Y-81788000D02*
X29718000Y-81788000D01*
X12700000Y-64516000D02*
X29718000Y-64516000D01*
X46736000Y-81788000D02*
X46736000Y-64516000D01*
X80772000Y-64516000D02*
X80772000Y-81788000D01*
X63754000Y-64516000D02*
X80772000Y-64516000D01*
X80772000Y-81788000D02*
X63754000Y-81788000D01*
X63754000Y-81788000D02*
X63754000Y-64516000D01*
X46736000Y-64516000D02*
X63754000Y-64516000D01*
X97790000Y-64516000D02*
X97790000Y-81788000D01*
X97790000Y-81788000D02*
X80772000Y-81788000D01*
X80772000Y-81788000D02*
X80772000Y-64516000D01*
X80772000Y-64516000D02*
X97790000Y-64516000D01*
X63754000Y-81788000D02*
X46736000Y-81788000D01*
X29718000Y-64516000D02*
X46736000Y-64516000D01*
X63754000Y-64516000D02*
X63754000Y-81788000D01*
X29718000Y-81788000D02*
X29718000Y-64516000D01*
X29718000Y-64516000D02*
X29718000Y-81788000D01*
X46736000Y-47244000D02*
X46736000Y-64516000D01*
X29718000Y-64516000D02*
X12700000Y-64516000D01*
X12700000Y-64516000D02*
X12700000Y-47244000D01*
X46736000Y-64516000D02*
X29718000Y-64516000D01*
X12700000Y-47244000D02*
X29718000Y-47244000D01*
X46736000Y-64516000D02*
X46736000Y-47244000D01*
X80772000Y-47244000D02*
X80772000Y-64516000D01*
X63754000Y-47244000D02*
X80772000Y-47244000D01*
X80772000Y-64516000D02*
X63754000Y-64516000D01*
X63754000Y-64516000D02*
X63754000Y-47244000D01*
X46736000Y-47244000D02*
X63754000Y-47244000D01*
X97790000Y-47244000D02*
X97790000Y-64516000D01*
X97790000Y-64516000D02*
X80772000Y-64516000D01*
X80772000Y-64516000D02*
X80772000Y-47244000D01*
X80772000Y-47244000D02*
X97790000Y-47244000D01*
X63754000Y-64516000D02*
X46736000Y-64516000D01*
X29718000Y-47244000D02*
X46736000Y-47244000D01*
X63754000Y-47244000D02*
X63754000Y-64516000D01*
X29718000Y-64516000D02*
X29718000Y-47244000D01*
X29718000Y-47244000D02*
X29718000Y-64516000D01*
X46736000Y-29972000D02*
X46736000Y-47244000D01*
X29718000Y-47244000D02*
X12700000Y-47244000D01*
X12700000Y-47244000D02*
X12700000Y-29972000D01*
X46736000Y-47244000D02*
X29718000Y-47244000D01*
X12700000Y-29972000D02*
X29718000Y-29972000D01*
X46736000Y-47244000D02*
X46736000Y-29972000D01*
X80772000Y-29972000D02*
X80772000Y-47244000D01*
X63754000Y-29972000D02*
X80772000Y-29972000D01*
X80772000Y-47244000D02*
X63754000Y-47244000D01*
X63754000Y-47244000D02*
X63754000Y-29972000D01*
X46736000Y-29972000D02*
X63754000Y-29972000D01*
X97790000Y-29972000D02*
X97790000Y-47244000D01*
X97790000Y-47244000D02*
X80772000Y-47244000D01*
X80772000Y-47244000D02*
X80772000Y-29972000D01*
X80772000Y-29972000D02*
X97790000Y-29972000D01*
X63754000Y-47244000D02*
X46736000Y-47244000D01*
X29718000Y-29972000D02*
X46736000Y-29972000D01*
X63754000Y-29972000D02*
X63754000Y-47244000D01*
X29718000Y-47244000D02*
X29718000Y-29972000D01*
X29718000Y-29972000D02*
X29718000Y-47244000D01*
X97790000Y-29972000D02*
X80772000Y-29972000D01*
X80772000Y-29972000D02*
X80772000Y-12700000D01*
X80772000Y-12700000D02*
X97790000Y-12700000D01*
X97790000Y-12700000D02*
X97790000Y-29972000D01*
X80772000Y-29972000D02*
X63754000Y-29972000D01*
X63754000Y-29972000D02*
X63754000Y-12700000D01*
X63754000Y-12700000D02*
X80772000Y-12700000D01*
X80772000Y-12700000D02*
X80772000Y-29972000D01*
X63754000Y-29972000D02*
X46736000Y-29972000D01*
X46736000Y-29972000D02*
X46736000Y-12700000D01*
X46736000Y-12700000D02*
X63754000Y-12700000D01*
X63754000Y-12700000D02*
X63754000Y-29972000D01*
X46736000Y-29972000D02*
X29718000Y-29972000D01*
X29718000Y-29972000D02*
X29718000Y-12700000D01*
X29718000Y-12700000D02*
X46736000Y-12700000D01*
X46736000Y-12700000D02*
X46736000Y-29972000D01*
X12700000Y-12700000D02*
X29718000Y-12700000D01*
X12700000Y-29972000D02*
X12700000Y-12700000D01*
X29718000Y-29972000D02*
X12700000Y-29972000D01*
X29718000Y-12700000D02*
X29718000Y-29972000D01*
M02*
