G04 #@! TF.GenerationSoftware,KiCad,Pcbnew,5.1.0*
G04 #@! TF.CreationDate,2019-09-19T00:51:00+09:00*
G04 #@! TF.ProjectId,panelized_key,70616e65-6c69-47a6-9564-5f6b65792e6b,rev?*
G04 #@! TF.SameCoordinates,Original*
G04 #@! TF.FileFunction,Paste,Bot*
G04 #@! TF.FilePolarity,Positive*
%FSLAX46Y46*%
G04 Gerber Fmt 4.6, Leading zero omitted, Abs format (unit mm)*
G04 Created by KiCad (PCBNEW 5.1.0) date 2019-09-19 00:51:00*
%MOMM*%
%LPD*%
G04 APERTURE LIST*
%ADD10R,0.400000X1.300000*%
%ADD11R,0.650000X0.400000*%
%ADD12C,0.100000*%
%ADD13C,0.950000*%
G04 APERTURE END LIST*
D10*
X68845000Y-87178000D03*
X69495000Y-87178000D03*
X70145000Y-87178000D03*
X70795000Y-87178000D03*
X71445000Y-87178000D03*
X72095000Y-87178000D03*
X72745000Y-87178000D03*
X73395000Y-87178000D03*
X73395000Y-94178000D03*
X72745000Y-94178000D03*
X72095000Y-94178000D03*
X71445000Y-94178000D03*
X70795000Y-94178000D03*
X70145000Y-94178000D03*
X69495000Y-94178000D03*
X68845000Y-94178000D03*
D11*
X41214000Y-94122000D03*
X41214000Y-92822000D03*
X43114000Y-93472000D03*
X41214000Y-93472000D03*
X43114000Y-92822000D03*
X43114000Y-94122000D03*
X26096000Y-88534000D03*
X26096000Y-87234000D03*
X24196000Y-87884000D03*
X26096000Y-87884000D03*
X24196000Y-87234000D03*
X24196000Y-88534000D03*
X60132000Y-90282000D03*
X60132000Y-91582000D03*
X58232000Y-90932000D03*
X60132000Y-90932000D03*
X58232000Y-91582000D03*
X58232000Y-90282000D03*
X58232000Y-94122000D03*
X58232000Y-92822000D03*
X60132000Y-93472000D03*
X58232000Y-93472000D03*
X60132000Y-92822000D03*
X60132000Y-94122000D03*
D10*
X51827000Y-87178000D03*
X52477000Y-87178000D03*
X53127000Y-87178000D03*
X53777000Y-87178000D03*
X54427000Y-87178000D03*
X55077000Y-87178000D03*
X55727000Y-87178000D03*
X56377000Y-87178000D03*
X56377000Y-94178000D03*
X55727000Y-94178000D03*
X55077000Y-94178000D03*
X54427000Y-94178000D03*
X53777000Y-94178000D03*
X53127000Y-94178000D03*
X52477000Y-94178000D03*
X51827000Y-94178000D03*
D12*
G36*
X48203779Y-91220144D02*
G01*
X48226834Y-91223563D01*
X48249443Y-91229227D01*
X48271387Y-91237079D01*
X48292457Y-91247044D01*
X48312448Y-91259026D01*
X48331168Y-91272910D01*
X48348438Y-91288562D01*
X48364090Y-91305832D01*
X48377974Y-91324552D01*
X48389956Y-91344543D01*
X48399921Y-91365613D01*
X48407773Y-91387557D01*
X48413437Y-91410166D01*
X48416856Y-91433221D01*
X48418000Y-91456500D01*
X48418000Y-91931500D01*
X48416856Y-91954779D01*
X48413437Y-91977834D01*
X48407773Y-92000443D01*
X48399921Y-92022387D01*
X48389956Y-92043457D01*
X48377974Y-92063448D01*
X48364090Y-92082168D01*
X48348438Y-92099438D01*
X48331168Y-92115090D01*
X48312448Y-92128974D01*
X48292457Y-92140956D01*
X48271387Y-92150921D01*
X48249443Y-92158773D01*
X48226834Y-92164437D01*
X48203779Y-92167856D01*
X48180500Y-92169000D01*
X47605500Y-92169000D01*
X47582221Y-92167856D01*
X47559166Y-92164437D01*
X47536557Y-92158773D01*
X47514613Y-92150921D01*
X47493543Y-92140956D01*
X47473552Y-92128974D01*
X47454832Y-92115090D01*
X47437562Y-92099438D01*
X47421910Y-92082168D01*
X47408026Y-92063448D01*
X47396044Y-92043457D01*
X47386079Y-92022387D01*
X47378227Y-92000443D01*
X47372563Y-91977834D01*
X47369144Y-91954779D01*
X47368000Y-91931500D01*
X47368000Y-91456500D01*
X47369144Y-91433221D01*
X47372563Y-91410166D01*
X47378227Y-91387557D01*
X47386079Y-91365613D01*
X47396044Y-91344543D01*
X47408026Y-91324552D01*
X47421910Y-91305832D01*
X47437562Y-91288562D01*
X47454832Y-91272910D01*
X47473552Y-91259026D01*
X47493543Y-91247044D01*
X47514613Y-91237079D01*
X47536557Y-91229227D01*
X47559166Y-91223563D01*
X47582221Y-91220144D01*
X47605500Y-91219000D01*
X48180500Y-91219000D01*
X48203779Y-91220144D01*
X48203779Y-91220144D01*
G37*
D13*
X47893000Y-91694000D03*
D12*
G36*
X49953779Y-91220144D02*
G01*
X49976834Y-91223563D01*
X49999443Y-91229227D01*
X50021387Y-91237079D01*
X50042457Y-91247044D01*
X50062448Y-91259026D01*
X50081168Y-91272910D01*
X50098438Y-91288562D01*
X50114090Y-91305832D01*
X50127974Y-91324552D01*
X50139956Y-91344543D01*
X50149921Y-91365613D01*
X50157773Y-91387557D01*
X50163437Y-91410166D01*
X50166856Y-91433221D01*
X50168000Y-91456500D01*
X50168000Y-91931500D01*
X50166856Y-91954779D01*
X50163437Y-91977834D01*
X50157773Y-92000443D01*
X50149921Y-92022387D01*
X50139956Y-92043457D01*
X50127974Y-92063448D01*
X50114090Y-92082168D01*
X50098438Y-92099438D01*
X50081168Y-92115090D01*
X50062448Y-92128974D01*
X50042457Y-92140956D01*
X50021387Y-92150921D01*
X49999443Y-92158773D01*
X49976834Y-92164437D01*
X49953779Y-92167856D01*
X49930500Y-92169000D01*
X49355500Y-92169000D01*
X49332221Y-92167856D01*
X49309166Y-92164437D01*
X49286557Y-92158773D01*
X49264613Y-92150921D01*
X49243543Y-92140956D01*
X49223552Y-92128974D01*
X49204832Y-92115090D01*
X49187562Y-92099438D01*
X49171910Y-92082168D01*
X49158026Y-92063448D01*
X49146044Y-92043457D01*
X49136079Y-92022387D01*
X49128227Y-92000443D01*
X49122563Y-91977834D01*
X49119144Y-91954779D01*
X49118000Y-91931500D01*
X49118000Y-91456500D01*
X49119144Y-91433221D01*
X49122563Y-91410166D01*
X49128227Y-91387557D01*
X49136079Y-91365613D01*
X49146044Y-91344543D01*
X49158026Y-91324552D01*
X49171910Y-91305832D01*
X49187562Y-91288562D01*
X49204832Y-91272910D01*
X49223552Y-91259026D01*
X49243543Y-91247044D01*
X49264613Y-91237079D01*
X49286557Y-91229227D01*
X49309166Y-91223563D01*
X49332221Y-91220144D01*
X49355500Y-91219000D01*
X49930500Y-91219000D01*
X49953779Y-91220144D01*
X49953779Y-91220144D01*
G37*
D13*
X49643000Y-91694000D03*
D11*
X58232000Y-88534000D03*
X58232000Y-87234000D03*
X60132000Y-87884000D03*
X58232000Y-87884000D03*
X60132000Y-87234000D03*
X60132000Y-88534000D03*
X75250000Y-94122000D03*
X75250000Y-92822000D03*
X77150000Y-93472000D03*
X75250000Y-93472000D03*
X77150000Y-92822000D03*
X77150000Y-94122000D03*
D12*
G36*
X65221779Y-91220144D02*
G01*
X65244834Y-91223563D01*
X65267443Y-91229227D01*
X65289387Y-91237079D01*
X65310457Y-91247044D01*
X65330448Y-91259026D01*
X65349168Y-91272910D01*
X65366438Y-91288562D01*
X65382090Y-91305832D01*
X65395974Y-91324552D01*
X65407956Y-91344543D01*
X65417921Y-91365613D01*
X65425773Y-91387557D01*
X65431437Y-91410166D01*
X65434856Y-91433221D01*
X65436000Y-91456500D01*
X65436000Y-91931500D01*
X65434856Y-91954779D01*
X65431437Y-91977834D01*
X65425773Y-92000443D01*
X65417921Y-92022387D01*
X65407956Y-92043457D01*
X65395974Y-92063448D01*
X65382090Y-92082168D01*
X65366438Y-92099438D01*
X65349168Y-92115090D01*
X65330448Y-92128974D01*
X65310457Y-92140956D01*
X65289387Y-92150921D01*
X65267443Y-92158773D01*
X65244834Y-92164437D01*
X65221779Y-92167856D01*
X65198500Y-92169000D01*
X64623500Y-92169000D01*
X64600221Y-92167856D01*
X64577166Y-92164437D01*
X64554557Y-92158773D01*
X64532613Y-92150921D01*
X64511543Y-92140956D01*
X64491552Y-92128974D01*
X64472832Y-92115090D01*
X64455562Y-92099438D01*
X64439910Y-92082168D01*
X64426026Y-92063448D01*
X64414044Y-92043457D01*
X64404079Y-92022387D01*
X64396227Y-92000443D01*
X64390563Y-91977834D01*
X64387144Y-91954779D01*
X64386000Y-91931500D01*
X64386000Y-91456500D01*
X64387144Y-91433221D01*
X64390563Y-91410166D01*
X64396227Y-91387557D01*
X64404079Y-91365613D01*
X64414044Y-91344543D01*
X64426026Y-91324552D01*
X64439910Y-91305832D01*
X64455562Y-91288562D01*
X64472832Y-91272910D01*
X64491552Y-91259026D01*
X64511543Y-91247044D01*
X64532613Y-91237079D01*
X64554557Y-91229227D01*
X64577166Y-91223563D01*
X64600221Y-91220144D01*
X64623500Y-91219000D01*
X65198500Y-91219000D01*
X65221779Y-91220144D01*
X65221779Y-91220144D01*
G37*
D13*
X64911000Y-91694000D03*
D12*
G36*
X66971779Y-91220144D02*
G01*
X66994834Y-91223563D01*
X67017443Y-91229227D01*
X67039387Y-91237079D01*
X67060457Y-91247044D01*
X67080448Y-91259026D01*
X67099168Y-91272910D01*
X67116438Y-91288562D01*
X67132090Y-91305832D01*
X67145974Y-91324552D01*
X67157956Y-91344543D01*
X67167921Y-91365613D01*
X67175773Y-91387557D01*
X67181437Y-91410166D01*
X67184856Y-91433221D01*
X67186000Y-91456500D01*
X67186000Y-91931500D01*
X67184856Y-91954779D01*
X67181437Y-91977834D01*
X67175773Y-92000443D01*
X67167921Y-92022387D01*
X67157956Y-92043457D01*
X67145974Y-92063448D01*
X67132090Y-92082168D01*
X67116438Y-92099438D01*
X67099168Y-92115090D01*
X67080448Y-92128974D01*
X67060457Y-92140956D01*
X67039387Y-92150921D01*
X67017443Y-92158773D01*
X66994834Y-92164437D01*
X66971779Y-92167856D01*
X66948500Y-92169000D01*
X66373500Y-92169000D01*
X66350221Y-92167856D01*
X66327166Y-92164437D01*
X66304557Y-92158773D01*
X66282613Y-92150921D01*
X66261543Y-92140956D01*
X66241552Y-92128974D01*
X66222832Y-92115090D01*
X66205562Y-92099438D01*
X66189910Y-92082168D01*
X66176026Y-92063448D01*
X66164044Y-92043457D01*
X66154079Y-92022387D01*
X66146227Y-92000443D01*
X66140563Y-91977834D01*
X66137144Y-91954779D01*
X66136000Y-91931500D01*
X66136000Y-91456500D01*
X66137144Y-91433221D01*
X66140563Y-91410166D01*
X66146227Y-91387557D01*
X66154079Y-91365613D01*
X66164044Y-91344543D01*
X66176026Y-91324552D01*
X66189910Y-91305832D01*
X66205562Y-91288562D01*
X66222832Y-91272910D01*
X66241552Y-91259026D01*
X66261543Y-91247044D01*
X66282613Y-91237079D01*
X66304557Y-91229227D01*
X66327166Y-91223563D01*
X66350221Y-91220144D01*
X66373500Y-91219000D01*
X66948500Y-91219000D01*
X66971779Y-91220144D01*
X66971779Y-91220144D01*
G37*
D13*
X66661000Y-91694000D03*
D11*
X77150000Y-90282000D03*
X77150000Y-91582000D03*
X75250000Y-90932000D03*
X77150000Y-90932000D03*
X75250000Y-91582000D03*
X75250000Y-90282000D03*
X75250000Y-88534000D03*
X75250000Y-87234000D03*
X77150000Y-87884000D03*
X75250000Y-87884000D03*
X77150000Y-87234000D03*
X77150000Y-88534000D03*
D10*
X85863000Y-87178000D03*
X86513000Y-87178000D03*
X87163000Y-87178000D03*
X87813000Y-87178000D03*
X88463000Y-87178000D03*
X89113000Y-87178000D03*
X89763000Y-87178000D03*
X90413000Y-87178000D03*
X90413000Y-94178000D03*
X89763000Y-94178000D03*
X89113000Y-94178000D03*
X88463000Y-94178000D03*
X87813000Y-94178000D03*
X87163000Y-94178000D03*
X86513000Y-94178000D03*
X85863000Y-94178000D03*
D11*
X92268000Y-94122000D03*
X92268000Y-92822000D03*
X94168000Y-93472000D03*
X92268000Y-93472000D03*
X94168000Y-92822000D03*
X94168000Y-94122000D03*
D12*
G36*
X31185779Y-91220144D02*
G01*
X31208834Y-91223563D01*
X31231443Y-91229227D01*
X31253387Y-91237079D01*
X31274457Y-91247044D01*
X31294448Y-91259026D01*
X31313168Y-91272910D01*
X31330438Y-91288562D01*
X31346090Y-91305832D01*
X31359974Y-91324552D01*
X31371956Y-91344543D01*
X31381921Y-91365613D01*
X31389773Y-91387557D01*
X31395437Y-91410166D01*
X31398856Y-91433221D01*
X31400000Y-91456500D01*
X31400000Y-91931500D01*
X31398856Y-91954779D01*
X31395437Y-91977834D01*
X31389773Y-92000443D01*
X31381921Y-92022387D01*
X31371956Y-92043457D01*
X31359974Y-92063448D01*
X31346090Y-92082168D01*
X31330438Y-92099438D01*
X31313168Y-92115090D01*
X31294448Y-92128974D01*
X31274457Y-92140956D01*
X31253387Y-92150921D01*
X31231443Y-92158773D01*
X31208834Y-92164437D01*
X31185779Y-92167856D01*
X31162500Y-92169000D01*
X30587500Y-92169000D01*
X30564221Y-92167856D01*
X30541166Y-92164437D01*
X30518557Y-92158773D01*
X30496613Y-92150921D01*
X30475543Y-92140956D01*
X30455552Y-92128974D01*
X30436832Y-92115090D01*
X30419562Y-92099438D01*
X30403910Y-92082168D01*
X30390026Y-92063448D01*
X30378044Y-92043457D01*
X30368079Y-92022387D01*
X30360227Y-92000443D01*
X30354563Y-91977834D01*
X30351144Y-91954779D01*
X30350000Y-91931500D01*
X30350000Y-91456500D01*
X30351144Y-91433221D01*
X30354563Y-91410166D01*
X30360227Y-91387557D01*
X30368079Y-91365613D01*
X30378044Y-91344543D01*
X30390026Y-91324552D01*
X30403910Y-91305832D01*
X30419562Y-91288562D01*
X30436832Y-91272910D01*
X30455552Y-91259026D01*
X30475543Y-91247044D01*
X30496613Y-91237079D01*
X30518557Y-91229227D01*
X30541166Y-91223563D01*
X30564221Y-91220144D01*
X30587500Y-91219000D01*
X31162500Y-91219000D01*
X31185779Y-91220144D01*
X31185779Y-91220144D01*
G37*
D13*
X30875000Y-91694000D03*
D12*
G36*
X32935779Y-91220144D02*
G01*
X32958834Y-91223563D01*
X32981443Y-91229227D01*
X33003387Y-91237079D01*
X33024457Y-91247044D01*
X33044448Y-91259026D01*
X33063168Y-91272910D01*
X33080438Y-91288562D01*
X33096090Y-91305832D01*
X33109974Y-91324552D01*
X33121956Y-91344543D01*
X33131921Y-91365613D01*
X33139773Y-91387557D01*
X33145437Y-91410166D01*
X33148856Y-91433221D01*
X33150000Y-91456500D01*
X33150000Y-91931500D01*
X33148856Y-91954779D01*
X33145437Y-91977834D01*
X33139773Y-92000443D01*
X33131921Y-92022387D01*
X33121956Y-92043457D01*
X33109974Y-92063448D01*
X33096090Y-92082168D01*
X33080438Y-92099438D01*
X33063168Y-92115090D01*
X33044448Y-92128974D01*
X33024457Y-92140956D01*
X33003387Y-92150921D01*
X32981443Y-92158773D01*
X32958834Y-92164437D01*
X32935779Y-92167856D01*
X32912500Y-92169000D01*
X32337500Y-92169000D01*
X32314221Y-92167856D01*
X32291166Y-92164437D01*
X32268557Y-92158773D01*
X32246613Y-92150921D01*
X32225543Y-92140956D01*
X32205552Y-92128974D01*
X32186832Y-92115090D01*
X32169562Y-92099438D01*
X32153910Y-92082168D01*
X32140026Y-92063448D01*
X32128044Y-92043457D01*
X32118079Y-92022387D01*
X32110227Y-92000443D01*
X32104563Y-91977834D01*
X32101144Y-91954779D01*
X32100000Y-91931500D01*
X32100000Y-91456500D01*
X32101144Y-91433221D01*
X32104563Y-91410166D01*
X32110227Y-91387557D01*
X32118079Y-91365613D01*
X32128044Y-91344543D01*
X32140026Y-91324552D01*
X32153910Y-91305832D01*
X32169562Y-91288562D01*
X32186832Y-91272910D01*
X32205552Y-91259026D01*
X32225543Y-91247044D01*
X32246613Y-91237079D01*
X32268557Y-91229227D01*
X32291166Y-91223563D01*
X32314221Y-91220144D01*
X32337500Y-91219000D01*
X32912500Y-91219000D01*
X32935779Y-91220144D01*
X32935779Y-91220144D01*
G37*
D13*
X32625000Y-91694000D03*
D12*
G36*
X82239779Y-91220144D02*
G01*
X82262834Y-91223563D01*
X82285443Y-91229227D01*
X82307387Y-91237079D01*
X82328457Y-91247044D01*
X82348448Y-91259026D01*
X82367168Y-91272910D01*
X82384438Y-91288562D01*
X82400090Y-91305832D01*
X82413974Y-91324552D01*
X82425956Y-91344543D01*
X82435921Y-91365613D01*
X82443773Y-91387557D01*
X82449437Y-91410166D01*
X82452856Y-91433221D01*
X82454000Y-91456500D01*
X82454000Y-91931500D01*
X82452856Y-91954779D01*
X82449437Y-91977834D01*
X82443773Y-92000443D01*
X82435921Y-92022387D01*
X82425956Y-92043457D01*
X82413974Y-92063448D01*
X82400090Y-92082168D01*
X82384438Y-92099438D01*
X82367168Y-92115090D01*
X82348448Y-92128974D01*
X82328457Y-92140956D01*
X82307387Y-92150921D01*
X82285443Y-92158773D01*
X82262834Y-92164437D01*
X82239779Y-92167856D01*
X82216500Y-92169000D01*
X81641500Y-92169000D01*
X81618221Y-92167856D01*
X81595166Y-92164437D01*
X81572557Y-92158773D01*
X81550613Y-92150921D01*
X81529543Y-92140956D01*
X81509552Y-92128974D01*
X81490832Y-92115090D01*
X81473562Y-92099438D01*
X81457910Y-92082168D01*
X81444026Y-92063448D01*
X81432044Y-92043457D01*
X81422079Y-92022387D01*
X81414227Y-92000443D01*
X81408563Y-91977834D01*
X81405144Y-91954779D01*
X81404000Y-91931500D01*
X81404000Y-91456500D01*
X81405144Y-91433221D01*
X81408563Y-91410166D01*
X81414227Y-91387557D01*
X81422079Y-91365613D01*
X81432044Y-91344543D01*
X81444026Y-91324552D01*
X81457910Y-91305832D01*
X81473562Y-91288562D01*
X81490832Y-91272910D01*
X81509552Y-91259026D01*
X81529543Y-91247044D01*
X81550613Y-91237079D01*
X81572557Y-91229227D01*
X81595166Y-91223563D01*
X81618221Y-91220144D01*
X81641500Y-91219000D01*
X82216500Y-91219000D01*
X82239779Y-91220144D01*
X82239779Y-91220144D01*
G37*
D13*
X81929000Y-91694000D03*
D12*
G36*
X83989779Y-91220144D02*
G01*
X84012834Y-91223563D01*
X84035443Y-91229227D01*
X84057387Y-91237079D01*
X84078457Y-91247044D01*
X84098448Y-91259026D01*
X84117168Y-91272910D01*
X84134438Y-91288562D01*
X84150090Y-91305832D01*
X84163974Y-91324552D01*
X84175956Y-91344543D01*
X84185921Y-91365613D01*
X84193773Y-91387557D01*
X84199437Y-91410166D01*
X84202856Y-91433221D01*
X84204000Y-91456500D01*
X84204000Y-91931500D01*
X84202856Y-91954779D01*
X84199437Y-91977834D01*
X84193773Y-92000443D01*
X84185921Y-92022387D01*
X84175956Y-92043457D01*
X84163974Y-92063448D01*
X84150090Y-92082168D01*
X84134438Y-92099438D01*
X84117168Y-92115090D01*
X84098448Y-92128974D01*
X84078457Y-92140956D01*
X84057387Y-92150921D01*
X84035443Y-92158773D01*
X84012834Y-92164437D01*
X83989779Y-92167856D01*
X83966500Y-92169000D01*
X83391500Y-92169000D01*
X83368221Y-92167856D01*
X83345166Y-92164437D01*
X83322557Y-92158773D01*
X83300613Y-92150921D01*
X83279543Y-92140956D01*
X83259552Y-92128974D01*
X83240832Y-92115090D01*
X83223562Y-92099438D01*
X83207910Y-92082168D01*
X83194026Y-92063448D01*
X83182044Y-92043457D01*
X83172079Y-92022387D01*
X83164227Y-92000443D01*
X83158563Y-91977834D01*
X83155144Y-91954779D01*
X83154000Y-91931500D01*
X83154000Y-91456500D01*
X83155144Y-91433221D01*
X83158563Y-91410166D01*
X83164227Y-91387557D01*
X83172079Y-91365613D01*
X83182044Y-91344543D01*
X83194026Y-91324552D01*
X83207910Y-91305832D01*
X83223562Y-91288562D01*
X83240832Y-91272910D01*
X83259552Y-91259026D01*
X83279543Y-91247044D01*
X83300613Y-91237079D01*
X83322557Y-91229227D01*
X83345166Y-91223563D01*
X83368221Y-91220144D01*
X83391500Y-91219000D01*
X83966500Y-91219000D01*
X83989779Y-91220144D01*
X83989779Y-91220144D01*
G37*
D13*
X83679000Y-91694000D03*
D11*
X92268000Y-88534000D03*
X92268000Y-87234000D03*
X94168000Y-87884000D03*
X92268000Y-87884000D03*
X94168000Y-87234000D03*
X94168000Y-88534000D03*
X43114000Y-90282000D03*
X43114000Y-91582000D03*
X41214000Y-90932000D03*
X43114000Y-90932000D03*
X41214000Y-91582000D03*
X41214000Y-90282000D03*
X94168000Y-90282000D03*
X94168000Y-91582000D03*
X92268000Y-90932000D03*
X94168000Y-90932000D03*
X92268000Y-91582000D03*
X92268000Y-90282000D03*
X24196000Y-90282000D03*
X24196000Y-91582000D03*
X26096000Y-90932000D03*
X24196000Y-90932000D03*
X26096000Y-91582000D03*
X26096000Y-90282000D03*
D12*
G36*
X15917779Y-91220144D02*
G01*
X15940834Y-91223563D01*
X15963443Y-91229227D01*
X15985387Y-91237079D01*
X16006457Y-91247044D01*
X16026448Y-91259026D01*
X16045168Y-91272910D01*
X16062438Y-91288562D01*
X16078090Y-91305832D01*
X16091974Y-91324552D01*
X16103956Y-91344543D01*
X16113921Y-91365613D01*
X16121773Y-91387557D01*
X16127437Y-91410166D01*
X16130856Y-91433221D01*
X16132000Y-91456500D01*
X16132000Y-91931500D01*
X16130856Y-91954779D01*
X16127437Y-91977834D01*
X16121773Y-92000443D01*
X16113921Y-92022387D01*
X16103956Y-92043457D01*
X16091974Y-92063448D01*
X16078090Y-92082168D01*
X16062438Y-92099438D01*
X16045168Y-92115090D01*
X16026448Y-92128974D01*
X16006457Y-92140956D01*
X15985387Y-92150921D01*
X15963443Y-92158773D01*
X15940834Y-92164437D01*
X15917779Y-92167856D01*
X15894500Y-92169000D01*
X15319500Y-92169000D01*
X15296221Y-92167856D01*
X15273166Y-92164437D01*
X15250557Y-92158773D01*
X15228613Y-92150921D01*
X15207543Y-92140956D01*
X15187552Y-92128974D01*
X15168832Y-92115090D01*
X15151562Y-92099438D01*
X15135910Y-92082168D01*
X15122026Y-92063448D01*
X15110044Y-92043457D01*
X15100079Y-92022387D01*
X15092227Y-92000443D01*
X15086563Y-91977834D01*
X15083144Y-91954779D01*
X15082000Y-91931500D01*
X15082000Y-91456500D01*
X15083144Y-91433221D01*
X15086563Y-91410166D01*
X15092227Y-91387557D01*
X15100079Y-91365613D01*
X15110044Y-91344543D01*
X15122026Y-91324552D01*
X15135910Y-91305832D01*
X15151562Y-91288562D01*
X15168832Y-91272910D01*
X15187552Y-91259026D01*
X15207543Y-91247044D01*
X15228613Y-91237079D01*
X15250557Y-91229227D01*
X15273166Y-91223563D01*
X15296221Y-91220144D01*
X15319500Y-91219000D01*
X15894500Y-91219000D01*
X15917779Y-91220144D01*
X15917779Y-91220144D01*
G37*
D13*
X15607000Y-91694000D03*
D12*
G36*
X14167779Y-91220144D02*
G01*
X14190834Y-91223563D01*
X14213443Y-91229227D01*
X14235387Y-91237079D01*
X14256457Y-91247044D01*
X14276448Y-91259026D01*
X14295168Y-91272910D01*
X14312438Y-91288562D01*
X14328090Y-91305832D01*
X14341974Y-91324552D01*
X14353956Y-91344543D01*
X14363921Y-91365613D01*
X14371773Y-91387557D01*
X14377437Y-91410166D01*
X14380856Y-91433221D01*
X14382000Y-91456500D01*
X14382000Y-91931500D01*
X14380856Y-91954779D01*
X14377437Y-91977834D01*
X14371773Y-92000443D01*
X14363921Y-92022387D01*
X14353956Y-92043457D01*
X14341974Y-92063448D01*
X14328090Y-92082168D01*
X14312438Y-92099438D01*
X14295168Y-92115090D01*
X14276448Y-92128974D01*
X14256457Y-92140956D01*
X14235387Y-92150921D01*
X14213443Y-92158773D01*
X14190834Y-92164437D01*
X14167779Y-92167856D01*
X14144500Y-92169000D01*
X13569500Y-92169000D01*
X13546221Y-92167856D01*
X13523166Y-92164437D01*
X13500557Y-92158773D01*
X13478613Y-92150921D01*
X13457543Y-92140956D01*
X13437552Y-92128974D01*
X13418832Y-92115090D01*
X13401562Y-92099438D01*
X13385910Y-92082168D01*
X13372026Y-92063448D01*
X13360044Y-92043457D01*
X13350079Y-92022387D01*
X13342227Y-92000443D01*
X13336563Y-91977834D01*
X13333144Y-91954779D01*
X13332000Y-91931500D01*
X13332000Y-91456500D01*
X13333144Y-91433221D01*
X13336563Y-91410166D01*
X13342227Y-91387557D01*
X13350079Y-91365613D01*
X13360044Y-91344543D01*
X13372026Y-91324552D01*
X13385910Y-91305832D01*
X13401562Y-91288562D01*
X13418832Y-91272910D01*
X13437552Y-91259026D01*
X13457543Y-91247044D01*
X13478613Y-91237079D01*
X13500557Y-91229227D01*
X13523166Y-91223563D01*
X13546221Y-91220144D01*
X13569500Y-91219000D01*
X14144500Y-91219000D01*
X14167779Y-91220144D01*
X14167779Y-91220144D01*
G37*
D13*
X13857000Y-91694000D03*
D11*
X26096000Y-94122000D03*
X26096000Y-92822000D03*
X24196000Y-93472000D03*
X26096000Y-93472000D03*
X24196000Y-92822000D03*
X24196000Y-94122000D03*
X41214000Y-88534000D03*
X41214000Y-87234000D03*
X43114000Y-87884000D03*
X41214000Y-87884000D03*
X43114000Y-87234000D03*
X43114000Y-88534000D03*
D10*
X17791000Y-94178000D03*
X18441000Y-94178000D03*
X19091000Y-94178000D03*
X19741000Y-94178000D03*
X20391000Y-94178000D03*
X21041000Y-94178000D03*
X21691000Y-94178000D03*
X22341000Y-94178000D03*
X22341000Y-87178000D03*
X21691000Y-87178000D03*
X21041000Y-87178000D03*
X20391000Y-87178000D03*
X19741000Y-87178000D03*
X19091000Y-87178000D03*
X18441000Y-87178000D03*
X17791000Y-87178000D03*
X34809000Y-87178000D03*
X35459000Y-87178000D03*
X36109000Y-87178000D03*
X36759000Y-87178000D03*
X37409000Y-87178000D03*
X38059000Y-87178000D03*
X38709000Y-87178000D03*
X39359000Y-87178000D03*
X39359000Y-94178000D03*
X38709000Y-94178000D03*
X38059000Y-94178000D03*
X37409000Y-94178000D03*
X36759000Y-94178000D03*
X36109000Y-94178000D03*
X35459000Y-94178000D03*
X34809000Y-94178000D03*
X68845000Y-69906000D03*
X69495000Y-69906000D03*
X70145000Y-69906000D03*
X70795000Y-69906000D03*
X71445000Y-69906000D03*
X72095000Y-69906000D03*
X72745000Y-69906000D03*
X73395000Y-69906000D03*
X73395000Y-76906000D03*
X72745000Y-76906000D03*
X72095000Y-76906000D03*
X71445000Y-76906000D03*
X70795000Y-76906000D03*
X70145000Y-76906000D03*
X69495000Y-76906000D03*
X68845000Y-76906000D03*
D11*
X41214000Y-76850000D03*
X41214000Y-75550000D03*
X43114000Y-76200000D03*
X41214000Y-76200000D03*
X43114000Y-75550000D03*
X43114000Y-76850000D03*
X26096000Y-71262000D03*
X26096000Y-69962000D03*
X24196000Y-70612000D03*
X26096000Y-70612000D03*
X24196000Y-69962000D03*
X24196000Y-71262000D03*
X60132000Y-73010000D03*
X60132000Y-74310000D03*
X58232000Y-73660000D03*
X60132000Y-73660000D03*
X58232000Y-74310000D03*
X58232000Y-73010000D03*
X58232000Y-76850000D03*
X58232000Y-75550000D03*
X60132000Y-76200000D03*
X58232000Y-76200000D03*
X60132000Y-75550000D03*
X60132000Y-76850000D03*
D10*
X51827000Y-69906000D03*
X52477000Y-69906000D03*
X53127000Y-69906000D03*
X53777000Y-69906000D03*
X54427000Y-69906000D03*
X55077000Y-69906000D03*
X55727000Y-69906000D03*
X56377000Y-69906000D03*
X56377000Y-76906000D03*
X55727000Y-76906000D03*
X55077000Y-76906000D03*
X54427000Y-76906000D03*
X53777000Y-76906000D03*
X53127000Y-76906000D03*
X52477000Y-76906000D03*
X51827000Y-76906000D03*
D12*
G36*
X48203779Y-73948144D02*
G01*
X48226834Y-73951563D01*
X48249443Y-73957227D01*
X48271387Y-73965079D01*
X48292457Y-73975044D01*
X48312448Y-73987026D01*
X48331168Y-74000910D01*
X48348438Y-74016562D01*
X48364090Y-74033832D01*
X48377974Y-74052552D01*
X48389956Y-74072543D01*
X48399921Y-74093613D01*
X48407773Y-74115557D01*
X48413437Y-74138166D01*
X48416856Y-74161221D01*
X48418000Y-74184500D01*
X48418000Y-74659500D01*
X48416856Y-74682779D01*
X48413437Y-74705834D01*
X48407773Y-74728443D01*
X48399921Y-74750387D01*
X48389956Y-74771457D01*
X48377974Y-74791448D01*
X48364090Y-74810168D01*
X48348438Y-74827438D01*
X48331168Y-74843090D01*
X48312448Y-74856974D01*
X48292457Y-74868956D01*
X48271387Y-74878921D01*
X48249443Y-74886773D01*
X48226834Y-74892437D01*
X48203779Y-74895856D01*
X48180500Y-74897000D01*
X47605500Y-74897000D01*
X47582221Y-74895856D01*
X47559166Y-74892437D01*
X47536557Y-74886773D01*
X47514613Y-74878921D01*
X47493543Y-74868956D01*
X47473552Y-74856974D01*
X47454832Y-74843090D01*
X47437562Y-74827438D01*
X47421910Y-74810168D01*
X47408026Y-74791448D01*
X47396044Y-74771457D01*
X47386079Y-74750387D01*
X47378227Y-74728443D01*
X47372563Y-74705834D01*
X47369144Y-74682779D01*
X47368000Y-74659500D01*
X47368000Y-74184500D01*
X47369144Y-74161221D01*
X47372563Y-74138166D01*
X47378227Y-74115557D01*
X47386079Y-74093613D01*
X47396044Y-74072543D01*
X47408026Y-74052552D01*
X47421910Y-74033832D01*
X47437562Y-74016562D01*
X47454832Y-74000910D01*
X47473552Y-73987026D01*
X47493543Y-73975044D01*
X47514613Y-73965079D01*
X47536557Y-73957227D01*
X47559166Y-73951563D01*
X47582221Y-73948144D01*
X47605500Y-73947000D01*
X48180500Y-73947000D01*
X48203779Y-73948144D01*
X48203779Y-73948144D01*
G37*
D13*
X47893000Y-74422000D03*
D12*
G36*
X49953779Y-73948144D02*
G01*
X49976834Y-73951563D01*
X49999443Y-73957227D01*
X50021387Y-73965079D01*
X50042457Y-73975044D01*
X50062448Y-73987026D01*
X50081168Y-74000910D01*
X50098438Y-74016562D01*
X50114090Y-74033832D01*
X50127974Y-74052552D01*
X50139956Y-74072543D01*
X50149921Y-74093613D01*
X50157773Y-74115557D01*
X50163437Y-74138166D01*
X50166856Y-74161221D01*
X50168000Y-74184500D01*
X50168000Y-74659500D01*
X50166856Y-74682779D01*
X50163437Y-74705834D01*
X50157773Y-74728443D01*
X50149921Y-74750387D01*
X50139956Y-74771457D01*
X50127974Y-74791448D01*
X50114090Y-74810168D01*
X50098438Y-74827438D01*
X50081168Y-74843090D01*
X50062448Y-74856974D01*
X50042457Y-74868956D01*
X50021387Y-74878921D01*
X49999443Y-74886773D01*
X49976834Y-74892437D01*
X49953779Y-74895856D01*
X49930500Y-74897000D01*
X49355500Y-74897000D01*
X49332221Y-74895856D01*
X49309166Y-74892437D01*
X49286557Y-74886773D01*
X49264613Y-74878921D01*
X49243543Y-74868956D01*
X49223552Y-74856974D01*
X49204832Y-74843090D01*
X49187562Y-74827438D01*
X49171910Y-74810168D01*
X49158026Y-74791448D01*
X49146044Y-74771457D01*
X49136079Y-74750387D01*
X49128227Y-74728443D01*
X49122563Y-74705834D01*
X49119144Y-74682779D01*
X49118000Y-74659500D01*
X49118000Y-74184500D01*
X49119144Y-74161221D01*
X49122563Y-74138166D01*
X49128227Y-74115557D01*
X49136079Y-74093613D01*
X49146044Y-74072543D01*
X49158026Y-74052552D01*
X49171910Y-74033832D01*
X49187562Y-74016562D01*
X49204832Y-74000910D01*
X49223552Y-73987026D01*
X49243543Y-73975044D01*
X49264613Y-73965079D01*
X49286557Y-73957227D01*
X49309166Y-73951563D01*
X49332221Y-73948144D01*
X49355500Y-73947000D01*
X49930500Y-73947000D01*
X49953779Y-73948144D01*
X49953779Y-73948144D01*
G37*
D13*
X49643000Y-74422000D03*
D11*
X58232000Y-71262000D03*
X58232000Y-69962000D03*
X60132000Y-70612000D03*
X58232000Y-70612000D03*
X60132000Y-69962000D03*
X60132000Y-71262000D03*
X75250000Y-76850000D03*
X75250000Y-75550000D03*
X77150000Y-76200000D03*
X75250000Y-76200000D03*
X77150000Y-75550000D03*
X77150000Y-76850000D03*
D12*
G36*
X65221779Y-73948144D02*
G01*
X65244834Y-73951563D01*
X65267443Y-73957227D01*
X65289387Y-73965079D01*
X65310457Y-73975044D01*
X65330448Y-73987026D01*
X65349168Y-74000910D01*
X65366438Y-74016562D01*
X65382090Y-74033832D01*
X65395974Y-74052552D01*
X65407956Y-74072543D01*
X65417921Y-74093613D01*
X65425773Y-74115557D01*
X65431437Y-74138166D01*
X65434856Y-74161221D01*
X65436000Y-74184500D01*
X65436000Y-74659500D01*
X65434856Y-74682779D01*
X65431437Y-74705834D01*
X65425773Y-74728443D01*
X65417921Y-74750387D01*
X65407956Y-74771457D01*
X65395974Y-74791448D01*
X65382090Y-74810168D01*
X65366438Y-74827438D01*
X65349168Y-74843090D01*
X65330448Y-74856974D01*
X65310457Y-74868956D01*
X65289387Y-74878921D01*
X65267443Y-74886773D01*
X65244834Y-74892437D01*
X65221779Y-74895856D01*
X65198500Y-74897000D01*
X64623500Y-74897000D01*
X64600221Y-74895856D01*
X64577166Y-74892437D01*
X64554557Y-74886773D01*
X64532613Y-74878921D01*
X64511543Y-74868956D01*
X64491552Y-74856974D01*
X64472832Y-74843090D01*
X64455562Y-74827438D01*
X64439910Y-74810168D01*
X64426026Y-74791448D01*
X64414044Y-74771457D01*
X64404079Y-74750387D01*
X64396227Y-74728443D01*
X64390563Y-74705834D01*
X64387144Y-74682779D01*
X64386000Y-74659500D01*
X64386000Y-74184500D01*
X64387144Y-74161221D01*
X64390563Y-74138166D01*
X64396227Y-74115557D01*
X64404079Y-74093613D01*
X64414044Y-74072543D01*
X64426026Y-74052552D01*
X64439910Y-74033832D01*
X64455562Y-74016562D01*
X64472832Y-74000910D01*
X64491552Y-73987026D01*
X64511543Y-73975044D01*
X64532613Y-73965079D01*
X64554557Y-73957227D01*
X64577166Y-73951563D01*
X64600221Y-73948144D01*
X64623500Y-73947000D01*
X65198500Y-73947000D01*
X65221779Y-73948144D01*
X65221779Y-73948144D01*
G37*
D13*
X64911000Y-74422000D03*
D12*
G36*
X66971779Y-73948144D02*
G01*
X66994834Y-73951563D01*
X67017443Y-73957227D01*
X67039387Y-73965079D01*
X67060457Y-73975044D01*
X67080448Y-73987026D01*
X67099168Y-74000910D01*
X67116438Y-74016562D01*
X67132090Y-74033832D01*
X67145974Y-74052552D01*
X67157956Y-74072543D01*
X67167921Y-74093613D01*
X67175773Y-74115557D01*
X67181437Y-74138166D01*
X67184856Y-74161221D01*
X67186000Y-74184500D01*
X67186000Y-74659500D01*
X67184856Y-74682779D01*
X67181437Y-74705834D01*
X67175773Y-74728443D01*
X67167921Y-74750387D01*
X67157956Y-74771457D01*
X67145974Y-74791448D01*
X67132090Y-74810168D01*
X67116438Y-74827438D01*
X67099168Y-74843090D01*
X67080448Y-74856974D01*
X67060457Y-74868956D01*
X67039387Y-74878921D01*
X67017443Y-74886773D01*
X66994834Y-74892437D01*
X66971779Y-74895856D01*
X66948500Y-74897000D01*
X66373500Y-74897000D01*
X66350221Y-74895856D01*
X66327166Y-74892437D01*
X66304557Y-74886773D01*
X66282613Y-74878921D01*
X66261543Y-74868956D01*
X66241552Y-74856974D01*
X66222832Y-74843090D01*
X66205562Y-74827438D01*
X66189910Y-74810168D01*
X66176026Y-74791448D01*
X66164044Y-74771457D01*
X66154079Y-74750387D01*
X66146227Y-74728443D01*
X66140563Y-74705834D01*
X66137144Y-74682779D01*
X66136000Y-74659500D01*
X66136000Y-74184500D01*
X66137144Y-74161221D01*
X66140563Y-74138166D01*
X66146227Y-74115557D01*
X66154079Y-74093613D01*
X66164044Y-74072543D01*
X66176026Y-74052552D01*
X66189910Y-74033832D01*
X66205562Y-74016562D01*
X66222832Y-74000910D01*
X66241552Y-73987026D01*
X66261543Y-73975044D01*
X66282613Y-73965079D01*
X66304557Y-73957227D01*
X66327166Y-73951563D01*
X66350221Y-73948144D01*
X66373500Y-73947000D01*
X66948500Y-73947000D01*
X66971779Y-73948144D01*
X66971779Y-73948144D01*
G37*
D13*
X66661000Y-74422000D03*
D11*
X77150000Y-73010000D03*
X77150000Y-74310000D03*
X75250000Y-73660000D03*
X77150000Y-73660000D03*
X75250000Y-74310000D03*
X75250000Y-73010000D03*
X75250000Y-71262000D03*
X75250000Y-69962000D03*
X77150000Y-70612000D03*
X75250000Y-70612000D03*
X77150000Y-69962000D03*
X77150000Y-71262000D03*
D10*
X85863000Y-69906000D03*
X86513000Y-69906000D03*
X87163000Y-69906000D03*
X87813000Y-69906000D03*
X88463000Y-69906000D03*
X89113000Y-69906000D03*
X89763000Y-69906000D03*
X90413000Y-69906000D03*
X90413000Y-76906000D03*
X89763000Y-76906000D03*
X89113000Y-76906000D03*
X88463000Y-76906000D03*
X87813000Y-76906000D03*
X87163000Y-76906000D03*
X86513000Y-76906000D03*
X85863000Y-76906000D03*
D11*
X92268000Y-76850000D03*
X92268000Y-75550000D03*
X94168000Y-76200000D03*
X92268000Y-76200000D03*
X94168000Y-75550000D03*
X94168000Y-76850000D03*
D12*
G36*
X31185779Y-73948144D02*
G01*
X31208834Y-73951563D01*
X31231443Y-73957227D01*
X31253387Y-73965079D01*
X31274457Y-73975044D01*
X31294448Y-73987026D01*
X31313168Y-74000910D01*
X31330438Y-74016562D01*
X31346090Y-74033832D01*
X31359974Y-74052552D01*
X31371956Y-74072543D01*
X31381921Y-74093613D01*
X31389773Y-74115557D01*
X31395437Y-74138166D01*
X31398856Y-74161221D01*
X31400000Y-74184500D01*
X31400000Y-74659500D01*
X31398856Y-74682779D01*
X31395437Y-74705834D01*
X31389773Y-74728443D01*
X31381921Y-74750387D01*
X31371956Y-74771457D01*
X31359974Y-74791448D01*
X31346090Y-74810168D01*
X31330438Y-74827438D01*
X31313168Y-74843090D01*
X31294448Y-74856974D01*
X31274457Y-74868956D01*
X31253387Y-74878921D01*
X31231443Y-74886773D01*
X31208834Y-74892437D01*
X31185779Y-74895856D01*
X31162500Y-74897000D01*
X30587500Y-74897000D01*
X30564221Y-74895856D01*
X30541166Y-74892437D01*
X30518557Y-74886773D01*
X30496613Y-74878921D01*
X30475543Y-74868956D01*
X30455552Y-74856974D01*
X30436832Y-74843090D01*
X30419562Y-74827438D01*
X30403910Y-74810168D01*
X30390026Y-74791448D01*
X30378044Y-74771457D01*
X30368079Y-74750387D01*
X30360227Y-74728443D01*
X30354563Y-74705834D01*
X30351144Y-74682779D01*
X30350000Y-74659500D01*
X30350000Y-74184500D01*
X30351144Y-74161221D01*
X30354563Y-74138166D01*
X30360227Y-74115557D01*
X30368079Y-74093613D01*
X30378044Y-74072543D01*
X30390026Y-74052552D01*
X30403910Y-74033832D01*
X30419562Y-74016562D01*
X30436832Y-74000910D01*
X30455552Y-73987026D01*
X30475543Y-73975044D01*
X30496613Y-73965079D01*
X30518557Y-73957227D01*
X30541166Y-73951563D01*
X30564221Y-73948144D01*
X30587500Y-73947000D01*
X31162500Y-73947000D01*
X31185779Y-73948144D01*
X31185779Y-73948144D01*
G37*
D13*
X30875000Y-74422000D03*
D12*
G36*
X32935779Y-73948144D02*
G01*
X32958834Y-73951563D01*
X32981443Y-73957227D01*
X33003387Y-73965079D01*
X33024457Y-73975044D01*
X33044448Y-73987026D01*
X33063168Y-74000910D01*
X33080438Y-74016562D01*
X33096090Y-74033832D01*
X33109974Y-74052552D01*
X33121956Y-74072543D01*
X33131921Y-74093613D01*
X33139773Y-74115557D01*
X33145437Y-74138166D01*
X33148856Y-74161221D01*
X33150000Y-74184500D01*
X33150000Y-74659500D01*
X33148856Y-74682779D01*
X33145437Y-74705834D01*
X33139773Y-74728443D01*
X33131921Y-74750387D01*
X33121956Y-74771457D01*
X33109974Y-74791448D01*
X33096090Y-74810168D01*
X33080438Y-74827438D01*
X33063168Y-74843090D01*
X33044448Y-74856974D01*
X33024457Y-74868956D01*
X33003387Y-74878921D01*
X32981443Y-74886773D01*
X32958834Y-74892437D01*
X32935779Y-74895856D01*
X32912500Y-74897000D01*
X32337500Y-74897000D01*
X32314221Y-74895856D01*
X32291166Y-74892437D01*
X32268557Y-74886773D01*
X32246613Y-74878921D01*
X32225543Y-74868956D01*
X32205552Y-74856974D01*
X32186832Y-74843090D01*
X32169562Y-74827438D01*
X32153910Y-74810168D01*
X32140026Y-74791448D01*
X32128044Y-74771457D01*
X32118079Y-74750387D01*
X32110227Y-74728443D01*
X32104563Y-74705834D01*
X32101144Y-74682779D01*
X32100000Y-74659500D01*
X32100000Y-74184500D01*
X32101144Y-74161221D01*
X32104563Y-74138166D01*
X32110227Y-74115557D01*
X32118079Y-74093613D01*
X32128044Y-74072543D01*
X32140026Y-74052552D01*
X32153910Y-74033832D01*
X32169562Y-74016562D01*
X32186832Y-74000910D01*
X32205552Y-73987026D01*
X32225543Y-73975044D01*
X32246613Y-73965079D01*
X32268557Y-73957227D01*
X32291166Y-73951563D01*
X32314221Y-73948144D01*
X32337500Y-73947000D01*
X32912500Y-73947000D01*
X32935779Y-73948144D01*
X32935779Y-73948144D01*
G37*
D13*
X32625000Y-74422000D03*
D12*
G36*
X82239779Y-73948144D02*
G01*
X82262834Y-73951563D01*
X82285443Y-73957227D01*
X82307387Y-73965079D01*
X82328457Y-73975044D01*
X82348448Y-73987026D01*
X82367168Y-74000910D01*
X82384438Y-74016562D01*
X82400090Y-74033832D01*
X82413974Y-74052552D01*
X82425956Y-74072543D01*
X82435921Y-74093613D01*
X82443773Y-74115557D01*
X82449437Y-74138166D01*
X82452856Y-74161221D01*
X82454000Y-74184500D01*
X82454000Y-74659500D01*
X82452856Y-74682779D01*
X82449437Y-74705834D01*
X82443773Y-74728443D01*
X82435921Y-74750387D01*
X82425956Y-74771457D01*
X82413974Y-74791448D01*
X82400090Y-74810168D01*
X82384438Y-74827438D01*
X82367168Y-74843090D01*
X82348448Y-74856974D01*
X82328457Y-74868956D01*
X82307387Y-74878921D01*
X82285443Y-74886773D01*
X82262834Y-74892437D01*
X82239779Y-74895856D01*
X82216500Y-74897000D01*
X81641500Y-74897000D01*
X81618221Y-74895856D01*
X81595166Y-74892437D01*
X81572557Y-74886773D01*
X81550613Y-74878921D01*
X81529543Y-74868956D01*
X81509552Y-74856974D01*
X81490832Y-74843090D01*
X81473562Y-74827438D01*
X81457910Y-74810168D01*
X81444026Y-74791448D01*
X81432044Y-74771457D01*
X81422079Y-74750387D01*
X81414227Y-74728443D01*
X81408563Y-74705834D01*
X81405144Y-74682779D01*
X81404000Y-74659500D01*
X81404000Y-74184500D01*
X81405144Y-74161221D01*
X81408563Y-74138166D01*
X81414227Y-74115557D01*
X81422079Y-74093613D01*
X81432044Y-74072543D01*
X81444026Y-74052552D01*
X81457910Y-74033832D01*
X81473562Y-74016562D01*
X81490832Y-74000910D01*
X81509552Y-73987026D01*
X81529543Y-73975044D01*
X81550613Y-73965079D01*
X81572557Y-73957227D01*
X81595166Y-73951563D01*
X81618221Y-73948144D01*
X81641500Y-73947000D01*
X82216500Y-73947000D01*
X82239779Y-73948144D01*
X82239779Y-73948144D01*
G37*
D13*
X81929000Y-74422000D03*
D12*
G36*
X83989779Y-73948144D02*
G01*
X84012834Y-73951563D01*
X84035443Y-73957227D01*
X84057387Y-73965079D01*
X84078457Y-73975044D01*
X84098448Y-73987026D01*
X84117168Y-74000910D01*
X84134438Y-74016562D01*
X84150090Y-74033832D01*
X84163974Y-74052552D01*
X84175956Y-74072543D01*
X84185921Y-74093613D01*
X84193773Y-74115557D01*
X84199437Y-74138166D01*
X84202856Y-74161221D01*
X84204000Y-74184500D01*
X84204000Y-74659500D01*
X84202856Y-74682779D01*
X84199437Y-74705834D01*
X84193773Y-74728443D01*
X84185921Y-74750387D01*
X84175956Y-74771457D01*
X84163974Y-74791448D01*
X84150090Y-74810168D01*
X84134438Y-74827438D01*
X84117168Y-74843090D01*
X84098448Y-74856974D01*
X84078457Y-74868956D01*
X84057387Y-74878921D01*
X84035443Y-74886773D01*
X84012834Y-74892437D01*
X83989779Y-74895856D01*
X83966500Y-74897000D01*
X83391500Y-74897000D01*
X83368221Y-74895856D01*
X83345166Y-74892437D01*
X83322557Y-74886773D01*
X83300613Y-74878921D01*
X83279543Y-74868956D01*
X83259552Y-74856974D01*
X83240832Y-74843090D01*
X83223562Y-74827438D01*
X83207910Y-74810168D01*
X83194026Y-74791448D01*
X83182044Y-74771457D01*
X83172079Y-74750387D01*
X83164227Y-74728443D01*
X83158563Y-74705834D01*
X83155144Y-74682779D01*
X83154000Y-74659500D01*
X83154000Y-74184500D01*
X83155144Y-74161221D01*
X83158563Y-74138166D01*
X83164227Y-74115557D01*
X83172079Y-74093613D01*
X83182044Y-74072543D01*
X83194026Y-74052552D01*
X83207910Y-74033832D01*
X83223562Y-74016562D01*
X83240832Y-74000910D01*
X83259552Y-73987026D01*
X83279543Y-73975044D01*
X83300613Y-73965079D01*
X83322557Y-73957227D01*
X83345166Y-73951563D01*
X83368221Y-73948144D01*
X83391500Y-73947000D01*
X83966500Y-73947000D01*
X83989779Y-73948144D01*
X83989779Y-73948144D01*
G37*
D13*
X83679000Y-74422000D03*
D11*
X92268000Y-71262000D03*
X92268000Y-69962000D03*
X94168000Y-70612000D03*
X92268000Y-70612000D03*
X94168000Y-69962000D03*
X94168000Y-71262000D03*
X43114000Y-73010000D03*
X43114000Y-74310000D03*
X41214000Y-73660000D03*
X43114000Y-73660000D03*
X41214000Y-74310000D03*
X41214000Y-73010000D03*
X94168000Y-73010000D03*
X94168000Y-74310000D03*
X92268000Y-73660000D03*
X94168000Y-73660000D03*
X92268000Y-74310000D03*
X92268000Y-73010000D03*
X24196000Y-73010000D03*
X24196000Y-74310000D03*
X26096000Y-73660000D03*
X24196000Y-73660000D03*
X26096000Y-74310000D03*
X26096000Y-73010000D03*
D12*
G36*
X15917779Y-73948144D02*
G01*
X15940834Y-73951563D01*
X15963443Y-73957227D01*
X15985387Y-73965079D01*
X16006457Y-73975044D01*
X16026448Y-73987026D01*
X16045168Y-74000910D01*
X16062438Y-74016562D01*
X16078090Y-74033832D01*
X16091974Y-74052552D01*
X16103956Y-74072543D01*
X16113921Y-74093613D01*
X16121773Y-74115557D01*
X16127437Y-74138166D01*
X16130856Y-74161221D01*
X16132000Y-74184500D01*
X16132000Y-74659500D01*
X16130856Y-74682779D01*
X16127437Y-74705834D01*
X16121773Y-74728443D01*
X16113921Y-74750387D01*
X16103956Y-74771457D01*
X16091974Y-74791448D01*
X16078090Y-74810168D01*
X16062438Y-74827438D01*
X16045168Y-74843090D01*
X16026448Y-74856974D01*
X16006457Y-74868956D01*
X15985387Y-74878921D01*
X15963443Y-74886773D01*
X15940834Y-74892437D01*
X15917779Y-74895856D01*
X15894500Y-74897000D01*
X15319500Y-74897000D01*
X15296221Y-74895856D01*
X15273166Y-74892437D01*
X15250557Y-74886773D01*
X15228613Y-74878921D01*
X15207543Y-74868956D01*
X15187552Y-74856974D01*
X15168832Y-74843090D01*
X15151562Y-74827438D01*
X15135910Y-74810168D01*
X15122026Y-74791448D01*
X15110044Y-74771457D01*
X15100079Y-74750387D01*
X15092227Y-74728443D01*
X15086563Y-74705834D01*
X15083144Y-74682779D01*
X15082000Y-74659500D01*
X15082000Y-74184500D01*
X15083144Y-74161221D01*
X15086563Y-74138166D01*
X15092227Y-74115557D01*
X15100079Y-74093613D01*
X15110044Y-74072543D01*
X15122026Y-74052552D01*
X15135910Y-74033832D01*
X15151562Y-74016562D01*
X15168832Y-74000910D01*
X15187552Y-73987026D01*
X15207543Y-73975044D01*
X15228613Y-73965079D01*
X15250557Y-73957227D01*
X15273166Y-73951563D01*
X15296221Y-73948144D01*
X15319500Y-73947000D01*
X15894500Y-73947000D01*
X15917779Y-73948144D01*
X15917779Y-73948144D01*
G37*
D13*
X15607000Y-74422000D03*
D12*
G36*
X14167779Y-73948144D02*
G01*
X14190834Y-73951563D01*
X14213443Y-73957227D01*
X14235387Y-73965079D01*
X14256457Y-73975044D01*
X14276448Y-73987026D01*
X14295168Y-74000910D01*
X14312438Y-74016562D01*
X14328090Y-74033832D01*
X14341974Y-74052552D01*
X14353956Y-74072543D01*
X14363921Y-74093613D01*
X14371773Y-74115557D01*
X14377437Y-74138166D01*
X14380856Y-74161221D01*
X14382000Y-74184500D01*
X14382000Y-74659500D01*
X14380856Y-74682779D01*
X14377437Y-74705834D01*
X14371773Y-74728443D01*
X14363921Y-74750387D01*
X14353956Y-74771457D01*
X14341974Y-74791448D01*
X14328090Y-74810168D01*
X14312438Y-74827438D01*
X14295168Y-74843090D01*
X14276448Y-74856974D01*
X14256457Y-74868956D01*
X14235387Y-74878921D01*
X14213443Y-74886773D01*
X14190834Y-74892437D01*
X14167779Y-74895856D01*
X14144500Y-74897000D01*
X13569500Y-74897000D01*
X13546221Y-74895856D01*
X13523166Y-74892437D01*
X13500557Y-74886773D01*
X13478613Y-74878921D01*
X13457543Y-74868956D01*
X13437552Y-74856974D01*
X13418832Y-74843090D01*
X13401562Y-74827438D01*
X13385910Y-74810168D01*
X13372026Y-74791448D01*
X13360044Y-74771457D01*
X13350079Y-74750387D01*
X13342227Y-74728443D01*
X13336563Y-74705834D01*
X13333144Y-74682779D01*
X13332000Y-74659500D01*
X13332000Y-74184500D01*
X13333144Y-74161221D01*
X13336563Y-74138166D01*
X13342227Y-74115557D01*
X13350079Y-74093613D01*
X13360044Y-74072543D01*
X13372026Y-74052552D01*
X13385910Y-74033832D01*
X13401562Y-74016562D01*
X13418832Y-74000910D01*
X13437552Y-73987026D01*
X13457543Y-73975044D01*
X13478613Y-73965079D01*
X13500557Y-73957227D01*
X13523166Y-73951563D01*
X13546221Y-73948144D01*
X13569500Y-73947000D01*
X14144500Y-73947000D01*
X14167779Y-73948144D01*
X14167779Y-73948144D01*
G37*
D13*
X13857000Y-74422000D03*
D11*
X26096000Y-76850000D03*
X26096000Y-75550000D03*
X24196000Y-76200000D03*
X26096000Y-76200000D03*
X24196000Y-75550000D03*
X24196000Y-76850000D03*
X41214000Y-71262000D03*
X41214000Y-69962000D03*
X43114000Y-70612000D03*
X41214000Y-70612000D03*
X43114000Y-69962000D03*
X43114000Y-71262000D03*
D10*
X17791000Y-76906000D03*
X18441000Y-76906000D03*
X19091000Y-76906000D03*
X19741000Y-76906000D03*
X20391000Y-76906000D03*
X21041000Y-76906000D03*
X21691000Y-76906000D03*
X22341000Y-76906000D03*
X22341000Y-69906000D03*
X21691000Y-69906000D03*
X21041000Y-69906000D03*
X20391000Y-69906000D03*
X19741000Y-69906000D03*
X19091000Y-69906000D03*
X18441000Y-69906000D03*
X17791000Y-69906000D03*
X34809000Y-69906000D03*
X35459000Y-69906000D03*
X36109000Y-69906000D03*
X36759000Y-69906000D03*
X37409000Y-69906000D03*
X38059000Y-69906000D03*
X38709000Y-69906000D03*
X39359000Y-69906000D03*
X39359000Y-76906000D03*
X38709000Y-76906000D03*
X38059000Y-76906000D03*
X37409000Y-76906000D03*
X36759000Y-76906000D03*
X36109000Y-76906000D03*
X35459000Y-76906000D03*
X34809000Y-76906000D03*
X68845000Y-52634000D03*
X69495000Y-52634000D03*
X70145000Y-52634000D03*
X70795000Y-52634000D03*
X71445000Y-52634000D03*
X72095000Y-52634000D03*
X72745000Y-52634000D03*
X73395000Y-52634000D03*
X73395000Y-59634000D03*
X72745000Y-59634000D03*
X72095000Y-59634000D03*
X71445000Y-59634000D03*
X70795000Y-59634000D03*
X70145000Y-59634000D03*
X69495000Y-59634000D03*
X68845000Y-59634000D03*
D11*
X41214000Y-59578000D03*
X41214000Y-58278000D03*
X43114000Y-58928000D03*
X41214000Y-58928000D03*
X43114000Y-58278000D03*
X43114000Y-59578000D03*
X26096000Y-53990000D03*
X26096000Y-52690000D03*
X24196000Y-53340000D03*
X26096000Y-53340000D03*
X24196000Y-52690000D03*
X24196000Y-53990000D03*
X60132000Y-55738000D03*
X60132000Y-57038000D03*
X58232000Y-56388000D03*
X60132000Y-56388000D03*
X58232000Y-57038000D03*
X58232000Y-55738000D03*
X58232000Y-59578000D03*
X58232000Y-58278000D03*
X60132000Y-58928000D03*
X58232000Y-58928000D03*
X60132000Y-58278000D03*
X60132000Y-59578000D03*
D10*
X51827000Y-52634000D03*
X52477000Y-52634000D03*
X53127000Y-52634000D03*
X53777000Y-52634000D03*
X54427000Y-52634000D03*
X55077000Y-52634000D03*
X55727000Y-52634000D03*
X56377000Y-52634000D03*
X56377000Y-59634000D03*
X55727000Y-59634000D03*
X55077000Y-59634000D03*
X54427000Y-59634000D03*
X53777000Y-59634000D03*
X53127000Y-59634000D03*
X52477000Y-59634000D03*
X51827000Y-59634000D03*
D12*
G36*
X48203779Y-56676144D02*
G01*
X48226834Y-56679563D01*
X48249443Y-56685227D01*
X48271387Y-56693079D01*
X48292457Y-56703044D01*
X48312448Y-56715026D01*
X48331168Y-56728910D01*
X48348438Y-56744562D01*
X48364090Y-56761832D01*
X48377974Y-56780552D01*
X48389956Y-56800543D01*
X48399921Y-56821613D01*
X48407773Y-56843557D01*
X48413437Y-56866166D01*
X48416856Y-56889221D01*
X48418000Y-56912500D01*
X48418000Y-57387500D01*
X48416856Y-57410779D01*
X48413437Y-57433834D01*
X48407773Y-57456443D01*
X48399921Y-57478387D01*
X48389956Y-57499457D01*
X48377974Y-57519448D01*
X48364090Y-57538168D01*
X48348438Y-57555438D01*
X48331168Y-57571090D01*
X48312448Y-57584974D01*
X48292457Y-57596956D01*
X48271387Y-57606921D01*
X48249443Y-57614773D01*
X48226834Y-57620437D01*
X48203779Y-57623856D01*
X48180500Y-57625000D01*
X47605500Y-57625000D01*
X47582221Y-57623856D01*
X47559166Y-57620437D01*
X47536557Y-57614773D01*
X47514613Y-57606921D01*
X47493543Y-57596956D01*
X47473552Y-57584974D01*
X47454832Y-57571090D01*
X47437562Y-57555438D01*
X47421910Y-57538168D01*
X47408026Y-57519448D01*
X47396044Y-57499457D01*
X47386079Y-57478387D01*
X47378227Y-57456443D01*
X47372563Y-57433834D01*
X47369144Y-57410779D01*
X47368000Y-57387500D01*
X47368000Y-56912500D01*
X47369144Y-56889221D01*
X47372563Y-56866166D01*
X47378227Y-56843557D01*
X47386079Y-56821613D01*
X47396044Y-56800543D01*
X47408026Y-56780552D01*
X47421910Y-56761832D01*
X47437562Y-56744562D01*
X47454832Y-56728910D01*
X47473552Y-56715026D01*
X47493543Y-56703044D01*
X47514613Y-56693079D01*
X47536557Y-56685227D01*
X47559166Y-56679563D01*
X47582221Y-56676144D01*
X47605500Y-56675000D01*
X48180500Y-56675000D01*
X48203779Y-56676144D01*
X48203779Y-56676144D01*
G37*
D13*
X47893000Y-57150000D03*
D12*
G36*
X49953779Y-56676144D02*
G01*
X49976834Y-56679563D01*
X49999443Y-56685227D01*
X50021387Y-56693079D01*
X50042457Y-56703044D01*
X50062448Y-56715026D01*
X50081168Y-56728910D01*
X50098438Y-56744562D01*
X50114090Y-56761832D01*
X50127974Y-56780552D01*
X50139956Y-56800543D01*
X50149921Y-56821613D01*
X50157773Y-56843557D01*
X50163437Y-56866166D01*
X50166856Y-56889221D01*
X50168000Y-56912500D01*
X50168000Y-57387500D01*
X50166856Y-57410779D01*
X50163437Y-57433834D01*
X50157773Y-57456443D01*
X50149921Y-57478387D01*
X50139956Y-57499457D01*
X50127974Y-57519448D01*
X50114090Y-57538168D01*
X50098438Y-57555438D01*
X50081168Y-57571090D01*
X50062448Y-57584974D01*
X50042457Y-57596956D01*
X50021387Y-57606921D01*
X49999443Y-57614773D01*
X49976834Y-57620437D01*
X49953779Y-57623856D01*
X49930500Y-57625000D01*
X49355500Y-57625000D01*
X49332221Y-57623856D01*
X49309166Y-57620437D01*
X49286557Y-57614773D01*
X49264613Y-57606921D01*
X49243543Y-57596956D01*
X49223552Y-57584974D01*
X49204832Y-57571090D01*
X49187562Y-57555438D01*
X49171910Y-57538168D01*
X49158026Y-57519448D01*
X49146044Y-57499457D01*
X49136079Y-57478387D01*
X49128227Y-57456443D01*
X49122563Y-57433834D01*
X49119144Y-57410779D01*
X49118000Y-57387500D01*
X49118000Y-56912500D01*
X49119144Y-56889221D01*
X49122563Y-56866166D01*
X49128227Y-56843557D01*
X49136079Y-56821613D01*
X49146044Y-56800543D01*
X49158026Y-56780552D01*
X49171910Y-56761832D01*
X49187562Y-56744562D01*
X49204832Y-56728910D01*
X49223552Y-56715026D01*
X49243543Y-56703044D01*
X49264613Y-56693079D01*
X49286557Y-56685227D01*
X49309166Y-56679563D01*
X49332221Y-56676144D01*
X49355500Y-56675000D01*
X49930500Y-56675000D01*
X49953779Y-56676144D01*
X49953779Y-56676144D01*
G37*
D13*
X49643000Y-57150000D03*
D11*
X58232000Y-53990000D03*
X58232000Y-52690000D03*
X60132000Y-53340000D03*
X58232000Y-53340000D03*
X60132000Y-52690000D03*
X60132000Y-53990000D03*
X75250000Y-59578000D03*
X75250000Y-58278000D03*
X77150000Y-58928000D03*
X75250000Y-58928000D03*
X77150000Y-58278000D03*
X77150000Y-59578000D03*
D12*
G36*
X65221779Y-56676144D02*
G01*
X65244834Y-56679563D01*
X65267443Y-56685227D01*
X65289387Y-56693079D01*
X65310457Y-56703044D01*
X65330448Y-56715026D01*
X65349168Y-56728910D01*
X65366438Y-56744562D01*
X65382090Y-56761832D01*
X65395974Y-56780552D01*
X65407956Y-56800543D01*
X65417921Y-56821613D01*
X65425773Y-56843557D01*
X65431437Y-56866166D01*
X65434856Y-56889221D01*
X65436000Y-56912500D01*
X65436000Y-57387500D01*
X65434856Y-57410779D01*
X65431437Y-57433834D01*
X65425773Y-57456443D01*
X65417921Y-57478387D01*
X65407956Y-57499457D01*
X65395974Y-57519448D01*
X65382090Y-57538168D01*
X65366438Y-57555438D01*
X65349168Y-57571090D01*
X65330448Y-57584974D01*
X65310457Y-57596956D01*
X65289387Y-57606921D01*
X65267443Y-57614773D01*
X65244834Y-57620437D01*
X65221779Y-57623856D01*
X65198500Y-57625000D01*
X64623500Y-57625000D01*
X64600221Y-57623856D01*
X64577166Y-57620437D01*
X64554557Y-57614773D01*
X64532613Y-57606921D01*
X64511543Y-57596956D01*
X64491552Y-57584974D01*
X64472832Y-57571090D01*
X64455562Y-57555438D01*
X64439910Y-57538168D01*
X64426026Y-57519448D01*
X64414044Y-57499457D01*
X64404079Y-57478387D01*
X64396227Y-57456443D01*
X64390563Y-57433834D01*
X64387144Y-57410779D01*
X64386000Y-57387500D01*
X64386000Y-56912500D01*
X64387144Y-56889221D01*
X64390563Y-56866166D01*
X64396227Y-56843557D01*
X64404079Y-56821613D01*
X64414044Y-56800543D01*
X64426026Y-56780552D01*
X64439910Y-56761832D01*
X64455562Y-56744562D01*
X64472832Y-56728910D01*
X64491552Y-56715026D01*
X64511543Y-56703044D01*
X64532613Y-56693079D01*
X64554557Y-56685227D01*
X64577166Y-56679563D01*
X64600221Y-56676144D01*
X64623500Y-56675000D01*
X65198500Y-56675000D01*
X65221779Y-56676144D01*
X65221779Y-56676144D01*
G37*
D13*
X64911000Y-57150000D03*
D12*
G36*
X66971779Y-56676144D02*
G01*
X66994834Y-56679563D01*
X67017443Y-56685227D01*
X67039387Y-56693079D01*
X67060457Y-56703044D01*
X67080448Y-56715026D01*
X67099168Y-56728910D01*
X67116438Y-56744562D01*
X67132090Y-56761832D01*
X67145974Y-56780552D01*
X67157956Y-56800543D01*
X67167921Y-56821613D01*
X67175773Y-56843557D01*
X67181437Y-56866166D01*
X67184856Y-56889221D01*
X67186000Y-56912500D01*
X67186000Y-57387500D01*
X67184856Y-57410779D01*
X67181437Y-57433834D01*
X67175773Y-57456443D01*
X67167921Y-57478387D01*
X67157956Y-57499457D01*
X67145974Y-57519448D01*
X67132090Y-57538168D01*
X67116438Y-57555438D01*
X67099168Y-57571090D01*
X67080448Y-57584974D01*
X67060457Y-57596956D01*
X67039387Y-57606921D01*
X67017443Y-57614773D01*
X66994834Y-57620437D01*
X66971779Y-57623856D01*
X66948500Y-57625000D01*
X66373500Y-57625000D01*
X66350221Y-57623856D01*
X66327166Y-57620437D01*
X66304557Y-57614773D01*
X66282613Y-57606921D01*
X66261543Y-57596956D01*
X66241552Y-57584974D01*
X66222832Y-57571090D01*
X66205562Y-57555438D01*
X66189910Y-57538168D01*
X66176026Y-57519448D01*
X66164044Y-57499457D01*
X66154079Y-57478387D01*
X66146227Y-57456443D01*
X66140563Y-57433834D01*
X66137144Y-57410779D01*
X66136000Y-57387500D01*
X66136000Y-56912500D01*
X66137144Y-56889221D01*
X66140563Y-56866166D01*
X66146227Y-56843557D01*
X66154079Y-56821613D01*
X66164044Y-56800543D01*
X66176026Y-56780552D01*
X66189910Y-56761832D01*
X66205562Y-56744562D01*
X66222832Y-56728910D01*
X66241552Y-56715026D01*
X66261543Y-56703044D01*
X66282613Y-56693079D01*
X66304557Y-56685227D01*
X66327166Y-56679563D01*
X66350221Y-56676144D01*
X66373500Y-56675000D01*
X66948500Y-56675000D01*
X66971779Y-56676144D01*
X66971779Y-56676144D01*
G37*
D13*
X66661000Y-57150000D03*
D11*
X77150000Y-55738000D03*
X77150000Y-57038000D03*
X75250000Y-56388000D03*
X77150000Y-56388000D03*
X75250000Y-57038000D03*
X75250000Y-55738000D03*
X75250000Y-53990000D03*
X75250000Y-52690000D03*
X77150000Y-53340000D03*
X75250000Y-53340000D03*
X77150000Y-52690000D03*
X77150000Y-53990000D03*
D10*
X85863000Y-52634000D03*
X86513000Y-52634000D03*
X87163000Y-52634000D03*
X87813000Y-52634000D03*
X88463000Y-52634000D03*
X89113000Y-52634000D03*
X89763000Y-52634000D03*
X90413000Y-52634000D03*
X90413000Y-59634000D03*
X89763000Y-59634000D03*
X89113000Y-59634000D03*
X88463000Y-59634000D03*
X87813000Y-59634000D03*
X87163000Y-59634000D03*
X86513000Y-59634000D03*
X85863000Y-59634000D03*
D11*
X92268000Y-59578000D03*
X92268000Y-58278000D03*
X94168000Y-58928000D03*
X92268000Y-58928000D03*
X94168000Y-58278000D03*
X94168000Y-59578000D03*
D12*
G36*
X31185779Y-56676144D02*
G01*
X31208834Y-56679563D01*
X31231443Y-56685227D01*
X31253387Y-56693079D01*
X31274457Y-56703044D01*
X31294448Y-56715026D01*
X31313168Y-56728910D01*
X31330438Y-56744562D01*
X31346090Y-56761832D01*
X31359974Y-56780552D01*
X31371956Y-56800543D01*
X31381921Y-56821613D01*
X31389773Y-56843557D01*
X31395437Y-56866166D01*
X31398856Y-56889221D01*
X31400000Y-56912500D01*
X31400000Y-57387500D01*
X31398856Y-57410779D01*
X31395437Y-57433834D01*
X31389773Y-57456443D01*
X31381921Y-57478387D01*
X31371956Y-57499457D01*
X31359974Y-57519448D01*
X31346090Y-57538168D01*
X31330438Y-57555438D01*
X31313168Y-57571090D01*
X31294448Y-57584974D01*
X31274457Y-57596956D01*
X31253387Y-57606921D01*
X31231443Y-57614773D01*
X31208834Y-57620437D01*
X31185779Y-57623856D01*
X31162500Y-57625000D01*
X30587500Y-57625000D01*
X30564221Y-57623856D01*
X30541166Y-57620437D01*
X30518557Y-57614773D01*
X30496613Y-57606921D01*
X30475543Y-57596956D01*
X30455552Y-57584974D01*
X30436832Y-57571090D01*
X30419562Y-57555438D01*
X30403910Y-57538168D01*
X30390026Y-57519448D01*
X30378044Y-57499457D01*
X30368079Y-57478387D01*
X30360227Y-57456443D01*
X30354563Y-57433834D01*
X30351144Y-57410779D01*
X30350000Y-57387500D01*
X30350000Y-56912500D01*
X30351144Y-56889221D01*
X30354563Y-56866166D01*
X30360227Y-56843557D01*
X30368079Y-56821613D01*
X30378044Y-56800543D01*
X30390026Y-56780552D01*
X30403910Y-56761832D01*
X30419562Y-56744562D01*
X30436832Y-56728910D01*
X30455552Y-56715026D01*
X30475543Y-56703044D01*
X30496613Y-56693079D01*
X30518557Y-56685227D01*
X30541166Y-56679563D01*
X30564221Y-56676144D01*
X30587500Y-56675000D01*
X31162500Y-56675000D01*
X31185779Y-56676144D01*
X31185779Y-56676144D01*
G37*
D13*
X30875000Y-57150000D03*
D12*
G36*
X32935779Y-56676144D02*
G01*
X32958834Y-56679563D01*
X32981443Y-56685227D01*
X33003387Y-56693079D01*
X33024457Y-56703044D01*
X33044448Y-56715026D01*
X33063168Y-56728910D01*
X33080438Y-56744562D01*
X33096090Y-56761832D01*
X33109974Y-56780552D01*
X33121956Y-56800543D01*
X33131921Y-56821613D01*
X33139773Y-56843557D01*
X33145437Y-56866166D01*
X33148856Y-56889221D01*
X33150000Y-56912500D01*
X33150000Y-57387500D01*
X33148856Y-57410779D01*
X33145437Y-57433834D01*
X33139773Y-57456443D01*
X33131921Y-57478387D01*
X33121956Y-57499457D01*
X33109974Y-57519448D01*
X33096090Y-57538168D01*
X33080438Y-57555438D01*
X33063168Y-57571090D01*
X33044448Y-57584974D01*
X33024457Y-57596956D01*
X33003387Y-57606921D01*
X32981443Y-57614773D01*
X32958834Y-57620437D01*
X32935779Y-57623856D01*
X32912500Y-57625000D01*
X32337500Y-57625000D01*
X32314221Y-57623856D01*
X32291166Y-57620437D01*
X32268557Y-57614773D01*
X32246613Y-57606921D01*
X32225543Y-57596956D01*
X32205552Y-57584974D01*
X32186832Y-57571090D01*
X32169562Y-57555438D01*
X32153910Y-57538168D01*
X32140026Y-57519448D01*
X32128044Y-57499457D01*
X32118079Y-57478387D01*
X32110227Y-57456443D01*
X32104563Y-57433834D01*
X32101144Y-57410779D01*
X32100000Y-57387500D01*
X32100000Y-56912500D01*
X32101144Y-56889221D01*
X32104563Y-56866166D01*
X32110227Y-56843557D01*
X32118079Y-56821613D01*
X32128044Y-56800543D01*
X32140026Y-56780552D01*
X32153910Y-56761832D01*
X32169562Y-56744562D01*
X32186832Y-56728910D01*
X32205552Y-56715026D01*
X32225543Y-56703044D01*
X32246613Y-56693079D01*
X32268557Y-56685227D01*
X32291166Y-56679563D01*
X32314221Y-56676144D01*
X32337500Y-56675000D01*
X32912500Y-56675000D01*
X32935779Y-56676144D01*
X32935779Y-56676144D01*
G37*
D13*
X32625000Y-57150000D03*
D12*
G36*
X82239779Y-56676144D02*
G01*
X82262834Y-56679563D01*
X82285443Y-56685227D01*
X82307387Y-56693079D01*
X82328457Y-56703044D01*
X82348448Y-56715026D01*
X82367168Y-56728910D01*
X82384438Y-56744562D01*
X82400090Y-56761832D01*
X82413974Y-56780552D01*
X82425956Y-56800543D01*
X82435921Y-56821613D01*
X82443773Y-56843557D01*
X82449437Y-56866166D01*
X82452856Y-56889221D01*
X82454000Y-56912500D01*
X82454000Y-57387500D01*
X82452856Y-57410779D01*
X82449437Y-57433834D01*
X82443773Y-57456443D01*
X82435921Y-57478387D01*
X82425956Y-57499457D01*
X82413974Y-57519448D01*
X82400090Y-57538168D01*
X82384438Y-57555438D01*
X82367168Y-57571090D01*
X82348448Y-57584974D01*
X82328457Y-57596956D01*
X82307387Y-57606921D01*
X82285443Y-57614773D01*
X82262834Y-57620437D01*
X82239779Y-57623856D01*
X82216500Y-57625000D01*
X81641500Y-57625000D01*
X81618221Y-57623856D01*
X81595166Y-57620437D01*
X81572557Y-57614773D01*
X81550613Y-57606921D01*
X81529543Y-57596956D01*
X81509552Y-57584974D01*
X81490832Y-57571090D01*
X81473562Y-57555438D01*
X81457910Y-57538168D01*
X81444026Y-57519448D01*
X81432044Y-57499457D01*
X81422079Y-57478387D01*
X81414227Y-57456443D01*
X81408563Y-57433834D01*
X81405144Y-57410779D01*
X81404000Y-57387500D01*
X81404000Y-56912500D01*
X81405144Y-56889221D01*
X81408563Y-56866166D01*
X81414227Y-56843557D01*
X81422079Y-56821613D01*
X81432044Y-56800543D01*
X81444026Y-56780552D01*
X81457910Y-56761832D01*
X81473562Y-56744562D01*
X81490832Y-56728910D01*
X81509552Y-56715026D01*
X81529543Y-56703044D01*
X81550613Y-56693079D01*
X81572557Y-56685227D01*
X81595166Y-56679563D01*
X81618221Y-56676144D01*
X81641500Y-56675000D01*
X82216500Y-56675000D01*
X82239779Y-56676144D01*
X82239779Y-56676144D01*
G37*
D13*
X81929000Y-57150000D03*
D12*
G36*
X83989779Y-56676144D02*
G01*
X84012834Y-56679563D01*
X84035443Y-56685227D01*
X84057387Y-56693079D01*
X84078457Y-56703044D01*
X84098448Y-56715026D01*
X84117168Y-56728910D01*
X84134438Y-56744562D01*
X84150090Y-56761832D01*
X84163974Y-56780552D01*
X84175956Y-56800543D01*
X84185921Y-56821613D01*
X84193773Y-56843557D01*
X84199437Y-56866166D01*
X84202856Y-56889221D01*
X84204000Y-56912500D01*
X84204000Y-57387500D01*
X84202856Y-57410779D01*
X84199437Y-57433834D01*
X84193773Y-57456443D01*
X84185921Y-57478387D01*
X84175956Y-57499457D01*
X84163974Y-57519448D01*
X84150090Y-57538168D01*
X84134438Y-57555438D01*
X84117168Y-57571090D01*
X84098448Y-57584974D01*
X84078457Y-57596956D01*
X84057387Y-57606921D01*
X84035443Y-57614773D01*
X84012834Y-57620437D01*
X83989779Y-57623856D01*
X83966500Y-57625000D01*
X83391500Y-57625000D01*
X83368221Y-57623856D01*
X83345166Y-57620437D01*
X83322557Y-57614773D01*
X83300613Y-57606921D01*
X83279543Y-57596956D01*
X83259552Y-57584974D01*
X83240832Y-57571090D01*
X83223562Y-57555438D01*
X83207910Y-57538168D01*
X83194026Y-57519448D01*
X83182044Y-57499457D01*
X83172079Y-57478387D01*
X83164227Y-57456443D01*
X83158563Y-57433834D01*
X83155144Y-57410779D01*
X83154000Y-57387500D01*
X83154000Y-56912500D01*
X83155144Y-56889221D01*
X83158563Y-56866166D01*
X83164227Y-56843557D01*
X83172079Y-56821613D01*
X83182044Y-56800543D01*
X83194026Y-56780552D01*
X83207910Y-56761832D01*
X83223562Y-56744562D01*
X83240832Y-56728910D01*
X83259552Y-56715026D01*
X83279543Y-56703044D01*
X83300613Y-56693079D01*
X83322557Y-56685227D01*
X83345166Y-56679563D01*
X83368221Y-56676144D01*
X83391500Y-56675000D01*
X83966500Y-56675000D01*
X83989779Y-56676144D01*
X83989779Y-56676144D01*
G37*
D13*
X83679000Y-57150000D03*
D11*
X92268000Y-53990000D03*
X92268000Y-52690000D03*
X94168000Y-53340000D03*
X92268000Y-53340000D03*
X94168000Y-52690000D03*
X94168000Y-53990000D03*
X43114000Y-55738000D03*
X43114000Y-57038000D03*
X41214000Y-56388000D03*
X43114000Y-56388000D03*
X41214000Y-57038000D03*
X41214000Y-55738000D03*
X94168000Y-55738000D03*
X94168000Y-57038000D03*
X92268000Y-56388000D03*
X94168000Y-56388000D03*
X92268000Y-57038000D03*
X92268000Y-55738000D03*
X24196000Y-55738000D03*
X24196000Y-57038000D03*
X26096000Y-56388000D03*
X24196000Y-56388000D03*
X26096000Y-57038000D03*
X26096000Y-55738000D03*
D12*
G36*
X15917779Y-56676144D02*
G01*
X15940834Y-56679563D01*
X15963443Y-56685227D01*
X15985387Y-56693079D01*
X16006457Y-56703044D01*
X16026448Y-56715026D01*
X16045168Y-56728910D01*
X16062438Y-56744562D01*
X16078090Y-56761832D01*
X16091974Y-56780552D01*
X16103956Y-56800543D01*
X16113921Y-56821613D01*
X16121773Y-56843557D01*
X16127437Y-56866166D01*
X16130856Y-56889221D01*
X16132000Y-56912500D01*
X16132000Y-57387500D01*
X16130856Y-57410779D01*
X16127437Y-57433834D01*
X16121773Y-57456443D01*
X16113921Y-57478387D01*
X16103956Y-57499457D01*
X16091974Y-57519448D01*
X16078090Y-57538168D01*
X16062438Y-57555438D01*
X16045168Y-57571090D01*
X16026448Y-57584974D01*
X16006457Y-57596956D01*
X15985387Y-57606921D01*
X15963443Y-57614773D01*
X15940834Y-57620437D01*
X15917779Y-57623856D01*
X15894500Y-57625000D01*
X15319500Y-57625000D01*
X15296221Y-57623856D01*
X15273166Y-57620437D01*
X15250557Y-57614773D01*
X15228613Y-57606921D01*
X15207543Y-57596956D01*
X15187552Y-57584974D01*
X15168832Y-57571090D01*
X15151562Y-57555438D01*
X15135910Y-57538168D01*
X15122026Y-57519448D01*
X15110044Y-57499457D01*
X15100079Y-57478387D01*
X15092227Y-57456443D01*
X15086563Y-57433834D01*
X15083144Y-57410779D01*
X15082000Y-57387500D01*
X15082000Y-56912500D01*
X15083144Y-56889221D01*
X15086563Y-56866166D01*
X15092227Y-56843557D01*
X15100079Y-56821613D01*
X15110044Y-56800543D01*
X15122026Y-56780552D01*
X15135910Y-56761832D01*
X15151562Y-56744562D01*
X15168832Y-56728910D01*
X15187552Y-56715026D01*
X15207543Y-56703044D01*
X15228613Y-56693079D01*
X15250557Y-56685227D01*
X15273166Y-56679563D01*
X15296221Y-56676144D01*
X15319500Y-56675000D01*
X15894500Y-56675000D01*
X15917779Y-56676144D01*
X15917779Y-56676144D01*
G37*
D13*
X15607000Y-57150000D03*
D12*
G36*
X14167779Y-56676144D02*
G01*
X14190834Y-56679563D01*
X14213443Y-56685227D01*
X14235387Y-56693079D01*
X14256457Y-56703044D01*
X14276448Y-56715026D01*
X14295168Y-56728910D01*
X14312438Y-56744562D01*
X14328090Y-56761832D01*
X14341974Y-56780552D01*
X14353956Y-56800543D01*
X14363921Y-56821613D01*
X14371773Y-56843557D01*
X14377437Y-56866166D01*
X14380856Y-56889221D01*
X14382000Y-56912500D01*
X14382000Y-57387500D01*
X14380856Y-57410779D01*
X14377437Y-57433834D01*
X14371773Y-57456443D01*
X14363921Y-57478387D01*
X14353956Y-57499457D01*
X14341974Y-57519448D01*
X14328090Y-57538168D01*
X14312438Y-57555438D01*
X14295168Y-57571090D01*
X14276448Y-57584974D01*
X14256457Y-57596956D01*
X14235387Y-57606921D01*
X14213443Y-57614773D01*
X14190834Y-57620437D01*
X14167779Y-57623856D01*
X14144500Y-57625000D01*
X13569500Y-57625000D01*
X13546221Y-57623856D01*
X13523166Y-57620437D01*
X13500557Y-57614773D01*
X13478613Y-57606921D01*
X13457543Y-57596956D01*
X13437552Y-57584974D01*
X13418832Y-57571090D01*
X13401562Y-57555438D01*
X13385910Y-57538168D01*
X13372026Y-57519448D01*
X13360044Y-57499457D01*
X13350079Y-57478387D01*
X13342227Y-57456443D01*
X13336563Y-57433834D01*
X13333144Y-57410779D01*
X13332000Y-57387500D01*
X13332000Y-56912500D01*
X13333144Y-56889221D01*
X13336563Y-56866166D01*
X13342227Y-56843557D01*
X13350079Y-56821613D01*
X13360044Y-56800543D01*
X13372026Y-56780552D01*
X13385910Y-56761832D01*
X13401562Y-56744562D01*
X13418832Y-56728910D01*
X13437552Y-56715026D01*
X13457543Y-56703044D01*
X13478613Y-56693079D01*
X13500557Y-56685227D01*
X13523166Y-56679563D01*
X13546221Y-56676144D01*
X13569500Y-56675000D01*
X14144500Y-56675000D01*
X14167779Y-56676144D01*
X14167779Y-56676144D01*
G37*
D13*
X13857000Y-57150000D03*
D11*
X26096000Y-59578000D03*
X26096000Y-58278000D03*
X24196000Y-58928000D03*
X26096000Y-58928000D03*
X24196000Y-58278000D03*
X24196000Y-59578000D03*
X41214000Y-53990000D03*
X41214000Y-52690000D03*
X43114000Y-53340000D03*
X41214000Y-53340000D03*
X43114000Y-52690000D03*
X43114000Y-53990000D03*
D10*
X17791000Y-59634000D03*
X18441000Y-59634000D03*
X19091000Y-59634000D03*
X19741000Y-59634000D03*
X20391000Y-59634000D03*
X21041000Y-59634000D03*
X21691000Y-59634000D03*
X22341000Y-59634000D03*
X22341000Y-52634000D03*
X21691000Y-52634000D03*
X21041000Y-52634000D03*
X20391000Y-52634000D03*
X19741000Y-52634000D03*
X19091000Y-52634000D03*
X18441000Y-52634000D03*
X17791000Y-52634000D03*
X34809000Y-52634000D03*
X35459000Y-52634000D03*
X36109000Y-52634000D03*
X36759000Y-52634000D03*
X37409000Y-52634000D03*
X38059000Y-52634000D03*
X38709000Y-52634000D03*
X39359000Y-52634000D03*
X39359000Y-59634000D03*
X38709000Y-59634000D03*
X38059000Y-59634000D03*
X37409000Y-59634000D03*
X36759000Y-59634000D03*
X36109000Y-59634000D03*
X35459000Y-59634000D03*
X34809000Y-59634000D03*
X68845000Y-35362000D03*
X69495000Y-35362000D03*
X70145000Y-35362000D03*
X70795000Y-35362000D03*
X71445000Y-35362000D03*
X72095000Y-35362000D03*
X72745000Y-35362000D03*
X73395000Y-35362000D03*
X73395000Y-42362000D03*
X72745000Y-42362000D03*
X72095000Y-42362000D03*
X71445000Y-42362000D03*
X70795000Y-42362000D03*
X70145000Y-42362000D03*
X69495000Y-42362000D03*
X68845000Y-42362000D03*
D11*
X41214000Y-42306000D03*
X41214000Y-41006000D03*
X43114000Y-41656000D03*
X41214000Y-41656000D03*
X43114000Y-41006000D03*
X43114000Y-42306000D03*
X26096000Y-36718000D03*
X26096000Y-35418000D03*
X24196000Y-36068000D03*
X26096000Y-36068000D03*
X24196000Y-35418000D03*
X24196000Y-36718000D03*
X60132000Y-38466000D03*
X60132000Y-39766000D03*
X58232000Y-39116000D03*
X60132000Y-39116000D03*
X58232000Y-39766000D03*
X58232000Y-38466000D03*
X58232000Y-42306000D03*
X58232000Y-41006000D03*
X60132000Y-41656000D03*
X58232000Y-41656000D03*
X60132000Y-41006000D03*
X60132000Y-42306000D03*
D10*
X51827000Y-35362000D03*
X52477000Y-35362000D03*
X53127000Y-35362000D03*
X53777000Y-35362000D03*
X54427000Y-35362000D03*
X55077000Y-35362000D03*
X55727000Y-35362000D03*
X56377000Y-35362000D03*
X56377000Y-42362000D03*
X55727000Y-42362000D03*
X55077000Y-42362000D03*
X54427000Y-42362000D03*
X53777000Y-42362000D03*
X53127000Y-42362000D03*
X52477000Y-42362000D03*
X51827000Y-42362000D03*
D12*
G36*
X48203779Y-39404144D02*
G01*
X48226834Y-39407563D01*
X48249443Y-39413227D01*
X48271387Y-39421079D01*
X48292457Y-39431044D01*
X48312448Y-39443026D01*
X48331168Y-39456910D01*
X48348438Y-39472562D01*
X48364090Y-39489832D01*
X48377974Y-39508552D01*
X48389956Y-39528543D01*
X48399921Y-39549613D01*
X48407773Y-39571557D01*
X48413437Y-39594166D01*
X48416856Y-39617221D01*
X48418000Y-39640500D01*
X48418000Y-40115500D01*
X48416856Y-40138779D01*
X48413437Y-40161834D01*
X48407773Y-40184443D01*
X48399921Y-40206387D01*
X48389956Y-40227457D01*
X48377974Y-40247448D01*
X48364090Y-40266168D01*
X48348438Y-40283438D01*
X48331168Y-40299090D01*
X48312448Y-40312974D01*
X48292457Y-40324956D01*
X48271387Y-40334921D01*
X48249443Y-40342773D01*
X48226834Y-40348437D01*
X48203779Y-40351856D01*
X48180500Y-40353000D01*
X47605500Y-40353000D01*
X47582221Y-40351856D01*
X47559166Y-40348437D01*
X47536557Y-40342773D01*
X47514613Y-40334921D01*
X47493543Y-40324956D01*
X47473552Y-40312974D01*
X47454832Y-40299090D01*
X47437562Y-40283438D01*
X47421910Y-40266168D01*
X47408026Y-40247448D01*
X47396044Y-40227457D01*
X47386079Y-40206387D01*
X47378227Y-40184443D01*
X47372563Y-40161834D01*
X47369144Y-40138779D01*
X47368000Y-40115500D01*
X47368000Y-39640500D01*
X47369144Y-39617221D01*
X47372563Y-39594166D01*
X47378227Y-39571557D01*
X47386079Y-39549613D01*
X47396044Y-39528543D01*
X47408026Y-39508552D01*
X47421910Y-39489832D01*
X47437562Y-39472562D01*
X47454832Y-39456910D01*
X47473552Y-39443026D01*
X47493543Y-39431044D01*
X47514613Y-39421079D01*
X47536557Y-39413227D01*
X47559166Y-39407563D01*
X47582221Y-39404144D01*
X47605500Y-39403000D01*
X48180500Y-39403000D01*
X48203779Y-39404144D01*
X48203779Y-39404144D01*
G37*
D13*
X47893000Y-39878000D03*
D12*
G36*
X49953779Y-39404144D02*
G01*
X49976834Y-39407563D01*
X49999443Y-39413227D01*
X50021387Y-39421079D01*
X50042457Y-39431044D01*
X50062448Y-39443026D01*
X50081168Y-39456910D01*
X50098438Y-39472562D01*
X50114090Y-39489832D01*
X50127974Y-39508552D01*
X50139956Y-39528543D01*
X50149921Y-39549613D01*
X50157773Y-39571557D01*
X50163437Y-39594166D01*
X50166856Y-39617221D01*
X50168000Y-39640500D01*
X50168000Y-40115500D01*
X50166856Y-40138779D01*
X50163437Y-40161834D01*
X50157773Y-40184443D01*
X50149921Y-40206387D01*
X50139956Y-40227457D01*
X50127974Y-40247448D01*
X50114090Y-40266168D01*
X50098438Y-40283438D01*
X50081168Y-40299090D01*
X50062448Y-40312974D01*
X50042457Y-40324956D01*
X50021387Y-40334921D01*
X49999443Y-40342773D01*
X49976834Y-40348437D01*
X49953779Y-40351856D01*
X49930500Y-40353000D01*
X49355500Y-40353000D01*
X49332221Y-40351856D01*
X49309166Y-40348437D01*
X49286557Y-40342773D01*
X49264613Y-40334921D01*
X49243543Y-40324956D01*
X49223552Y-40312974D01*
X49204832Y-40299090D01*
X49187562Y-40283438D01*
X49171910Y-40266168D01*
X49158026Y-40247448D01*
X49146044Y-40227457D01*
X49136079Y-40206387D01*
X49128227Y-40184443D01*
X49122563Y-40161834D01*
X49119144Y-40138779D01*
X49118000Y-40115500D01*
X49118000Y-39640500D01*
X49119144Y-39617221D01*
X49122563Y-39594166D01*
X49128227Y-39571557D01*
X49136079Y-39549613D01*
X49146044Y-39528543D01*
X49158026Y-39508552D01*
X49171910Y-39489832D01*
X49187562Y-39472562D01*
X49204832Y-39456910D01*
X49223552Y-39443026D01*
X49243543Y-39431044D01*
X49264613Y-39421079D01*
X49286557Y-39413227D01*
X49309166Y-39407563D01*
X49332221Y-39404144D01*
X49355500Y-39403000D01*
X49930500Y-39403000D01*
X49953779Y-39404144D01*
X49953779Y-39404144D01*
G37*
D13*
X49643000Y-39878000D03*
D11*
X58232000Y-36718000D03*
X58232000Y-35418000D03*
X60132000Y-36068000D03*
X58232000Y-36068000D03*
X60132000Y-35418000D03*
X60132000Y-36718000D03*
X75250000Y-42306000D03*
X75250000Y-41006000D03*
X77150000Y-41656000D03*
X75250000Y-41656000D03*
X77150000Y-41006000D03*
X77150000Y-42306000D03*
D12*
G36*
X65221779Y-39404144D02*
G01*
X65244834Y-39407563D01*
X65267443Y-39413227D01*
X65289387Y-39421079D01*
X65310457Y-39431044D01*
X65330448Y-39443026D01*
X65349168Y-39456910D01*
X65366438Y-39472562D01*
X65382090Y-39489832D01*
X65395974Y-39508552D01*
X65407956Y-39528543D01*
X65417921Y-39549613D01*
X65425773Y-39571557D01*
X65431437Y-39594166D01*
X65434856Y-39617221D01*
X65436000Y-39640500D01*
X65436000Y-40115500D01*
X65434856Y-40138779D01*
X65431437Y-40161834D01*
X65425773Y-40184443D01*
X65417921Y-40206387D01*
X65407956Y-40227457D01*
X65395974Y-40247448D01*
X65382090Y-40266168D01*
X65366438Y-40283438D01*
X65349168Y-40299090D01*
X65330448Y-40312974D01*
X65310457Y-40324956D01*
X65289387Y-40334921D01*
X65267443Y-40342773D01*
X65244834Y-40348437D01*
X65221779Y-40351856D01*
X65198500Y-40353000D01*
X64623500Y-40353000D01*
X64600221Y-40351856D01*
X64577166Y-40348437D01*
X64554557Y-40342773D01*
X64532613Y-40334921D01*
X64511543Y-40324956D01*
X64491552Y-40312974D01*
X64472832Y-40299090D01*
X64455562Y-40283438D01*
X64439910Y-40266168D01*
X64426026Y-40247448D01*
X64414044Y-40227457D01*
X64404079Y-40206387D01*
X64396227Y-40184443D01*
X64390563Y-40161834D01*
X64387144Y-40138779D01*
X64386000Y-40115500D01*
X64386000Y-39640500D01*
X64387144Y-39617221D01*
X64390563Y-39594166D01*
X64396227Y-39571557D01*
X64404079Y-39549613D01*
X64414044Y-39528543D01*
X64426026Y-39508552D01*
X64439910Y-39489832D01*
X64455562Y-39472562D01*
X64472832Y-39456910D01*
X64491552Y-39443026D01*
X64511543Y-39431044D01*
X64532613Y-39421079D01*
X64554557Y-39413227D01*
X64577166Y-39407563D01*
X64600221Y-39404144D01*
X64623500Y-39403000D01*
X65198500Y-39403000D01*
X65221779Y-39404144D01*
X65221779Y-39404144D01*
G37*
D13*
X64911000Y-39878000D03*
D12*
G36*
X66971779Y-39404144D02*
G01*
X66994834Y-39407563D01*
X67017443Y-39413227D01*
X67039387Y-39421079D01*
X67060457Y-39431044D01*
X67080448Y-39443026D01*
X67099168Y-39456910D01*
X67116438Y-39472562D01*
X67132090Y-39489832D01*
X67145974Y-39508552D01*
X67157956Y-39528543D01*
X67167921Y-39549613D01*
X67175773Y-39571557D01*
X67181437Y-39594166D01*
X67184856Y-39617221D01*
X67186000Y-39640500D01*
X67186000Y-40115500D01*
X67184856Y-40138779D01*
X67181437Y-40161834D01*
X67175773Y-40184443D01*
X67167921Y-40206387D01*
X67157956Y-40227457D01*
X67145974Y-40247448D01*
X67132090Y-40266168D01*
X67116438Y-40283438D01*
X67099168Y-40299090D01*
X67080448Y-40312974D01*
X67060457Y-40324956D01*
X67039387Y-40334921D01*
X67017443Y-40342773D01*
X66994834Y-40348437D01*
X66971779Y-40351856D01*
X66948500Y-40353000D01*
X66373500Y-40353000D01*
X66350221Y-40351856D01*
X66327166Y-40348437D01*
X66304557Y-40342773D01*
X66282613Y-40334921D01*
X66261543Y-40324956D01*
X66241552Y-40312974D01*
X66222832Y-40299090D01*
X66205562Y-40283438D01*
X66189910Y-40266168D01*
X66176026Y-40247448D01*
X66164044Y-40227457D01*
X66154079Y-40206387D01*
X66146227Y-40184443D01*
X66140563Y-40161834D01*
X66137144Y-40138779D01*
X66136000Y-40115500D01*
X66136000Y-39640500D01*
X66137144Y-39617221D01*
X66140563Y-39594166D01*
X66146227Y-39571557D01*
X66154079Y-39549613D01*
X66164044Y-39528543D01*
X66176026Y-39508552D01*
X66189910Y-39489832D01*
X66205562Y-39472562D01*
X66222832Y-39456910D01*
X66241552Y-39443026D01*
X66261543Y-39431044D01*
X66282613Y-39421079D01*
X66304557Y-39413227D01*
X66327166Y-39407563D01*
X66350221Y-39404144D01*
X66373500Y-39403000D01*
X66948500Y-39403000D01*
X66971779Y-39404144D01*
X66971779Y-39404144D01*
G37*
D13*
X66661000Y-39878000D03*
D11*
X77150000Y-38466000D03*
X77150000Y-39766000D03*
X75250000Y-39116000D03*
X77150000Y-39116000D03*
X75250000Y-39766000D03*
X75250000Y-38466000D03*
X75250000Y-36718000D03*
X75250000Y-35418000D03*
X77150000Y-36068000D03*
X75250000Y-36068000D03*
X77150000Y-35418000D03*
X77150000Y-36718000D03*
D10*
X85863000Y-35362000D03*
X86513000Y-35362000D03*
X87163000Y-35362000D03*
X87813000Y-35362000D03*
X88463000Y-35362000D03*
X89113000Y-35362000D03*
X89763000Y-35362000D03*
X90413000Y-35362000D03*
X90413000Y-42362000D03*
X89763000Y-42362000D03*
X89113000Y-42362000D03*
X88463000Y-42362000D03*
X87813000Y-42362000D03*
X87163000Y-42362000D03*
X86513000Y-42362000D03*
X85863000Y-42362000D03*
D11*
X92268000Y-42306000D03*
X92268000Y-41006000D03*
X94168000Y-41656000D03*
X92268000Y-41656000D03*
X94168000Y-41006000D03*
X94168000Y-42306000D03*
D12*
G36*
X31185779Y-39404144D02*
G01*
X31208834Y-39407563D01*
X31231443Y-39413227D01*
X31253387Y-39421079D01*
X31274457Y-39431044D01*
X31294448Y-39443026D01*
X31313168Y-39456910D01*
X31330438Y-39472562D01*
X31346090Y-39489832D01*
X31359974Y-39508552D01*
X31371956Y-39528543D01*
X31381921Y-39549613D01*
X31389773Y-39571557D01*
X31395437Y-39594166D01*
X31398856Y-39617221D01*
X31400000Y-39640500D01*
X31400000Y-40115500D01*
X31398856Y-40138779D01*
X31395437Y-40161834D01*
X31389773Y-40184443D01*
X31381921Y-40206387D01*
X31371956Y-40227457D01*
X31359974Y-40247448D01*
X31346090Y-40266168D01*
X31330438Y-40283438D01*
X31313168Y-40299090D01*
X31294448Y-40312974D01*
X31274457Y-40324956D01*
X31253387Y-40334921D01*
X31231443Y-40342773D01*
X31208834Y-40348437D01*
X31185779Y-40351856D01*
X31162500Y-40353000D01*
X30587500Y-40353000D01*
X30564221Y-40351856D01*
X30541166Y-40348437D01*
X30518557Y-40342773D01*
X30496613Y-40334921D01*
X30475543Y-40324956D01*
X30455552Y-40312974D01*
X30436832Y-40299090D01*
X30419562Y-40283438D01*
X30403910Y-40266168D01*
X30390026Y-40247448D01*
X30378044Y-40227457D01*
X30368079Y-40206387D01*
X30360227Y-40184443D01*
X30354563Y-40161834D01*
X30351144Y-40138779D01*
X30350000Y-40115500D01*
X30350000Y-39640500D01*
X30351144Y-39617221D01*
X30354563Y-39594166D01*
X30360227Y-39571557D01*
X30368079Y-39549613D01*
X30378044Y-39528543D01*
X30390026Y-39508552D01*
X30403910Y-39489832D01*
X30419562Y-39472562D01*
X30436832Y-39456910D01*
X30455552Y-39443026D01*
X30475543Y-39431044D01*
X30496613Y-39421079D01*
X30518557Y-39413227D01*
X30541166Y-39407563D01*
X30564221Y-39404144D01*
X30587500Y-39403000D01*
X31162500Y-39403000D01*
X31185779Y-39404144D01*
X31185779Y-39404144D01*
G37*
D13*
X30875000Y-39878000D03*
D12*
G36*
X32935779Y-39404144D02*
G01*
X32958834Y-39407563D01*
X32981443Y-39413227D01*
X33003387Y-39421079D01*
X33024457Y-39431044D01*
X33044448Y-39443026D01*
X33063168Y-39456910D01*
X33080438Y-39472562D01*
X33096090Y-39489832D01*
X33109974Y-39508552D01*
X33121956Y-39528543D01*
X33131921Y-39549613D01*
X33139773Y-39571557D01*
X33145437Y-39594166D01*
X33148856Y-39617221D01*
X33150000Y-39640500D01*
X33150000Y-40115500D01*
X33148856Y-40138779D01*
X33145437Y-40161834D01*
X33139773Y-40184443D01*
X33131921Y-40206387D01*
X33121956Y-40227457D01*
X33109974Y-40247448D01*
X33096090Y-40266168D01*
X33080438Y-40283438D01*
X33063168Y-40299090D01*
X33044448Y-40312974D01*
X33024457Y-40324956D01*
X33003387Y-40334921D01*
X32981443Y-40342773D01*
X32958834Y-40348437D01*
X32935779Y-40351856D01*
X32912500Y-40353000D01*
X32337500Y-40353000D01*
X32314221Y-40351856D01*
X32291166Y-40348437D01*
X32268557Y-40342773D01*
X32246613Y-40334921D01*
X32225543Y-40324956D01*
X32205552Y-40312974D01*
X32186832Y-40299090D01*
X32169562Y-40283438D01*
X32153910Y-40266168D01*
X32140026Y-40247448D01*
X32128044Y-40227457D01*
X32118079Y-40206387D01*
X32110227Y-40184443D01*
X32104563Y-40161834D01*
X32101144Y-40138779D01*
X32100000Y-40115500D01*
X32100000Y-39640500D01*
X32101144Y-39617221D01*
X32104563Y-39594166D01*
X32110227Y-39571557D01*
X32118079Y-39549613D01*
X32128044Y-39528543D01*
X32140026Y-39508552D01*
X32153910Y-39489832D01*
X32169562Y-39472562D01*
X32186832Y-39456910D01*
X32205552Y-39443026D01*
X32225543Y-39431044D01*
X32246613Y-39421079D01*
X32268557Y-39413227D01*
X32291166Y-39407563D01*
X32314221Y-39404144D01*
X32337500Y-39403000D01*
X32912500Y-39403000D01*
X32935779Y-39404144D01*
X32935779Y-39404144D01*
G37*
D13*
X32625000Y-39878000D03*
D12*
G36*
X82239779Y-39404144D02*
G01*
X82262834Y-39407563D01*
X82285443Y-39413227D01*
X82307387Y-39421079D01*
X82328457Y-39431044D01*
X82348448Y-39443026D01*
X82367168Y-39456910D01*
X82384438Y-39472562D01*
X82400090Y-39489832D01*
X82413974Y-39508552D01*
X82425956Y-39528543D01*
X82435921Y-39549613D01*
X82443773Y-39571557D01*
X82449437Y-39594166D01*
X82452856Y-39617221D01*
X82454000Y-39640500D01*
X82454000Y-40115500D01*
X82452856Y-40138779D01*
X82449437Y-40161834D01*
X82443773Y-40184443D01*
X82435921Y-40206387D01*
X82425956Y-40227457D01*
X82413974Y-40247448D01*
X82400090Y-40266168D01*
X82384438Y-40283438D01*
X82367168Y-40299090D01*
X82348448Y-40312974D01*
X82328457Y-40324956D01*
X82307387Y-40334921D01*
X82285443Y-40342773D01*
X82262834Y-40348437D01*
X82239779Y-40351856D01*
X82216500Y-40353000D01*
X81641500Y-40353000D01*
X81618221Y-40351856D01*
X81595166Y-40348437D01*
X81572557Y-40342773D01*
X81550613Y-40334921D01*
X81529543Y-40324956D01*
X81509552Y-40312974D01*
X81490832Y-40299090D01*
X81473562Y-40283438D01*
X81457910Y-40266168D01*
X81444026Y-40247448D01*
X81432044Y-40227457D01*
X81422079Y-40206387D01*
X81414227Y-40184443D01*
X81408563Y-40161834D01*
X81405144Y-40138779D01*
X81404000Y-40115500D01*
X81404000Y-39640500D01*
X81405144Y-39617221D01*
X81408563Y-39594166D01*
X81414227Y-39571557D01*
X81422079Y-39549613D01*
X81432044Y-39528543D01*
X81444026Y-39508552D01*
X81457910Y-39489832D01*
X81473562Y-39472562D01*
X81490832Y-39456910D01*
X81509552Y-39443026D01*
X81529543Y-39431044D01*
X81550613Y-39421079D01*
X81572557Y-39413227D01*
X81595166Y-39407563D01*
X81618221Y-39404144D01*
X81641500Y-39403000D01*
X82216500Y-39403000D01*
X82239779Y-39404144D01*
X82239779Y-39404144D01*
G37*
D13*
X81929000Y-39878000D03*
D12*
G36*
X83989779Y-39404144D02*
G01*
X84012834Y-39407563D01*
X84035443Y-39413227D01*
X84057387Y-39421079D01*
X84078457Y-39431044D01*
X84098448Y-39443026D01*
X84117168Y-39456910D01*
X84134438Y-39472562D01*
X84150090Y-39489832D01*
X84163974Y-39508552D01*
X84175956Y-39528543D01*
X84185921Y-39549613D01*
X84193773Y-39571557D01*
X84199437Y-39594166D01*
X84202856Y-39617221D01*
X84204000Y-39640500D01*
X84204000Y-40115500D01*
X84202856Y-40138779D01*
X84199437Y-40161834D01*
X84193773Y-40184443D01*
X84185921Y-40206387D01*
X84175956Y-40227457D01*
X84163974Y-40247448D01*
X84150090Y-40266168D01*
X84134438Y-40283438D01*
X84117168Y-40299090D01*
X84098448Y-40312974D01*
X84078457Y-40324956D01*
X84057387Y-40334921D01*
X84035443Y-40342773D01*
X84012834Y-40348437D01*
X83989779Y-40351856D01*
X83966500Y-40353000D01*
X83391500Y-40353000D01*
X83368221Y-40351856D01*
X83345166Y-40348437D01*
X83322557Y-40342773D01*
X83300613Y-40334921D01*
X83279543Y-40324956D01*
X83259552Y-40312974D01*
X83240832Y-40299090D01*
X83223562Y-40283438D01*
X83207910Y-40266168D01*
X83194026Y-40247448D01*
X83182044Y-40227457D01*
X83172079Y-40206387D01*
X83164227Y-40184443D01*
X83158563Y-40161834D01*
X83155144Y-40138779D01*
X83154000Y-40115500D01*
X83154000Y-39640500D01*
X83155144Y-39617221D01*
X83158563Y-39594166D01*
X83164227Y-39571557D01*
X83172079Y-39549613D01*
X83182044Y-39528543D01*
X83194026Y-39508552D01*
X83207910Y-39489832D01*
X83223562Y-39472562D01*
X83240832Y-39456910D01*
X83259552Y-39443026D01*
X83279543Y-39431044D01*
X83300613Y-39421079D01*
X83322557Y-39413227D01*
X83345166Y-39407563D01*
X83368221Y-39404144D01*
X83391500Y-39403000D01*
X83966500Y-39403000D01*
X83989779Y-39404144D01*
X83989779Y-39404144D01*
G37*
D13*
X83679000Y-39878000D03*
D11*
X92268000Y-36718000D03*
X92268000Y-35418000D03*
X94168000Y-36068000D03*
X92268000Y-36068000D03*
X94168000Y-35418000D03*
X94168000Y-36718000D03*
X43114000Y-38466000D03*
X43114000Y-39766000D03*
X41214000Y-39116000D03*
X43114000Y-39116000D03*
X41214000Y-39766000D03*
X41214000Y-38466000D03*
X94168000Y-38466000D03*
X94168000Y-39766000D03*
X92268000Y-39116000D03*
X94168000Y-39116000D03*
X92268000Y-39766000D03*
X92268000Y-38466000D03*
X24196000Y-38466000D03*
X24196000Y-39766000D03*
X26096000Y-39116000D03*
X24196000Y-39116000D03*
X26096000Y-39766000D03*
X26096000Y-38466000D03*
D12*
G36*
X15917779Y-39404144D02*
G01*
X15940834Y-39407563D01*
X15963443Y-39413227D01*
X15985387Y-39421079D01*
X16006457Y-39431044D01*
X16026448Y-39443026D01*
X16045168Y-39456910D01*
X16062438Y-39472562D01*
X16078090Y-39489832D01*
X16091974Y-39508552D01*
X16103956Y-39528543D01*
X16113921Y-39549613D01*
X16121773Y-39571557D01*
X16127437Y-39594166D01*
X16130856Y-39617221D01*
X16132000Y-39640500D01*
X16132000Y-40115500D01*
X16130856Y-40138779D01*
X16127437Y-40161834D01*
X16121773Y-40184443D01*
X16113921Y-40206387D01*
X16103956Y-40227457D01*
X16091974Y-40247448D01*
X16078090Y-40266168D01*
X16062438Y-40283438D01*
X16045168Y-40299090D01*
X16026448Y-40312974D01*
X16006457Y-40324956D01*
X15985387Y-40334921D01*
X15963443Y-40342773D01*
X15940834Y-40348437D01*
X15917779Y-40351856D01*
X15894500Y-40353000D01*
X15319500Y-40353000D01*
X15296221Y-40351856D01*
X15273166Y-40348437D01*
X15250557Y-40342773D01*
X15228613Y-40334921D01*
X15207543Y-40324956D01*
X15187552Y-40312974D01*
X15168832Y-40299090D01*
X15151562Y-40283438D01*
X15135910Y-40266168D01*
X15122026Y-40247448D01*
X15110044Y-40227457D01*
X15100079Y-40206387D01*
X15092227Y-40184443D01*
X15086563Y-40161834D01*
X15083144Y-40138779D01*
X15082000Y-40115500D01*
X15082000Y-39640500D01*
X15083144Y-39617221D01*
X15086563Y-39594166D01*
X15092227Y-39571557D01*
X15100079Y-39549613D01*
X15110044Y-39528543D01*
X15122026Y-39508552D01*
X15135910Y-39489832D01*
X15151562Y-39472562D01*
X15168832Y-39456910D01*
X15187552Y-39443026D01*
X15207543Y-39431044D01*
X15228613Y-39421079D01*
X15250557Y-39413227D01*
X15273166Y-39407563D01*
X15296221Y-39404144D01*
X15319500Y-39403000D01*
X15894500Y-39403000D01*
X15917779Y-39404144D01*
X15917779Y-39404144D01*
G37*
D13*
X15607000Y-39878000D03*
D12*
G36*
X14167779Y-39404144D02*
G01*
X14190834Y-39407563D01*
X14213443Y-39413227D01*
X14235387Y-39421079D01*
X14256457Y-39431044D01*
X14276448Y-39443026D01*
X14295168Y-39456910D01*
X14312438Y-39472562D01*
X14328090Y-39489832D01*
X14341974Y-39508552D01*
X14353956Y-39528543D01*
X14363921Y-39549613D01*
X14371773Y-39571557D01*
X14377437Y-39594166D01*
X14380856Y-39617221D01*
X14382000Y-39640500D01*
X14382000Y-40115500D01*
X14380856Y-40138779D01*
X14377437Y-40161834D01*
X14371773Y-40184443D01*
X14363921Y-40206387D01*
X14353956Y-40227457D01*
X14341974Y-40247448D01*
X14328090Y-40266168D01*
X14312438Y-40283438D01*
X14295168Y-40299090D01*
X14276448Y-40312974D01*
X14256457Y-40324956D01*
X14235387Y-40334921D01*
X14213443Y-40342773D01*
X14190834Y-40348437D01*
X14167779Y-40351856D01*
X14144500Y-40353000D01*
X13569500Y-40353000D01*
X13546221Y-40351856D01*
X13523166Y-40348437D01*
X13500557Y-40342773D01*
X13478613Y-40334921D01*
X13457543Y-40324956D01*
X13437552Y-40312974D01*
X13418832Y-40299090D01*
X13401562Y-40283438D01*
X13385910Y-40266168D01*
X13372026Y-40247448D01*
X13360044Y-40227457D01*
X13350079Y-40206387D01*
X13342227Y-40184443D01*
X13336563Y-40161834D01*
X13333144Y-40138779D01*
X13332000Y-40115500D01*
X13332000Y-39640500D01*
X13333144Y-39617221D01*
X13336563Y-39594166D01*
X13342227Y-39571557D01*
X13350079Y-39549613D01*
X13360044Y-39528543D01*
X13372026Y-39508552D01*
X13385910Y-39489832D01*
X13401562Y-39472562D01*
X13418832Y-39456910D01*
X13437552Y-39443026D01*
X13457543Y-39431044D01*
X13478613Y-39421079D01*
X13500557Y-39413227D01*
X13523166Y-39407563D01*
X13546221Y-39404144D01*
X13569500Y-39403000D01*
X14144500Y-39403000D01*
X14167779Y-39404144D01*
X14167779Y-39404144D01*
G37*
D13*
X13857000Y-39878000D03*
D11*
X26096000Y-42306000D03*
X26096000Y-41006000D03*
X24196000Y-41656000D03*
X26096000Y-41656000D03*
X24196000Y-41006000D03*
X24196000Y-42306000D03*
X41214000Y-36718000D03*
X41214000Y-35418000D03*
X43114000Y-36068000D03*
X41214000Y-36068000D03*
X43114000Y-35418000D03*
X43114000Y-36718000D03*
D10*
X17791000Y-42362000D03*
X18441000Y-42362000D03*
X19091000Y-42362000D03*
X19741000Y-42362000D03*
X20391000Y-42362000D03*
X21041000Y-42362000D03*
X21691000Y-42362000D03*
X22341000Y-42362000D03*
X22341000Y-35362000D03*
X21691000Y-35362000D03*
X21041000Y-35362000D03*
X20391000Y-35362000D03*
X19741000Y-35362000D03*
X19091000Y-35362000D03*
X18441000Y-35362000D03*
X17791000Y-35362000D03*
X34809000Y-35362000D03*
X35459000Y-35362000D03*
X36109000Y-35362000D03*
X36759000Y-35362000D03*
X37409000Y-35362000D03*
X38059000Y-35362000D03*
X38709000Y-35362000D03*
X39359000Y-35362000D03*
X39359000Y-42362000D03*
X38709000Y-42362000D03*
X38059000Y-42362000D03*
X37409000Y-42362000D03*
X36759000Y-42362000D03*
X36109000Y-42362000D03*
X35459000Y-42362000D03*
X34809000Y-42362000D03*
D11*
X94168000Y-19446000D03*
X94168000Y-18146000D03*
X92268000Y-18796000D03*
X94168000Y-18796000D03*
X92268000Y-18146000D03*
X92268000Y-19446000D03*
X92268000Y-21194000D03*
X92268000Y-22494000D03*
X94168000Y-21844000D03*
X92268000Y-21844000D03*
X94168000Y-22494000D03*
X94168000Y-21194000D03*
D12*
G36*
X83989779Y-22132144D02*
G01*
X84012834Y-22135563D01*
X84035443Y-22141227D01*
X84057387Y-22149079D01*
X84078457Y-22159044D01*
X84098448Y-22171026D01*
X84117168Y-22184910D01*
X84134438Y-22200562D01*
X84150090Y-22217832D01*
X84163974Y-22236552D01*
X84175956Y-22256543D01*
X84185921Y-22277613D01*
X84193773Y-22299557D01*
X84199437Y-22322166D01*
X84202856Y-22345221D01*
X84204000Y-22368500D01*
X84204000Y-22843500D01*
X84202856Y-22866779D01*
X84199437Y-22889834D01*
X84193773Y-22912443D01*
X84185921Y-22934387D01*
X84175956Y-22955457D01*
X84163974Y-22975448D01*
X84150090Y-22994168D01*
X84134438Y-23011438D01*
X84117168Y-23027090D01*
X84098448Y-23040974D01*
X84078457Y-23052956D01*
X84057387Y-23062921D01*
X84035443Y-23070773D01*
X84012834Y-23076437D01*
X83989779Y-23079856D01*
X83966500Y-23081000D01*
X83391500Y-23081000D01*
X83368221Y-23079856D01*
X83345166Y-23076437D01*
X83322557Y-23070773D01*
X83300613Y-23062921D01*
X83279543Y-23052956D01*
X83259552Y-23040974D01*
X83240832Y-23027090D01*
X83223562Y-23011438D01*
X83207910Y-22994168D01*
X83194026Y-22975448D01*
X83182044Y-22955457D01*
X83172079Y-22934387D01*
X83164227Y-22912443D01*
X83158563Y-22889834D01*
X83155144Y-22866779D01*
X83154000Y-22843500D01*
X83154000Y-22368500D01*
X83155144Y-22345221D01*
X83158563Y-22322166D01*
X83164227Y-22299557D01*
X83172079Y-22277613D01*
X83182044Y-22256543D01*
X83194026Y-22236552D01*
X83207910Y-22217832D01*
X83223562Y-22200562D01*
X83240832Y-22184910D01*
X83259552Y-22171026D01*
X83279543Y-22159044D01*
X83300613Y-22149079D01*
X83322557Y-22141227D01*
X83345166Y-22135563D01*
X83368221Y-22132144D01*
X83391500Y-22131000D01*
X83966500Y-22131000D01*
X83989779Y-22132144D01*
X83989779Y-22132144D01*
G37*
D13*
X83679000Y-22606000D03*
D12*
G36*
X82239779Y-22132144D02*
G01*
X82262834Y-22135563D01*
X82285443Y-22141227D01*
X82307387Y-22149079D01*
X82328457Y-22159044D01*
X82348448Y-22171026D01*
X82367168Y-22184910D01*
X82384438Y-22200562D01*
X82400090Y-22217832D01*
X82413974Y-22236552D01*
X82425956Y-22256543D01*
X82435921Y-22277613D01*
X82443773Y-22299557D01*
X82449437Y-22322166D01*
X82452856Y-22345221D01*
X82454000Y-22368500D01*
X82454000Y-22843500D01*
X82452856Y-22866779D01*
X82449437Y-22889834D01*
X82443773Y-22912443D01*
X82435921Y-22934387D01*
X82425956Y-22955457D01*
X82413974Y-22975448D01*
X82400090Y-22994168D01*
X82384438Y-23011438D01*
X82367168Y-23027090D01*
X82348448Y-23040974D01*
X82328457Y-23052956D01*
X82307387Y-23062921D01*
X82285443Y-23070773D01*
X82262834Y-23076437D01*
X82239779Y-23079856D01*
X82216500Y-23081000D01*
X81641500Y-23081000D01*
X81618221Y-23079856D01*
X81595166Y-23076437D01*
X81572557Y-23070773D01*
X81550613Y-23062921D01*
X81529543Y-23052956D01*
X81509552Y-23040974D01*
X81490832Y-23027090D01*
X81473562Y-23011438D01*
X81457910Y-22994168D01*
X81444026Y-22975448D01*
X81432044Y-22955457D01*
X81422079Y-22934387D01*
X81414227Y-22912443D01*
X81408563Y-22889834D01*
X81405144Y-22866779D01*
X81404000Y-22843500D01*
X81404000Y-22368500D01*
X81405144Y-22345221D01*
X81408563Y-22322166D01*
X81414227Y-22299557D01*
X81422079Y-22277613D01*
X81432044Y-22256543D01*
X81444026Y-22236552D01*
X81457910Y-22217832D01*
X81473562Y-22200562D01*
X81490832Y-22184910D01*
X81509552Y-22171026D01*
X81529543Y-22159044D01*
X81550613Y-22149079D01*
X81572557Y-22141227D01*
X81595166Y-22135563D01*
X81618221Y-22132144D01*
X81641500Y-22131000D01*
X82216500Y-22131000D01*
X82239779Y-22132144D01*
X82239779Y-22132144D01*
G37*
D13*
X81929000Y-22606000D03*
D11*
X94168000Y-25034000D03*
X94168000Y-23734000D03*
X92268000Y-24384000D03*
X94168000Y-24384000D03*
X92268000Y-23734000D03*
X92268000Y-25034000D03*
D10*
X85863000Y-25090000D03*
X86513000Y-25090000D03*
X87163000Y-25090000D03*
X87813000Y-25090000D03*
X88463000Y-25090000D03*
X89113000Y-25090000D03*
X89763000Y-25090000D03*
X90413000Y-25090000D03*
X90413000Y-18090000D03*
X89763000Y-18090000D03*
X89113000Y-18090000D03*
X88463000Y-18090000D03*
X87813000Y-18090000D03*
X87163000Y-18090000D03*
X86513000Y-18090000D03*
X85863000Y-18090000D03*
D11*
X77150000Y-19446000D03*
X77150000Y-18146000D03*
X75250000Y-18796000D03*
X77150000Y-18796000D03*
X75250000Y-18146000D03*
X75250000Y-19446000D03*
X75250000Y-21194000D03*
X75250000Y-22494000D03*
X77150000Y-21844000D03*
X75250000Y-21844000D03*
X77150000Y-22494000D03*
X77150000Y-21194000D03*
D12*
G36*
X66971779Y-22132144D02*
G01*
X66994834Y-22135563D01*
X67017443Y-22141227D01*
X67039387Y-22149079D01*
X67060457Y-22159044D01*
X67080448Y-22171026D01*
X67099168Y-22184910D01*
X67116438Y-22200562D01*
X67132090Y-22217832D01*
X67145974Y-22236552D01*
X67157956Y-22256543D01*
X67167921Y-22277613D01*
X67175773Y-22299557D01*
X67181437Y-22322166D01*
X67184856Y-22345221D01*
X67186000Y-22368500D01*
X67186000Y-22843500D01*
X67184856Y-22866779D01*
X67181437Y-22889834D01*
X67175773Y-22912443D01*
X67167921Y-22934387D01*
X67157956Y-22955457D01*
X67145974Y-22975448D01*
X67132090Y-22994168D01*
X67116438Y-23011438D01*
X67099168Y-23027090D01*
X67080448Y-23040974D01*
X67060457Y-23052956D01*
X67039387Y-23062921D01*
X67017443Y-23070773D01*
X66994834Y-23076437D01*
X66971779Y-23079856D01*
X66948500Y-23081000D01*
X66373500Y-23081000D01*
X66350221Y-23079856D01*
X66327166Y-23076437D01*
X66304557Y-23070773D01*
X66282613Y-23062921D01*
X66261543Y-23052956D01*
X66241552Y-23040974D01*
X66222832Y-23027090D01*
X66205562Y-23011438D01*
X66189910Y-22994168D01*
X66176026Y-22975448D01*
X66164044Y-22955457D01*
X66154079Y-22934387D01*
X66146227Y-22912443D01*
X66140563Y-22889834D01*
X66137144Y-22866779D01*
X66136000Y-22843500D01*
X66136000Y-22368500D01*
X66137144Y-22345221D01*
X66140563Y-22322166D01*
X66146227Y-22299557D01*
X66154079Y-22277613D01*
X66164044Y-22256543D01*
X66176026Y-22236552D01*
X66189910Y-22217832D01*
X66205562Y-22200562D01*
X66222832Y-22184910D01*
X66241552Y-22171026D01*
X66261543Y-22159044D01*
X66282613Y-22149079D01*
X66304557Y-22141227D01*
X66327166Y-22135563D01*
X66350221Y-22132144D01*
X66373500Y-22131000D01*
X66948500Y-22131000D01*
X66971779Y-22132144D01*
X66971779Y-22132144D01*
G37*
D13*
X66661000Y-22606000D03*
D12*
G36*
X65221779Y-22132144D02*
G01*
X65244834Y-22135563D01*
X65267443Y-22141227D01*
X65289387Y-22149079D01*
X65310457Y-22159044D01*
X65330448Y-22171026D01*
X65349168Y-22184910D01*
X65366438Y-22200562D01*
X65382090Y-22217832D01*
X65395974Y-22236552D01*
X65407956Y-22256543D01*
X65417921Y-22277613D01*
X65425773Y-22299557D01*
X65431437Y-22322166D01*
X65434856Y-22345221D01*
X65436000Y-22368500D01*
X65436000Y-22843500D01*
X65434856Y-22866779D01*
X65431437Y-22889834D01*
X65425773Y-22912443D01*
X65417921Y-22934387D01*
X65407956Y-22955457D01*
X65395974Y-22975448D01*
X65382090Y-22994168D01*
X65366438Y-23011438D01*
X65349168Y-23027090D01*
X65330448Y-23040974D01*
X65310457Y-23052956D01*
X65289387Y-23062921D01*
X65267443Y-23070773D01*
X65244834Y-23076437D01*
X65221779Y-23079856D01*
X65198500Y-23081000D01*
X64623500Y-23081000D01*
X64600221Y-23079856D01*
X64577166Y-23076437D01*
X64554557Y-23070773D01*
X64532613Y-23062921D01*
X64511543Y-23052956D01*
X64491552Y-23040974D01*
X64472832Y-23027090D01*
X64455562Y-23011438D01*
X64439910Y-22994168D01*
X64426026Y-22975448D01*
X64414044Y-22955457D01*
X64404079Y-22934387D01*
X64396227Y-22912443D01*
X64390563Y-22889834D01*
X64387144Y-22866779D01*
X64386000Y-22843500D01*
X64386000Y-22368500D01*
X64387144Y-22345221D01*
X64390563Y-22322166D01*
X64396227Y-22299557D01*
X64404079Y-22277613D01*
X64414044Y-22256543D01*
X64426026Y-22236552D01*
X64439910Y-22217832D01*
X64455562Y-22200562D01*
X64472832Y-22184910D01*
X64491552Y-22171026D01*
X64511543Y-22159044D01*
X64532613Y-22149079D01*
X64554557Y-22141227D01*
X64577166Y-22135563D01*
X64600221Y-22132144D01*
X64623500Y-22131000D01*
X65198500Y-22131000D01*
X65221779Y-22132144D01*
X65221779Y-22132144D01*
G37*
D13*
X64911000Y-22606000D03*
D11*
X77150000Y-25034000D03*
X77150000Y-23734000D03*
X75250000Y-24384000D03*
X77150000Y-24384000D03*
X75250000Y-23734000D03*
X75250000Y-25034000D03*
D10*
X68845000Y-25090000D03*
X69495000Y-25090000D03*
X70145000Y-25090000D03*
X70795000Y-25090000D03*
X71445000Y-25090000D03*
X72095000Y-25090000D03*
X72745000Y-25090000D03*
X73395000Y-25090000D03*
X73395000Y-18090000D03*
X72745000Y-18090000D03*
X72095000Y-18090000D03*
X71445000Y-18090000D03*
X70795000Y-18090000D03*
X70145000Y-18090000D03*
X69495000Y-18090000D03*
X68845000Y-18090000D03*
D11*
X60132000Y-19446000D03*
X60132000Y-18146000D03*
X58232000Y-18796000D03*
X60132000Y-18796000D03*
X58232000Y-18146000D03*
X58232000Y-19446000D03*
X58232000Y-21194000D03*
X58232000Y-22494000D03*
X60132000Y-21844000D03*
X58232000Y-21844000D03*
X60132000Y-22494000D03*
X60132000Y-21194000D03*
D12*
G36*
X49953779Y-22132144D02*
G01*
X49976834Y-22135563D01*
X49999443Y-22141227D01*
X50021387Y-22149079D01*
X50042457Y-22159044D01*
X50062448Y-22171026D01*
X50081168Y-22184910D01*
X50098438Y-22200562D01*
X50114090Y-22217832D01*
X50127974Y-22236552D01*
X50139956Y-22256543D01*
X50149921Y-22277613D01*
X50157773Y-22299557D01*
X50163437Y-22322166D01*
X50166856Y-22345221D01*
X50168000Y-22368500D01*
X50168000Y-22843500D01*
X50166856Y-22866779D01*
X50163437Y-22889834D01*
X50157773Y-22912443D01*
X50149921Y-22934387D01*
X50139956Y-22955457D01*
X50127974Y-22975448D01*
X50114090Y-22994168D01*
X50098438Y-23011438D01*
X50081168Y-23027090D01*
X50062448Y-23040974D01*
X50042457Y-23052956D01*
X50021387Y-23062921D01*
X49999443Y-23070773D01*
X49976834Y-23076437D01*
X49953779Y-23079856D01*
X49930500Y-23081000D01*
X49355500Y-23081000D01*
X49332221Y-23079856D01*
X49309166Y-23076437D01*
X49286557Y-23070773D01*
X49264613Y-23062921D01*
X49243543Y-23052956D01*
X49223552Y-23040974D01*
X49204832Y-23027090D01*
X49187562Y-23011438D01*
X49171910Y-22994168D01*
X49158026Y-22975448D01*
X49146044Y-22955457D01*
X49136079Y-22934387D01*
X49128227Y-22912443D01*
X49122563Y-22889834D01*
X49119144Y-22866779D01*
X49118000Y-22843500D01*
X49118000Y-22368500D01*
X49119144Y-22345221D01*
X49122563Y-22322166D01*
X49128227Y-22299557D01*
X49136079Y-22277613D01*
X49146044Y-22256543D01*
X49158026Y-22236552D01*
X49171910Y-22217832D01*
X49187562Y-22200562D01*
X49204832Y-22184910D01*
X49223552Y-22171026D01*
X49243543Y-22159044D01*
X49264613Y-22149079D01*
X49286557Y-22141227D01*
X49309166Y-22135563D01*
X49332221Y-22132144D01*
X49355500Y-22131000D01*
X49930500Y-22131000D01*
X49953779Y-22132144D01*
X49953779Y-22132144D01*
G37*
D13*
X49643000Y-22606000D03*
D12*
G36*
X48203779Y-22132144D02*
G01*
X48226834Y-22135563D01*
X48249443Y-22141227D01*
X48271387Y-22149079D01*
X48292457Y-22159044D01*
X48312448Y-22171026D01*
X48331168Y-22184910D01*
X48348438Y-22200562D01*
X48364090Y-22217832D01*
X48377974Y-22236552D01*
X48389956Y-22256543D01*
X48399921Y-22277613D01*
X48407773Y-22299557D01*
X48413437Y-22322166D01*
X48416856Y-22345221D01*
X48418000Y-22368500D01*
X48418000Y-22843500D01*
X48416856Y-22866779D01*
X48413437Y-22889834D01*
X48407773Y-22912443D01*
X48399921Y-22934387D01*
X48389956Y-22955457D01*
X48377974Y-22975448D01*
X48364090Y-22994168D01*
X48348438Y-23011438D01*
X48331168Y-23027090D01*
X48312448Y-23040974D01*
X48292457Y-23052956D01*
X48271387Y-23062921D01*
X48249443Y-23070773D01*
X48226834Y-23076437D01*
X48203779Y-23079856D01*
X48180500Y-23081000D01*
X47605500Y-23081000D01*
X47582221Y-23079856D01*
X47559166Y-23076437D01*
X47536557Y-23070773D01*
X47514613Y-23062921D01*
X47493543Y-23052956D01*
X47473552Y-23040974D01*
X47454832Y-23027090D01*
X47437562Y-23011438D01*
X47421910Y-22994168D01*
X47408026Y-22975448D01*
X47396044Y-22955457D01*
X47386079Y-22934387D01*
X47378227Y-22912443D01*
X47372563Y-22889834D01*
X47369144Y-22866779D01*
X47368000Y-22843500D01*
X47368000Y-22368500D01*
X47369144Y-22345221D01*
X47372563Y-22322166D01*
X47378227Y-22299557D01*
X47386079Y-22277613D01*
X47396044Y-22256543D01*
X47408026Y-22236552D01*
X47421910Y-22217832D01*
X47437562Y-22200562D01*
X47454832Y-22184910D01*
X47473552Y-22171026D01*
X47493543Y-22159044D01*
X47514613Y-22149079D01*
X47536557Y-22141227D01*
X47559166Y-22135563D01*
X47582221Y-22132144D01*
X47605500Y-22131000D01*
X48180500Y-22131000D01*
X48203779Y-22132144D01*
X48203779Y-22132144D01*
G37*
D13*
X47893000Y-22606000D03*
D11*
X60132000Y-25034000D03*
X60132000Y-23734000D03*
X58232000Y-24384000D03*
X60132000Y-24384000D03*
X58232000Y-23734000D03*
X58232000Y-25034000D03*
D10*
X51827000Y-25090000D03*
X52477000Y-25090000D03*
X53127000Y-25090000D03*
X53777000Y-25090000D03*
X54427000Y-25090000D03*
X55077000Y-25090000D03*
X55727000Y-25090000D03*
X56377000Y-25090000D03*
X56377000Y-18090000D03*
X55727000Y-18090000D03*
X55077000Y-18090000D03*
X54427000Y-18090000D03*
X53777000Y-18090000D03*
X53127000Y-18090000D03*
X52477000Y-18090000D03*
X51827000Y-18090000D03*
D11*
X43114000Y-19446000D03*
X43114000Y-18146000D03*
X41214000Y-18796000D03*
X43114000Y-18796000D03*
X41214000Y-18146000D03*
X41214000Y-19446000D03*
X41214000Y-21194000D03*
X41214000Y-22494000D03*
X43114000Y-21844000D03*
X41214000Y-21844000D03*
X43114000Y-22494000D03*
X43114000Y-21194000D03*
D12*
G36*
X32935779Y-22132144D02*
G01*
X32958834Y-22135563D01*
X32981443Y-22141227D01*
X33003387Y-22149079D01*
X33024457Y-22159044D01*
X33044448Y-22171026D01*
X33063168Y-22184910D01*
X33080438Y-22200562D01*
X33096090Y-22217832D01*
X33109974Y-22236552D01*
X33121956Y-22256543D01*
X33131921Y-22277613D01*
X33139773Y-22299557D01*
X33145437Y-22322166D01*
X33148856Y-22345221D01*
X33150000Y-22368500D01*
X33150000Y-22843500D01*
X33148856Y-22866779D01*
X33145437Y-22889834D01*
X33139773Y-22912443D01*
X33131921Y-22934387D01*
X33121956Y-22955457D01*
X33109974Y-22975448D01*
X33096090Y-22994168D01*
X33080438Y-23011438D01*
X33063168Y-23027090D01*
X33044448Y-23040974D01*
X33024457Y-23052956D01*
X33003387Y-23062921D01*
X32981443Y-23070773D01*
X32958834Y-23076437D01*
X32935779Y-23079856D01*
X32912500Y-23081000D01*
X32337500Y-23081000D01*
X32314221Y-23079856D01*
X32291166Y-23076437D01*
X32268557Y-23070773D01*
X32246613Y-23062921D01*
X32225543Y-23052956D01*
X32205552Y-23040974D01*
X32186832Y-23027090D01*
X32169562Y-23011438D01*
X32153910Y-22994168D01*
X32140026Y-22975448D01*
X32128044Y-22955457D01*
X32118079Y-22934387D01*
X32110227Y-22912443D01*
X32104563Y-22889834D01*
X32101144Y-22866779D01*
X32100000Y-22843500D01*
X32100000Y-22368500D01*
X32101144Y-22345221D01*
X32104563Y-22322166D01*
X32110227Y-22299557D01*
X32118079Y-22277613D01*
X32128044Y-22256543D01*
X32140026Y-22236552D01*
X32153910Y-22217832D01*
X32169562Y-22200562D01*
X32186832Y-22184910D01*
X32205552Y-22171026D01*
X32225543Y-22159044D01*
X32246613Y-22149079D01*
X32268557Y-22141227D01*
X32291166Y-22135563D01*
X32314221Y-22132144D01*
X32337500Y-22131000D01*
X32912500Y-22131000D01*
X32935779Y-22132144D01*
X32935779Y-22132144D01*
G37*
D13*
X32625000Y-22606000D03*
D12*
G36*
X31185779Y-22132144D02*
G01*
X31208834Y-22135563D01*
X31231443Y-22141227D01*
X31253387Y-22149079D01*
X31274457Y-22159044D01*
X31294448Y-22171026D01*
X31313168Y-22184910D01*
X31330438Y-22200562D01*
X31346090Y-22217832D01*
X31359974Y-22236552D01*
X31371956Y-22256543D01*
X31381921Y-22277613D01*
X31389773Y-22299557D01*
X31395437Y-22322166D01*
X31398856Y-22345221D01*
X31400000Y-22368500D01*
X31400000Y-22843500D01*
X31398856Y-22866779D01*
X31395437Y-22889834D01*
X31389773Y-22912443D01*
X31381921Y-22934387D01*
X31371956Y-22955457D01*
X31359974Y-22975448D01*
X31346090Y-22994168D01*
X31330438Y-23011438D01*
X31313168Y-23027090D01*
X31294448Y-23040974D01*
X31274457Y-23052956D01*
X31253387Y-23062921D01*
X31231443Y-23070773D01*
X31208834Y-23076437D01*
X31185779Y-23079856D01*
X31162500Y-23081000D01*
X30587500Y-23081000D01*
X30564221Y-23079856D01*
X30541166Y-23076437D01*
X30518557Y-23070773D01*
X30496613Y-23062921D01*
X30475543Y-23052956D01*
X30455552Y-23040974D01*
X30436832Y-23027090D01*
X30419562Y-23011438D01*
X30403910Y-22994168D01*
X30390026Y-22975448D01*
X30378044Y-22955457D01*
X30368079Y-22934387D01*
X30360227Y-22912443D01*
X30354563Y-22889834D01*
X30351144Y-22866779D01*
X30350000Y-22843500D01*
X30350000Y-22368500D01*
X30351144Y-22345221D01*
X30354563Y-22322166D01*
X30360227Y-22299557D01*
X30368079Y-22277613D01*
X30378044Y-22256543D01*
X30390026Y-22236552D01*
X30403910Y-22217832D01*
X30419562Y-22200562D01*
X30436832Y-22184910D01*
X30455552Y-22171026D01*
X30475543Y-22159044D01*
X30496613Y-22149079D01*
X30518557Y-22141227D01*
X30541166Y-22135563D01*
X30564221Y-22132144D01*
X30587500Y-22131000D01*
X31162500Y-22131000D01*
X31185779Y-22132144D01*
X31185779Y-22132144D01*
G37*
D13*
X30875000Y-22606000D03*
D11*
X43114000Y-25034000D03*
X43114000Y-23734000D03*
X41214000Y-24384000D03*
X43114000Y-24384000D03*
X41214000Y-23734000D03*
X41214000Y-25034000D03*
D10*
X34809000Y-25090000D03*
X35459000Y-25090000D03*
X36109000Y-25090000D03*
X36759000Y-25090000D03*
X37409000Y-25090000D03*
X38059000Y-25090000D03*
X38709000Y-25090000D03*
X39359000Y-25090000D03*
X39359000Y-18090000D03*
X38709000Y-18090000D03*
X38059000Y-18090000D03*
X37409000Y-18090000D03*
X36759000Y-18090000D03*
X36109000Y-18090000D03*
X35459000Y-18090000D03*
X34809000Y-18090000D03*
D11*
X24196000Y-25034000D03*
X24196000Y-23734000D03*
X26096000Y-24384000D03*
X24196000Y-24384000D03*
X26096000Y-23734000D03*
X26096000Y-25034000D03*
D12*
G36*
X14167779Y-22132144D02*
G01*
X14190834Y-22135563D01*
X14213443Y-22141227D01*
X14235387Y-22149079D01*
X14256457Y-22159044D01*
X14276448Y-22171026D01*
X14295168Y-22184910D01*
X14312438Y-22200562D01*
X14328090Y-22217832D01*
X14341974Y-22236552D01*
X14353956Y-22256543D01*
X14363921Y-22277613D01*
X14371773Y-22299557D01*
X14377437Y-22322166D01*
X14380856Y-22345221D01*
X14382000Y-22368500D01*
X14382000Y-22843500D01*
X14380856Y-22866779D01*
X14377437Y-22889834D01*
X14371773Y-22912443D01*
X14363921Y-22934387D01*
X14353956Y-22955457D01*
X14341974Y-22975448D01*
X14328090Y-22994168D01*
X14312438Y-23011438D01*
X14295168Y-23027090D01*
X14276448Y-23040974D01*
X14256457Y-23052956D01*
X14235387Y-23062921D01*
X14213443Y-23070773D01*
X14190834Y-23076437D01*
X14167779Y-23079856D01*
X14144500Y-23081000D01*
X13569500Y-23081000D01*
X13546221Y-23079856D01*
X13523166Y-23076437D01*
X13500557Y-23070773D01*
X13478613Y-23062921D01*
X13457543Y-23052956D01*
X13437552Y-23040974D01*
X13418832Y-23027090D01*
X13401562Y-23011438D01*
X13385910Y-22994168D01*
X13372026Y-22975448D01*
X13360044Y-22955457D01*
X13350079Y-22934387D01*
X13342227Y-22912443D01*
X13336563Y-22889834D01*
X13333144Y-22866779D01*
X13332000Y-22843500D01*
X13332000Y-22368500D01*
X13333144Y-22345221D01*
X13336563Y-22322166D01*
X13342227Y-22299557D01*
X13350079Y-22277613D01*
X13360044Y-22256543D01*
X13372026Y-22236552D01*
X13385910Y-22217832D01*
X13401562Y-22200562D01*
X13418832Y-22184910D01*
X13437552Y-22171026D01*
X13457543Y-22159044D01*
X13478613Y-22149079D01*
X13500557Y-22141227D01*
X13523166Y-22135563D01*
X13546221Y-22132144D01*
X13569500Y-22131000D01*
X14144500Y-22131000D01*
X14167779Y-22132144D01*
X14167779Y-22132144D01*
G37*
D13*
X13857000Y-22606000D03*
D12*
G36*
X15917779Y-22132144D02*
G01*
X15940834Y-22135563D01*
X15963443Y-22141227D01*
X15985387Y-22149079D01*
X16006457Y-22159044D01*
X16026448Y-22171026D01*
X16045168Y-22184910D01*
X16062438Y-22200562D01*
X16078090Y-22217832D01*
X16091974Y-22236552D01*
X16103956Y-22256543D01*
X16113921Y-22277613D01*
X16121773Y-22299557D01*
X16127437Y-22322166D01*
X16130856Y-22345221D01*
X16132000Y-22368500D01*
X16132000Y-22843500D01*
X16130856Y-22866779D01*
X16127437Y-22889834D01*
X16121773Y-22912443D01*
X16113921Y-22934387D01*
X16103956Y-22955457D01*
X16091974Y-22975448D01*
X16078090Y-22994168D01*
X16062438Y-23011438D01*
X16045168Y-23027090D01*
X16026448Y-23040974D01*
X16006457Y-23052956D01*
X15985387Y-23062921D01*
X15963443Y-23070773D01*
X15940834Y-23076437D01*
X15917779Y-23079856D01*
X15894500Y-23081000D01*
X15319500Y-23081000D01*
X15296221Y-23079856D01*
X15273166Y-23076437D01*
X15250557Y-23070773D01*
X15228613Y-23062921D01*
X15207543Y-23052956D01*
X15187552Y-23040974D01*
X15168832Y-23027090D01*
X15151562Y-23011438D01*
X15135910Y-22994168D01*
X15122026Y-22975448D01*
X15110044Y-22955457D01*
X15100079Y-22934387D01*
X15092227Y-22912443D01*
X15086563Y-22889834D01*
X15083144Y-22866779D01*
X15082000Y-22843500D01*
X15082000Y-22368500D01*
X15083144Y-22345221D01*
X15086563Y-22322166D01*
X15092227Y-22299557D01*
X15100079Y-22277613D01*
X15110044Y-22256543D01*
X15122026Y-22236552D01*
X15135910Y-22217832D01*
X15151562Y-22200562D01*
X15168832Y-22184910D01*
X15187552Y-22171026D01*
X15207543Y-22159044D01*
X15228613Y-22149079D01*
X15250557Y-22141227D01*
X15273166Y-22135563D01*
X15296221Y-22132144D01*
X15319500Y-22131000D01*
X15894500Y-22131000D01*
X15917779Y-22132144D01*
X15917779Y-22132144D01*
G37*
D13*
X15607000Y-22606000D03*
D10*
X17791000Y-18090000D03*
X18441000Y-18090000D03*
X19091000Y-18090000D03*
X19741000Y-18090000D03*
X20391000Y-18090000D03*
X21041000Y-18090000D03*
X21691000Y-18090000D03*
X22341000Y-18090000D03*
X22341000Y-25090000D03*
X21691000Y-25090000D03*
X21041000Y-25090000D03*
X20391000Y-25090000D03*
X19741000Y-25090000D03*
X19091000Y-25090000D03*
X18441000Y-25090000D03*
X17791000Y-25090000D03*
D11*
X26096000Y-21194000D03*
X26096000Y-22494000D03*
X24196000Y-21844000D03*
X26096000Y-21844000D03*
X24196000Y-22494000D03*
X24196000Y-21194000D03*
X24196000Y-19446000D03*
X24196000Y-18146000D03*
X26096000Y-18796000D03*
X24196000Y-18796000D03*
X26096000Y-18146000D03*
X26096000Y-19446000D03*
M02*
