G04 #@! TF.GenerationSoftware,KiCad,Pcbnew,5.1.0*
G04 #@! TF.CreationDate,2019-09-19T01:17:52+09:00*
G04 #@! TF.ProjectId,panelized_switch,70616e65-6c69-47a6-9564-5f7377697463,rev?*
G04 #@! TF.SameCoordinates,Original*
G04 #@! TF.FileFunction,Legend,Top*
G04 #@! TF.FilePolarity,Positive*
%FSLAX46Y46*%
G04 Gerber Fmt 4.6, Leading zero omitted, Abs format (unit mm)*
G04 Created by KiCad (PCBNEW 5.1.0) date 2019-09-19 01:17:52*
%MOMM*%
%LPD*%
G04 APERTURE LIST*
%ADD10C,0.120000*%
G04 APERTURE END LIST*
D10*
X13716000Y-98044000D02*
X13716000Y-84074000D01*
X27686000Y-98044000D02*
X13716000Y-98044000D01*
X27686000Y-84074000D02*
X27686000Y-98044000D01*
X13716000Y-84074000D02*
X27686000Y-84074000D01*
X106366000Y-87944000D02*
X109026000Y-87944000D01*
X106366000Y-87884000D02*
X106366000Y-87944000D01*
X109026000Y-87884000D02*
X109026000Y-87944000D01*
X106366000Y-87884000D02*
X109026000Y-87884000D01*
X106366000Y-86614000D02*
X106366000Y-85284000D01*
X106366000Y-85284000D02*
X107696000Y-85284000D01*
X90364000Y-87944000D02*
X93024000Y-87944000D01*
X90364000Y-87884000D02*
X90364000Y-87944000D01*
X93024000Y-87884000D02*
X93024000Y-87944000D01*
X90364000Y-87884000D02*
X93024000Y-87884000D01*
X90364000Y-86614000D02*
X90364000Y-85284000D01*
X90364000Y-85284000D02*
X91694000Y-85284000D01*
X76394000Y-95564000D02*
X79054000Y-95564000D01*
X76394000Y-95504000D02*
X76394000Y-95564000D01*
X79054000Y-95504000D02*
X79054000Y-95564000D01*
X76394000Y-95504000D02*
X79054000Y-95504000D01*
X76394000Y-94234000D02*
X76394000Y-92904000D01*
X76394000Y-92904000D02*
X77724000Y-92904000D01*
X16935267Y-82929000D02*
X16592733Y-82929000D01*
X16935267Y-83949000D02*
X16592733Y-83949000D01*
X93726000Y-84074000D02*
X107696000Y-84074000D01*
X107696000Y-84074000D02*
X107696000Y-98044000D01*
X107696000Y-98044000D02*
X93726000Y-98044000D01*
X93726000Y-98044000D02*
X93726000Y-84074000D01*
X22261000Y-95059000D02*
X22261000Y-94903000D01*
X22261000Y-97375000D02*
X22261000Y-97219000D01*
X19659870Y-95059163D02*
G75*
G02X21741961Y-95059000I1041130J-1079837D01*
G01*
X19659870Y-97218837D02*
G75*
G03X21741961Y-97219000I1041130J1079837D01*
G01*
X19028665Y-95060392D02*
G75*
G02X22261000Y-94903484I1672335J-1078608D01*
G01*
X19028665Y-97217608D02*
G75*
G03X22261000Y-97374516I1672335J1078608D01*
G01*
X26356000Y-85284000D02*
X27686000Y-85284000D01*
X26356000Y-86614000D02*
X26356000Y-85284000D01*
X26356000Y-87884000D02*
X29016000Y-87884000D01*
X29016000Y-87884000D02*
X29016000Y-87944000D01*
X26356000Y-87884000D02*
X26356000Y-87944000D01*
X26356000Y-87944000D02*
X29016000Y-87944000D01*
X12386000Y-85284000D02*
X13716000Y-85284000D01*
X12386000Y-86614000D02*
X12386000Y-85284000D01*
X12386000Y-87884000D02*
X15046000Y-87884000D01*
X15046000Y-87884000D02*
X15046000Y-90484000D01*
X12386000Y-87884000D02*
X12386000Y-90484000D01*
X12386000Y-90484000D02*
X15046000Y-90484000D01*
X12386000Y-92904000D02*
X13716000Y-92904000D01*
X12386000Y-94234000D02*
X12386000Y-92904000D01*
X12386000Y-95504000D02*
X15046000Y-95504000D01*
X15046000Y-95504000D02*
X15046000Y-95564000D01*
X12386000Y-95504000D02*
X12386000Y-95564000D01*
X12386000Y-95564000D02*
X15046000Y-95564000D01*
X99038665Y-97217608D02*
G75*
G03X102271000Y-97374516I1672335J1078608D01*
G01*
X99038665Y-95060392D02*
G75*
G02X102271000Y-94903484I1672335J-1078608D01*
G01*
X99669870Y-97218837D02*
G75*
G03X101751961Y-97219000I1041130J1079837D01*
G01*
X99669870Y-95059163D02*
G75*
G02X101751961Y-95059000I1041130J-1079837D01*
G01*
X102271000Y-97375000D02*
X102271000Y-97219000D01*
X102271000Y-95059000D02*
X102271000Y-94903000D01*
X80943267Y-83949000D02*
X80600733Y-83949000D01*
X80943267Y-82929000D02*
X80600733Y-82929000D01*
X60392000Y-90484000D02*
X63052000Y-90484000D01*
X60392000Y-87884000D02*
X60392000Y-90484000D01*
X63052000Y-87884000D02*
X63052000Y-90484000D01*
X60392000Y-87884000D02*
X63052000Y-87884000D01*
X60392000Y-86614000D02*
X60392000Y-85284000D01*
X60392000Y-85284000D02*
X61722000Y-85284000D01*
X109026000Y-90364000D02*
X106366000Y-90364000D01*
X109026000Y-92964000D02*
X109026000Y-90364000D01*
X106366000Y-92964000D02*
X106366000Y-90364000D01*
X109026000Y-92964000D02*
X106366000Y-92964000D01*
X109026000Y-94234000D02*
X109026000Y-95564000D01*
X109026000Y-95564000D02*
X107696000Y-95564000D01*
X96945267Y-83949000D02*
X96602733Y-83949000D01*
X96945267Y-82929000D02*
X96602733Y-82929000D01*
X67034665Y-97217608D02*
G75*
G03X70267000Y-97374516I1672335J1078608D01*
G01*
X67034665Y-95060392D02*
G75*
G02X70267000Y-94903484I1672335J-1078608D01*
G01*
X67665870Y-97218837D02*
G75*
G03X69747961Y-97219000I1041130J1079837D01*
G01*
X67665870Y-95059163D02*
G75*
G02X69747961Y-95059000I1041130J-1079837D01*
G01*
X70267000Y-97375000D02*
X70267000Y-97219000D01*
X70267000Y-95059000D02*
X70267000Y-94903000D01*
X44390000Y-95564000D02*
X47050000Y-95564000D01*
X44390000Y-95504000D02*
X44390000Y-95564000D01*
X47050000Y-95504000D02*
X47050000Y-95564000D01*
X44390000Y-95504000D02*
X47050000Y-95504000D01*
X44390000Y-94234000D02*
X44390000Y-92904000D01*
X44390000Y-92904000D02*
X45720000Y-92904000D01*
X28388000Y-92904000D02*
X29718000Y-92904000D01*
X28388000Y-94234000D02*
X28388000Y-92904000D01*
X28388000Y-95504000D02*
X31048000Y-95504000D01*
X31048000Y-95504000D02*
X31048000Y-95564000D01*
X28388000Y-95504000D02*
X28388000Y-95564000D01*
X28388000Y-95564000D02*
X31048000Y-95564000D01*
X32937267Y-82929000D02*
X32594733Y-82929000D01*
X32937267Y-83949000D02*
X32594733Y-83949000D01*
X77724000Y-84074000D02*
X91694000Y-84074000D01*
X91694000Y-84074000D02*
X91694000Y-98044000D01*
X91694000Y-98044000D02*
X77724000Y-98044000D01*
X77724000Y-98044000D02*
X77724000Y-84074000D01*
X45018000Y-95564000D02*
X43688000Y-95564000D01*
X45018000Y-94234000D02*
X45018000Y-95564000D01*
X45018000Y-92964000D02*
X42358000Y-92964000D01*
X42358000Y-92964000D02*
X42358000Y-90364000D01*
X45018000Y-92964000D02*
X45018000Y-90364000D01*
X45018000Y-90364000D02*
X42358000Y-90364000D01*
X92396000Y-95564000D02*
X95056000Y-95564000D01*
X92396000Y-95504000D02*
X92396000Y-95564000D01*
X95056000Y-95504000D02*
X95056000Y-95564000D01*
X92396000Y-95504000D02*
X95056000Y-95504000D01*
X92396000Y-94234000D02*
X92396000Y-92904000D01*
X92396000Y-92904000D02*
X93726000Y-92904000D01*
X42358000Y-85284000D02*
X43688000Y-85284000D01*
X42358000Y-86614000D02*
X42358000Y-85284000D01*
X42358000Y-87884000D02*
X45018000Y-87884000D01*
X45018000Y-87884000D02*
X45018000Y-87944000D01*
X42358000Y-87884000D02*
X42358000Y-87944000D01*
X42358000Y-87944000D02*
X45018000Y-87944000D01*
X83036665Y-97217608D02*
G75*
G03X86269000Y-97374516I1672335J1078608D01*
G01*
X83036665Y-95060392D02*
G75*
G02X86269000Y-94903484I1672335J-1078608D01*
G01*
X83667870Y-97218837D02*
G75*
G03X85749961Y-97219000I1041130J1079837D01*
G01*
X83667870Y-95059163D02*
G75*
G02X85749961Y-95059000I1041130J-1079837D01*
G01*
X86269000Y-97375000D02*
X86269000Y-97219000D01*
X86269000Y-95059000D02*
X86269000Y-94903000D01*
X76394000Y-90484000D02*
X79054000Y-90484000D01*
X76394000Y-87884000D02*
X76394000Y-90484000D01*
X79054000Y-87884000D02*
X79054000Y-90484000D01*
X76394000Y-87884000D02*
X79054000Y-87884000D01*
X76394000Y-86614000D02*
X76394000Y-85284000D01*
X76394000Y-85284000D02*
X77724000Y-85284000D01*
X29718000Y-98044000D02*
X29718000Y-84074000D01*
X43688000Y-98044000D02*
X29718000Y-98044000D01*
X43688000Y-84074000D02*
X43688000Y-98044000D01*
X29718000Y-84074000D02*
X43688000Y-84074000D01*
X44390000Y-90484000D02*
X47050000Y-90484000D01*
X44390000Y-87884000D02*
X44390000Y-90484000D01*
X47050000Y-87884000D02*
X47050000Y-90484000D01*
X44390000Y-87884000D02*
X47050000Y-87884000D01*
X44390000Y-86614000D02*
X44390000Y-85284000D01*
X44390000Y-85284000D02*
X45720000Y-85284000D01*
X28388000Y-85284000D02*
X29718000Y-85284000D01*
X28388000Y-86614000D02*
X28388000Y-85284000D01*
X28388000Y-87884000D02*
X31048000Y-87884000D01*
X31048000Y-87884000D02*
X31048000Y-90484000D01*
X28388000Y-87884000D02*
X28388000Y-90484000D01*
X28388000Y-90484000D02*
X31048000Y-90484000D01*
X61020000Y-90364000D02*
X58360000Y-90364000D01*
X61020000Y-92964000D02*
X61020000Y-90364000D01*
X58360000Y-92964000D02*
X58360000Y-90364000D01*
X61020000Y-92964000D02*
X58360000Y-92964000D01*
X61020000Y-94234000D02*
X61020000Y-95564000D01*
X61020000Y-95564000D02*
X59690000Y-95564000D01*
X93024000Y-90364000D02*
X90364000Y-90364000D01*
X93024000Y-92964000D02*
X93024000Y-90364000D01*
X90364000Y-92964000D02*
X90364000Y-90364000D01*
X93024000Y-92964000D02*
X90364000Y-92964000D01*
X93024000Y-94234000D02*
X93024000Y-95564000D01*
X93024000Y-95564000D02*
X91694000Y-95564000D01*
X51032665Y-97217608D02*
G75*
G03X54265000Y-97374516I1672335J1078608D01*
G01*
X51032665Y-95060392D02*
G75*
G02X54265000Y-94903484I1672335J-1078608D01*
G01*
X51663870Y-97218837D02*
G75*
G03X53745961Y-97219000I1041130J1079837D01*
G01*
X51663870Y-95059163D02*
G75*
G02X53745961Y-95059000I1041130J-1079837D01*
G01*
X54265000Y-97375000D02*
X54265000Y-97219000D01*
X54265000Y-95059000D02*
X54265000Y-94903000D01*
X38263000Y-95059000D02*
X38263000Y-94903000D01*
X38263000Y-97375000D02*
X38263000Y-97219000D01*
X35661870Y-95059163D02*
G75*
G02X37743961Y-95059000I1041130J-1079837D01*
G01*
X35661870Y-97218837D02*
G75*
G03X37743961Y-97219000I1041130J1079837D01*
G01*
X35030665Y-95060392D02*
G75*
G02X38263000Y-94903484I1672335J-1078608D01*
G01*
X35030665Y-97217608D02*
G75*
G03X38263000Y-97374516I1672335J1078608D01*
G01*
X92396000Y-90484000D02*
X95056000Y-90484000D01*
X92396000Y-87884000D02*
X92396000Y-90484000D01*
X95056000Y-87884000D02*
X95056000Y-90484000D01*
X92396000Y-87884000D02*
X95056000Y-87884000D01*
X92396000Y-86614000D02*
X92396000Y-85284000D01*
X92396000Y-85284000D02*
X93726000Y-85284000D01*
X77022000Y-90364000D02*
X74362000Y-90364000D01*
X77022000Y-92964000D02*
X77022000Y-90364000D01*
X74362000Y-92964000D02*
X74362000Y-90364000D01*
X77022000Y-92964000D02*
X74362000Y-92964000D01*
X77022000Y-94234000D02*
X77022000Y-95564000D01*
X77022000Y-95564000D02*
X75692000Y-95564000D01*
X61722000Y-84074000D02*
X75692000Y-84074000D01*
X75692000Y-84074000D02*
X75692000Y-98044000D01*
X75692000Y-98044000D02*
X61722000Y-98044000D01*
X61722000Y-98044000D02*
X61722000Y-84074000D01*
X64941267Y-83949000D02*
X64598733Y-83949000D01*
X64941267Y-82929000D02*
X64598733Y-82929000D01*
X29016000Y-95564000D02*
X27686000Y-95564000D01*
X29016000Y-94234000D02*
X29016000Y-95564000D01*
X29016000Y-92964000D02*
X26356000Y-92964000D01*
X26356000Y-92964000D02*
X26356000Y-90364000D01*
X29016000Y-92964000D02*
X29016000Y-90364000D01*
X29016000Y-90364000D02*
X26356000Y-90364000D01*
X60392000Y-95564000D02*
X63052000Y-95564000D01*
X60392000Y-95504000D02*
X60392000Y-95564000D01*
X63052000Y-95504000D02*
X63052000Y-95564000D01*
X60392000Y-95504000D02*
X63052000Y-95504000D01*
X60392000Y-94234000D02*
X60392000Y-92904000D01*
X60392000Y-92904000D02*
X61722000Y-92904000D01*
X45720000Y-84074000D02*
X59690000Y-84074000D01*
X59690000Y-84074000D02*
X59690000Y-98044000D01*
X59690000Y-98044000D02*
X45720000Y-98044000D01*
X45720000Y-98044000D02*
X45720000Y-84074000D01*
X74362000Y-87944000D02*
X77022000Y-87944000D01*
X74362000Y-87884000D02*
X74362000Y-87944000D01*
X77022000Y-87884000D02*
X77022000Y-87944000D01*
X74362000Y-87884000D02*
X77022000Y-87884000D01*
X74362000Y-86614000D02*
X74362000Y-85284000D01*
X74362000Y-85284000D02*
X75692000Y-85284000D01*
X58360000Y-87944000D02*
X61020000Y-87944000D01*
X58360000Y-87884000D02*
X58360000Y-87944000D01*
X61020000Y-87884000D02*
X61020000Y-87944000D01*
X58360000Y-87884000D02*
X61020000Y-87884000D01*
X58360000Y-86614000D02*
X58360000Y-85284000D01*
X58360000Y-85284000D02*
X59690000Y-85284000D01*
X48939267Y-83949000D02*
X48596733Y-83949000D01*
X48939267Y-82929000D02*
X48596733Y-82929000D01*
X13716000Y-80772000D02*
X13716000Y-66802000D01*
X27686000Y-80772000D02*
X13716000Y-80772000D01*
X27686000Y-66802000D02*
X27686000Y-80772000D01*
X13716000Y-66802000D02*
X27686000Y-66802000D01*
X106366000Y-70672000D02*
X109026000Y-70672000D01*
X106366000Y-70612000D02*
X106366000Y-70672000D01*
X109026000Y-70612000D02*
X109026000Y-70672000D01*
X106366000Y-70612000D02*
X109026000Y-70612000D01*
X106366000Y-69342000D02*
X106366000Y-68012000D01*
X106366000Y-68012000D02*
X107696000Y-68012000D01*
X90364000Y-70672000D02*
X93024000Y-70672000D01*
X90364000Y-70612000D02*
X90364000Y-70672000D01*
X93024000Y-70612000D02*
X93024000Y-70672000D01*
X90364000Y-70612000D02*
X93024000Y-70612000D01*
X90364000Y-69342000D02*
X90364000Y-68012000D01*
X90364000Y-68012000D02*
X91694000Y-68012000D01*
X76394000Y-78292000D02*
X79054000Y-78292000D01*
X76394000Y-78232000D02*
X76394000Y-78292000D01*
X79054000Y-78232000D02*
X79054000Y-78292000D01*
X76394000Y-78232000D02*
X79054000Y-78232000D01*
X76394000Y-76962000D02*
X76394000Y-75632000D01*
X76394000Y-75632000D02*
X77724000Y-75632000D01*
X16935267Y-65657000D02*
X16592733Y-65657000D01*
X16935267Y-66677000D02*
X16592733Y-66677000D01*
X93726000Y-66802000D02*
X107696000Y-66802000D01*
X107696000Y-66802000D02*
X107696000Y-80772000D01*
X107696000Y-80772000D02*
X93726000Y-80772000D01*
X93726000Y-80772000D02*
X93726000Y-66802000D01*
X22261000Y-77787000D02*
X22261000Y-77631000D01*
X22261000Y-80103000D02*
X22261000Y-79947000D01*
X19659870Y-77787163D02*
G75*
G02X21741961Y-77787000I1041130J-1079837D01*
G01*
X19659870Y-79946837D02*
G75*
G03X21741961Y-79947000I1041130J1079837D01*
G01*
X19028665Y-77788392D02*
G75*
G02X22261000Y-77631484I1672335J-1078608D01*
G01*
X19028665Y-79945608D02*
G75*
G03X22261000Y-80102516I1672335J1078608D01*
G01*
X26356000Y-68012000D02*
X27686000Y-68012000D01*
X26356000Y-69342000D02*
X26356000Y-68012000D01*
X26356000Y-70612000D02*
X29016000Y-70612000D01*
X29016000Y-70612000D02*
X29016000Y-70672000D01*
X26356000Y-70612000D02*
X26356000Y-70672000D01*
X26356000Y-70672000D02*
X29016000Y-70672000D01*
X12386000Y-68012000D02*
X13716000Y-68012000D01*
X12386000Y-69342000D02*
X12386000Y-68012000D01*
X12386000Y-70612000D02*
X15046000Y-70612000D01*
X15046000Y-70612000D02*
X15046000Y-73212000D01*
X12386000Y-70612000D02*
X12386000Y-73212000D01*
X12386000Y-73212000D02*
X15046000Y-73212000D01*
X12386000Y-75632000D02*
X13716000Y-75632000D01*
X12386000Y-76962000D02*
X12386000Y-75632000D01*
X12386000Y-78232000D02*
X15046000Y-78232000D01*
X15046000Y-78232000D02*
X15046000Y-78292000D01*
X12386000Y-78232000D02*
X12386000Y-78292000D01*
X12386000Y-78292000D02*
X15046000Y-78292000D01*
X99038665Y-79945608D02*
G75*
G03X102271000Y-80102516I1672335J1078608D01*
G01*
X99038665Y-77788392D02*
G75*
G02X102271000Y-77631484I1672335J-1078608D01*
G01*
X99669870Y-79946837D02*
G75*
G03X101751961Y-79947000I1041130J1079837D01*
G01*
X99669870Y-77787163D02*
G75*
G02X101751961Y-77787000I1041130J-1079837D01*
G01*
X102271000Y-80103000D02*
X102271000Y-79947000D01*
X102271000Y-77787000D02*
X102271000Y-77631000D01*
X80943267Y-66677000D02*
X80600733Y-66677000D01*
X80943267Y-65657000D02*
X80600733Y-65657000D01*
X60392000Y-73212000D02*
X63052000Y-73212000D01*
X60392000Y-70612000D02*
X60392000Y-73212000D01*
X63052000Y-70612000D02*
X63052000Y-73212000D01*
X60392000Y-70612000D02*
X63052000Y-70612000D01*
X60392000Y-69342000D02*
X60392000Y-68012000D01*
X60392000Y-68012000D02*
X61722000Y-68012000D01*
X109026000Y-73092000D02*
X106366000Y-73092000D01*
X109026000Y-75692000D02*
X109026000Y-73092000D01*
X106366000Y-75692000D02*
X106366000Y-73092000D01*
X109026000Y-75692000D02*
X106366000Y-75692000D01*
X109026000Y-76962000D02*
X109026000Y-78292000D01*
X109026000Y-78292000D02*
X107696000Y-78292000D01*
X96945267Y-66677000D02*
X96602733Y-66677000D01*
X96945267Y-65657000D02*
X96602733Y-65657000D01*
X67034665Y-79945608D02*
G75*
G03X70267000Y-80102516I1672335J1078608D01*
G01*
X67034665Y-77788392D02*
G75*
G02X70267000Y-77631484I1672335J-1078608D01*
G01*
X67665870Y-79946837D02*
G75*
G03X69747961Y-79947000I1041130J1079837D01*
G01*
X67665870Y-77787163D02*
G75*
G02X69747961Y-77787000I1041130J-1079837D01*
G01*
X70267000Y-80103000D02*
X70267000Y-79947000D01*
X70267000Y-77787000D02*
X70267000Y-77631000D01*
X44390000Y-78292000D02*
X47050000Y-78292000D01*
X44390000Y-78232000D02*
X44390000Y-78292000D01*
X47050000Y-78232000D02*
X47050000Y-78292000D01*
X44390000Y-78232000D02*
X47050000Y-78232000D01*
X44390000Y-76962000D02*
X44390000Y-75632000D01*
X44390000Y-75632000D02*
X45720000Y-75632000D01*
X28388000Y-75632000D02*
X29718000Y-75632000D01*
X28388000Y-76962000D02*
X28388000Y-75632000D01*
X28388000Y-78232000D02*
X31048000Y-78232000D01*
X31048000Y-78232000D02*
X31048000Y-78292000D01*
X28388000Y-78232000D02*
X28388000Y-78292000D01*
X28388000Y-78292000D02*
X31048000Y-78292000D01*
X32937267Y-65657000D02*
X32594733Y-65657000D01*
X32937267Y-66677000D02*
X32594733Y-66677000D01*
X77724000Y-66802000D02*
X91694000Y-66802000D01*
X91694000Y-66802000D02*
X91694000Y-80772000D01*
X91694000Y-80772000D02*
X77724000Y-80772000D01*
X77724000Y-80772000D02*
X77724000Y-66802000D01*
X45018000Y-78292000D02*
X43688000Y-78292000D01*
X45018000Y-76962000D02*
X45018000Y-78292000D01*
X45018000Y-75692000D02*
X42358000Y-75692000D01*
X42358000Y-75692000D02*
X42358000Y-73092000D01*
X45018000Y-75692000D02*
X45018000Y-73092000D01*
X45018000Y-73092000D02*
X42358000Y-73092000D01*
X92396000Y-78292000D02*
X95056000Y-78292000D01*
X92396000Y-78232000D02*
X92396000Y-78292000D01*
X95056000Y-78232000D02*
X95056000Y-78292000D01*
X92396000Y-78232000D02*
X95056000Y-78232000D01*
X92396000Y-76962000D02*
X92396000Y-75632000D01*
X92396000Y-75632000D02*
X93726000Y-75632000D01*
X42358000Y-68012000D02*
X43688000Y-68012000D01*
X42358000Y-69342000D02*
X42358000Y-68012000D01*
X42358000Y-70612000D02*
X45018000Y-70612000D01*
X45018000Y-70612000D02*
X45018000Y-70672000D01*
X42358000Y-70612000D02*
X42358000Y-70672000D01*
X42358000Y-70672000D02*
X45018000Y-70672000D01*
X83036665Y-79945608D02*
G75*
G03X86269000Y-80102516I1672335J1078608D01*
G01*
X83036665Y-77788392D02*
G75*
G02X86269000Y-77631484I1672335J-1078608D01*
G01*
X83667870Y-79946837D02*
G75*
G03X85749961Y-79947000I1041130J1079837D01*
G01*
X83667870Y-77787163D02*
G75*
G02X85749961Y-77787000I1041130J-1079837D01*
G01*
X86269000Y-80103000D02*
X86269000Y-79947000D01*
X86269000Y-77787000D02*
X86269000Y-77631000D01*
X76394000Y-73212000D02*
X79054000Y-73212000D01*
X76394000Y-70612000D02*
X76394000Y-73212000D01*
X79054000Y-70612000D02*
X79054000Y-73212000D01*
X76394000Y-70612000D02*
X79054000Y-70612000D01*
X76394000Y-69342000D02*
X76394000Y-68012000D01*
X76394000Y-68012000D02*
X77724000Y-68012000D01*
X29718000Y-80772000D02*
X29718000Y-66802000D01*
X43688000Y-80772000D02*
X29718000Y-80772000D01*
X43688000Y-66802000D02*
X43688000Y-80772000D01*
X29718000Y-66802000D02*
X43688000Y-66802000D01*
X44390000Y-73212000D02*
X47050000Y-73212000D01*
X44390000Y-70612000D02*
X44390000Y-73212000D01*
X47050000Y-70612000D02*
X47050000Y-73212000D01*
X44390000Y-70612000D02*
X47050000Y-70612000D01*
X44390000Y-69342000D02*
X44390000Y-68012000D01*
X44390000Y-68012000D02*
X45720000Y-68012000D01*
X28388000Y-68012000D02*
X29718000Y-68012000D01*
X28388000Y-69342000D02*
X28388000Y-68012000D01*
X28388000Y-70612000D02*
X31048000Y-70612000D01*
X31048000Y-70612000D02*
X31048000Y-73212000D01*
X28388000Y-70612000D02*
X28388000Y-73212000D01*
X28388000Y-73212000D02*
X31048000Y-73212000D01*
X61020000Y-73092000D02*
X58360000Y-73092000D01*
X61020000Y-75692000D02*
X61020000Y-73092000D01*
X58360000Y-75692000D02*
X58360000Y-73092000D01*
X61020000Y-75692000D02*
X58360000Y-75692000D01*
X61020000Y-76962000D02*
X61020000Y-78292000D01*
X61020000Y-78292000D02*
X59690000Y-78292000D01*
X93024000Y-73092000D02*
X90364000Y-73092000D01*
X93024000Y-75692000D02*
X93024000Y-73092000D01*
X90364000Y-75692000D02*
X90364000Y-73092000D01*
X93024000Y-75692000D02*
X90364000Y-75692000D01*
X93024000Y-76962000D02*
X93024000Y-78292000D01*
X93024000Y-78292000D02*
X91694000Y-78292000D01*
X51032665Y-79945608D02*
G75*
G03X54265000Y-80102516I1672335J1078608D01*
G01*
X51032665Y-77788392D02*
G75*
G02X54265000Y-77631484I1672335J-1078608D01*
G01*
X51663870Y-79946837D02*
G75*
G03X53745961Y-79947000I1041130J1079837D01*
G01*
X51663870Y-77787163D02*
G75*
G02X53745961Y-77787000I1041130J-1079837D01*
G01*
X54265000Y-80103000D02*
X54265000Y-79947000D01*
X54265000Y-77787000D02*
X54265000Y-77631000D01*
X38263000Y-77787000D02*
X38263000Y-77631000D01*
X38263000Y-80103000D02*
X38263000Y-79947000D01*
X35661870Y-77787163D02*
G75*
G02X37743961Y-77787000I1041130J-1079837D01*
G01*
X35661870Y-79946837D02*
G75*
G03X37743961Y-79947000I1041130J1079837D01*
G01*
X35030665Y-77788392D02*
G75*
G02X38263000Y-77631484I1672335J-1078608D01*
G01*
X35030665Y-79945608D02*
G75*
G03X38263000Y-80102516I1672335J1078608D01*
G01*
X92396000Y-73212000D02*
X95056000Y-73212000D01*
X92396000Y-70612000D02*
X92396000Y-73212000D01*
X95056000Y-70612000D02*
X95056000Y-73212000D01*
X92396000Y-70612000D02*
X95056000Y-70612000D01*
X92396000Y-69342000D02*
X92396000Y-68012000D01*
X92396000Y-68012000D02*
X93726000Y-68012000D01*
X77022000Y-73092000D02*
X74362000Y-73092000D01*
X77022000Y-75692000D02*
X77022000Y-73092000D01*
X74362000Y-75692000D02*
X74362000Y-73092000D01*
X77022000Y-75692000D02*
X74362000Y-75692000D01*
X77022000Y-76962000D02*
X77022000Y-78292000D01*
X77022000Y-78292000D02*
X75692000Y-78292000D01*
X61722000Y-66802000D02*
X75692000Y-66802000D01*
X75692000Y-66802000D02*
X75692000Y-80772000D01*
X75692000Y-80772000D02*
X61722000Y-80772000D01*
X61722000Y-80772000D02*
X61722000Y-66802000D01*
X64941267Y-66677000D02*
X64598733Y-66677000D01*
X64941267Y-65657000D02*
X64598733Y-65657000D01*
X29016000Y-78292000D02*
X27686000Y-78292000D01*
X29016000Y-76962000D02*
X29016000Y-78292000D01*
X29016000Y-75692000D02*
X26356000Y-75692000D01*
X26356000Y-75692000D02*
X26356000Y-73092000D01*
X29016000Y-75692000D02*
X29016000Y-73092000D01*
X29016000Y-73092000D02*
X26356000Y-73092000D01*
X60392000Y-78292000D02*
X63052000Y-78292000D01*
X60392000Y-78232000D02*
X60392000Y-78292000D01*
X63052000Y-78232000D02*
X63052000Y-78292000D01*
X60392000Y-78232000D02*
X63052000Y-78232000D01*
X60392000Y-76962000D02*
X60392000Y-75632000D01*
X60392000Y-75632000D02*
X61722000Y-75632000D01*
X45720000Y-66802000D02*
X59690000Y-66802000D01*
X59690000Y-66802000D02*
X59690000Y-80772000D01*
X59690000Y-80772000D02*
X45720000Y-80772000D01*
X45720000Y-80772000D02*
X45720000Y-66802000D01*
X74362000Y-70672000D02*
X77022000Y-70672000D01*
X74362000Y-70612000D02*
X74362000Y-70672000D01*
X77022000Y-70612000D02*
X77022000Y-70672000D01*
X74362000Y-70612000D02*
X77022000Y-70612000D01*
X74362000Y-69342000D02*
X74362000Y-68012000D01*
X74362000Y-68012000D02*
X75692000Y-68012000D01*
X58360000Y-70672000D02*
X61020000Y-70672000D01*
X58360000Y-70612000D02*
X58360000Y-70672000D01*
X61020000Y-70612000D02*
X61020000Y-70672000D01*
X58360000Y-70612000D02*
X61020000Y-70612000D01*
X58360000Y-69342000D02*
X58360000Y-68012000D01*
X58360000Y-68012000D02*
X59690000Y-68012000D01*
X48939267Y-66677000D02*
X48596733Y-66677000D01*
X48939267Y-65657000D02*
X48596733Y-65657000D01*
X13716000Y-63500000D02*
X13716000Y-49530000D01*
X27686000Y-63500000D02*
X13716000Y-63500000D01*
X27686000Y-49530000D02*
X27686000Y-63500000D01*
X13716000Y-49530000D02*
X27686000Y-49530000D01*
X106366000Y-53400000D02*
X109026000Y-53400000D01*
X106366000Y-53340000D02*
X106366000Y-53400000D01*
X109026000Y-53340000D02*
X109026000Y-53400000D01*
X106366000Y-53340000D02*
X109026000Y-53340000D01*
X106366000Y-52070000D02*
X106366000Y-50740000D01*
X106366000Y-50740000D02*
X107696000Y-50740000D01*
X90364000Y-53400000D02*
X93024000Y-53400000D01*
X90364000Y-53340000D02*
X90364000Y-53400000D01*
X93024000Y-53340000D02*
X93024000Y-53400000D01*
X90364000Y-53340000D02*
X93024000Y-53340000D01*
X90364000Y-52070000D02*
X90364000Y-50740000D01*
X90364000Y-50740000D02*
X91694000Y-50740000D01*
X76394000Y-61020000D02*
X79054000Y-61020000D01*
X76394000Y-60960000D02*
X76394000Y-61020000D01*
X79054000Y-60960000D02*
X79054000Y-61020000D01*
X76394000Y-60960000D02*
X79054000Y-60960000D01*
X76394000Y-59690000D02*
X76394000Y-58360000D01*
X76394000Y-58360000D02*
X77724000Y-58360000D01*
X16935267Y-48385000D02*
X16592733Y-48385000D01*
X16935267Y-49405000D02*
X16592733Y-49405000D01*
X93726000Y-49530000D02*
X107696000Y-49530000D01*
X107696000Y-49530000D02*
X107696000Y-63500000D01*
X107696000Y-63500000D02*
X93726000Y-63500000D01*
X93726000Y-63500000D02*
X93726000Y-49530000D01*
X22261000Y-60515000D02*
X22261000Y-60359000D01*
X22261000Y-62831000D02*
X22261000Y-62675000D01*
X19659870Y-60515163D02*
G75*
G02X21741961Y-60515000I1041130J-1079837D01*
G01*
X19659870Y-62674837D02*
G75*
G03X21741961Y-62675000I1041130J1079837D01*
G01*
X19028665Y-60516392D02*
G75*
G02X22261000Y-60359484I1672335J-1078608D01*
G01*
X19028665Y-62673608D02*
G75*
G03X22261000Y-62830516I1672335J1078608D01*
G01*
X26356000Y-50740000D02*
X27686000Y-50740000D01*
X26356000Y-52070000D02*
X26356000Y-50740000D01*
X26356000Y-53340000D02*
X29016000Y-53340000D01*
X29016000Y-53340000D02*
X29016000Y-53400000D01*
X26356000Y-53340000D02*
X26356000Y-53400000D01*
X26356000Y-53400000D02*
X29016000Y-53400000D01*
X12386000Y-50740000D02*
X13716000Y-50740000D01*
X12386000Y-52070000D02*
X12386000Y-50740000D01*
X12386000Y-53340000D02*
X15046000Y-53340000D01*
X15046000Y-53340000D02*
X15046000Y-55940000D01*
X12386000Y-53340000D02*
X12386000Y-55940000D01*
X12386000Y-55940000D02*
X15046000Y-55940000D01*
X12386000Y-58360000D02*
X13716000Y-58360000D01*
X12386000Y-59690000D02*
X12386000Y-58360000D01*
X12386000Y-60960000D02*
X15046000Y-60960000D01*
X15046000Y-60960000D02*
X15046000Y-61020000D01*
X12386000Y-60960000D02*
X12386000Y-61020000D01*
X12386000Y-61020000D02*
X15046000Y-61020000D01*
X99038665Y-62673608D02*
G75*
G03X102271000Y-62830516I1672335J1078608D01*
G01*
X99038665Y-60516392D02*
G75*
G02X102271000Y-60359484I1672335J-1078608D01*
G01*
X99669870Y-62674837D02*
G75*
G03X101751961Y-62675000I1041130J1079837D01*
G01*
X99669870Y-60515163D02*
G75*
G02X101751961Y-60515000I1041130J-1079837D01*
G01*
X102271000Y-62831000D02*
X102271000Y-62675000D01*
X102271000Y-60515000D02*
X102271000Y-60359000D01*
X80943267Y-49405000D02*
X80600733Y-49405000D01*
X80943267Y-48385000D02*
X80600733Y-48385000D01*
X60392000Y-55940000D02*
X63052000Y-55940000D01*
X60392000Y-53340000D02*
X60392000Y-55940000D01*
X63052000Y-53340000D02*
X63052000Y-55940000D01*
X60392000Y-53340000D02*
X63052000Y-53340000D01*
X60392000Y-52070000D02*
X60392000Y-50740000D01*
X60392000Y-50740000D02*
X61722000Y-50740000D01*
X109026000Y-55820000D02*
X106366000Y-55820000D01*
X109026000Y-58420000D02*
X109026000Y-55820000D01*
X106366000Y-58420000D02*
X106366000Y-55820000D01*
X109026000Y-58420000D02*
X106366000Y-58420000D01*
X109026000Y-59690000D02*
X109026000Y-61020000D01*
X109026000Y-61020000D02*
X107696000Y-61020000D01*
X96945267Y-49405000D02*
X96602733Y-49405000D01*
X96945267Y-48385000D02*
X96602733Y-48385000D01*
X67034665Y-62673608D02*
G75*
G03X70267000Y-62830516I1672335J1078608D01*
G01*
X67034665Y-60516392D02*
G75*
G02X70267000Y-60359484I1672335J-1078608D01*
G01*
X67665870Y-62674837D02*
G75*
G03X69747961Y-62675000I1041130J1079837D01*
G01*
X67665870Y-60515163D02*
G75*
G02X69747961Y-60515000I1041130J-1079837D01*
G01*
X70267000Y-62831000D02*
X70267000Y-62675000D01*
X70267000Y-60515000D02*
X70267000Y-60359000D01*
X44390000Y-61020000D02*
X47050000Y-61020000D01*
X44390000Y-60960000D02*
X44390000Y-61020000D01*
X47050000Y-60960000D02*
X47050000Y-61020000D01*
X44390000Y-60960000D02*
X47050000Y-60960000D01*
X44390000Y-59690000D02*
X44390000Y-58360000D01*
X44390000Y-58360000D02*
X45720000Y-58360000D01*
X28388000Y-58360000D02*
X29718000Y-58360000D01*
X28388000Y-59690000D02*
X28388000Y-58360000D01*
X28388000Y-60960000D02*
X31048000Y-60960000D01*
X31048000Y-60960000D02*
X31048000Y-61020000D01*
X28388000Y-60960000D02*
X28388000Y-61020000D01*
X28388000Y-61020000D02*
X31048000Y-61020000D01*
X32937267Y-48385000D02*
X32594733Y-48385000D01*
X32937267Y-49405000D02*
X32594733Y-49405000D01*
X77724000Y-49530000D02*
X91694000Y-49530000D01*
X91694000Y-49530000D02*
X91694000Y-63500000D01*
X91694000Y-63500000D02*
X77724000Y-63500000D01*
X77724000Y-63500000D02*
X77724000Y-49530000D01*
X45018000Y-61020000D02*
X43688000Y-61020000D01*
X45018000Y-59690000D02*
X45018000Y-61020000D01*
X45018000Y-58420000D02*
X42358000Y-58420000D01*
X42358000Y-58420000D02*
X42358000Y-55820000D01*
X45018000Y-58420000D02*
X45018000Y-55820000D01*
X45018000Y-55820000D02*
X42358000Y-55820000D01*
X92396000Y-61020000D02*
X95056000Y-61020000D01*
X92396000Y-60960000D02*
X92396000Y-61020000D01*
X95056000Y-60960000D02*
X95056000Y-61020000D01*
X92396000Y-60960000D02*
X95056000Y-60960000D01*
X92396000Y-59690000D02*
X92396000Y-58360000D01*
X92396000Y-58360000D02*
X93726000Y-58360000D01*
X42358000Y-50740000D02*
X43688000Y-50740000D01*
X42358000Y-52070000D02*
X42358000Y-50740000D01*
X42358000Y-53340000D02*
X45018000Y-53340000D01*
X45018000Y-53340000D02*
X45018000Y-53400000D01*
X42358000Y-53340000D02*
X42358000Y-53400000D01*
X42358000Y-53400000D02*
X45018000Y-53400000D01*
X83036665Y-62673608D02*
G75*
G03X86269000Y-62830516I1672335J1078608D01*
G01*
X83036665Y-60516392D02*
G75*
G02X86269000Y-60359484I1672335J-1078608D01*
G01*
X83667870Y-62674837D02*
G75*
G03X85749961Y-62675000I1041130J1079837D01*
G01*
X83667870Y-60515163D02*
G75*
G02X85749961Y-60515000I1041130J-1079837D01*
G01*
X86269000Y-62831000D02*
X86269000Y-62675000D01*
X86269000Y-60515000D02*
X86269000Y-60359000D01*
X76394000Y-55940000D02*
X79054000Y-55940000D01*
X76394000Y-53340000D02*
X76394000Y-55940000D01*
X79054000Y-53340000D02*
X79054000Y-55940000D01*
X76394000Y-53340000D02*
X79054000Y-53340000D01*
X76394000Y-52070000D02*
X76394000Y-50740000D01*
X76394000Y-50740000D02*
X77724000Y-50740000D01*
X29718000Y-63500000D02*
X29718000Y-49530000D01*
X43688000Y-63500000D02*
X29718000Y-63500000D01*
X43688000Y-49530000D02*
X43688000Y-63500000D01*
X29718000Y-49530000D02*
X43688000Y-49530000D01*
X44390000Y-55940000D02*
X47050000Y-55940000D01*
X44390000Y-53340000D02*
X44390000Y-55940000D01*
X47050000Y-53340000D02*
X47050000Y-55940000D01*
X44390000Y-53340000D02*
X47050000Y-53340000D01*
X44390000Y-52070000D02*
X44390000Y-50740000D01*
X44390000Y-50740000D02*
X45720000Y-50740000D01*
X28388000Y-50740000D02*
X29718000Y-50740000D01*
X28388000Y-52070000D02*
X28388000Y-50740000D01*
X28388000Y-53340000D02*
X31048000Y-53340000D01*
X31048000Y-53340000D02*
X31048000Y-55940000D01*
X28388000Y-53340000D02*
X28388000Y-55940000D01*
X28388000Y-55940000D02*
X31048000Y-55940000D01*
X61020000Y-55820000D02*
X58360000Y-55820000D01*
X61020000Y-58420000D02*
X61020000Y-55820000D01*
X58360000Y-58420000D02*
X58360000Y-55820000D01*
X61020000Y-58420000D02*
X58360000Y-58420000D01*
X61020000Y-59690000D02*
X61020000Y-61020000D01*
X61020000Y-61020000D02*
X59690000Y-61020000D01*
X93024000Y-55820000D02*
X90364000Y-55820000D01*
X93024000Y-58420000D02*
X93024000Y-55820000D01*
X90364000Y-58420000D02*
X90364000Y-55820000D01*
X93024000Y-58420000D02*
X90364000Y-58420000D01*
X93024000Y-59690000D02*
X93024000Y-61020000D01*
X93024000Y-61020000D02*
X91694000Y-61020000D01*
X51032665Y-62673608D02*
G75*
G03X54265000Y-62830516I1672335J1078608D01*
G01*
X51032665Y-60516392D02*
G75*
G02X54265000Y-60359484I1672335J-1078608D01*
G01*
X51663870Y-62674837D02*
G75*
G03X53745961Y-62675000I1041130J1079837D01*
G01*
X51663870Y-60515163D02*
G75*
G02X53745961Y-60515000I1041130J-1079837D01*
G01*
X54265000Y-62831000D02*
X54265000Y-62675000D01*
X54265000Y-60515000D02*
X54265000Y-60359000D01*
X38263000Y-60515000D02*
X38263000Y-60359000D01*
X38263000Y-62831000D02*
X38263000Y-62675000D01*
X35661870Y-60515163D02*
G75*
G02X37743961Y-60515000I1041130J-1079837D01*
G01*
X35661870Y-62674837D02*
G75*
G03X37743961Y-62675000I1041130J1079837D01*
G01*
X35030665Y-60516392D02*
G75*
G02X38263000Y-60359484I1672335J-1078608D01*
G01*
X35030665Y-62673608D02*
G75*
G03X38263000Y-62830516I1672335J1078608D01*
G01*
X92396000Y-55940000D02*
X95056000Y-55940000D01*
X92396000Y-53340000D02*
X92396000Y-55940000D01*
X95056000Y-53340000D02*
X95056000Y-55940000D01*
X92396000Y-53340000D02*
X95056000Y-53340000D01*
X92396000Y-52070000D02*
X92396000Y-50740000D01*
X92396000Y-50740000D02*
X93726000Y-50740000D01*
X77022000Y-55820000D02*
X74362000Y-55820000D01*
X77022000Y-58420000D02*
X77022000Y-55820000D01*
X74362000Y-58420000D02*
X74362000Y-55820000D01*
X77022000Y-58420000D02*
X74362000Y-58420000D01*
X77022000Y-59690000D02*
X77022000Y-61020000D01*
X77022000Y-61020000D02*
X75692000Y-61020000D01*
X61722000Y-49530000D02*
X75692000Y-49530000D01*
X75692000Y-49530000D02*
X75692000Y-63500000D01*
X75692000Y-63500000D02*
X61722000Y-63500000D01*
X61722000Y-63500000D02*
X61722000Y-49530000D01*
X64941267Y-49405000D02*
X64598733Y-49405000D01*
X64941267Y-48385000D02*
X64598733Y-48385000D01*
X29016000Y-61020000D02*
X27686000Y-61020000D01*
X29016000Y-59690000D02*
X29016000Y-61020000D01*
X29016000Y-58420000D02*
X26356000Y-58420000D01*
X26356000Y-58420000D02*
X26356000Y-55820000D01*
X29016000Y-58420000D02*
X29016000Y-55820000D01*
X29016000Y-55820000D02*
X26356000Y-55820000D01*
X60392000Y-61020000D02*
X63052000Y-61020000D01*
X60392000Y-60960000D02*
X60392000Y-61020000D01*
X63052000Y-60960000D02*
X63052000Y-61020000D01*
X60392000Y-60960000D02*
X63052000Y-60960000D01*
X60392000Y-59690000D02*
X60392000Y-58360000D01*
X60392000Y-58360000D02*
X61722000Y-58360000D01*
X45720000Y-49530000D02*
X59690000Y-49530000D01*
X59690000Y-49530000D02*
X59690000Y-63500000D01*
X59690000Y-63500000D02*
X45720000Y-63500000D01*
X45720000Y-63500000D02*
X45720000Y-49530000D01*
X74362000Y-53400000D02*
X77022000Y-53400000D01*
X74362000Y-53340000D02*
X74362000Y-53400000D01*
X77022000Y-53340000D02*
X77022000Y-53400000D01*
X74362000Y-53340000D02*
X77022000Y-53340000D01*
X74362000Y-52070000D02*
X74362000Y-50740000D01*
X74362000Y-50740000D02*
X75692000Y-50740000D01*
X58360000Y-53400000D02*
X61020000Y-53400000D01*
X58360000Y-53340000D02*
X58360000Y-53400000D01*
X61020000Y-53340000D02*
X61020000Y-53400000D01*
X58360000Y-53340000D02*
X61020000Y-53340000D01*
X58360000Y-52070000D02*
X58360000Y-50740000D01*
X58360000Y-50740000D02*
X59690000Y-50740000D01*
X48939267Y-49405000D02*
X48596733Y-49405000D01*
X48939267Y-48385000D02*
X48596733Y-48385000D01*
X13716000Y-46228000D02*
X13716000Y-32258000D01*
X27686000Y-46228000D02*
X13716000Y-46228000D01*
X27686000Y-32258000D02*
X27686000Y-46228000D01*
X13716000Y-32258000D02*
X27686000Y-32258000D01*
X106366000Y-36128000D02*
X109026000Y-36128000D01*
X106366000Y-36068000D02*
X106366000Y-36128000D01*
X109026000Y-36068000D02*
X109026000Y-36128000D01*
X106366000Y-36068000D02*
X109026000Y-36068000D01*
X106366000Y-34798000D02*
X106366000Y-33468000D01*
X106366000Y-33468000D02*
X107696000Y-33468000D01*
X90364000Y-36128000D02*
X93024000Y-36128000D01*
X90364000Y-36068000D02*
X90364000Y-36128000D01*
X93024000Y-36068000D02*
X93024000Y-36128000D01*
X90364000Y-36068000D02*
X93024000Y-36068000D01*
X90364000Y-34798000D02*
X90364000Y-33468000D01*
X90364000Y-33468000D02*
X91694000Y-33468000D01*
X76394000Y-43748000D02*
X79054000Y-43748000D01*
X76394000Y-43688000D02*
X76394000Y-43748000D01*
X79054000Y-43688000D02*
X79054000Y-43748000D01*
X76394000Y-43688000D02*
X79054000Y-43688000D01*
X76394000Y-42418000D02*
X76394000Y-41088000D01*
X76394000Y-41088000D02*
X77724000Y-41088000D01*
X16935267Y-31113000D02*
X16592733Y-31113000D01*
X16935267Y-32133000D02*
X16592733Y-32133000D01*
X93726000Y-32258000D02*
X107696000Y-32258000D01*
X107696000Y-32258000D02*
X107696000Y-46228000D01*
X107696000Y-46228000D02*
X93726000Y-46228000D01*
X93726000Y-46228000D02*
X93726000Y-32258000D01*
X22261000Y-43243000D02*
X22261000Y-43087000D01*
X22261000Y-45559000D02*
X22261000Y-45403000D01*
X19659870Y-43243163D02*
G75*
G02X21741961Y-43243000I1041130J-1079837D01*
G01*
X19659870Y-45402837D02*
G75*
G03X21741961Y-45403000I1041130J1079837D01*
G01*
X19028665Y-43244392D02*
G75*
G02X22261000Y-43087484I1672335J-1078608D01*
G01*
X19028665Y-45401608D02*
G75*
G03X22261000Y-45558516I1672335J1078608D01*
G01*
X26356000Y-33468000D02*
X27686000Y-33468000D01*
X26356000Y-34798000D02*
X26356000Y-33468000D01*
X26356000Y-36068000D02*
X29016000Y-36068000D01*
X29016000Y-36068000D02*
X29016000Y-36128000D01*
X26356000Y-36068000D02*
X26356000Y-36128000D01*
X26356000Y-36128000D02*
X29016000Y-36128000D01*
X12386000Y-33468000D02*
X13716000Y-33468000D01*
X12386000Y-34798000D02*
X12386000Y-33468000D01*
X12386000Y-36068000D02*
X15046000Y-36068000D01*
X15046000Y-36068000D02*
X15046000Y-38668000D01*
X12386000Y-36068000D02*
X12386000Y-38668000D01*
X12386000Y-38668000D02*
X15046000Y-38668000D01*
X12386000Y-41088000D02*
X13716000Y-41088000D01*
X12386000Y-42418000D02*
X12386000Y-41088000D01*
X12386000Y-43688000D02*
X15046000Y-43688000D01*
X15046000Y-43688000D02*
X15046000Y-43748000D01*
X12386000Y-43688000D02*
X12386000Y-43748000D01*
X12386000Y-43748000D02*
X15046000Y-43748000D01*
X99038665Y-45401608D02*
G75*
G03X102271000Y-45558516I1672335J1078608D01*
G01*
X99038665Y-43244392D02*
G75*
G02X102271000Y-43087484I1672335J-1078608D01*
G01*
X99669870Y-45402837D02*
G75*
G03X101751961Y-45403000I1041130J1079837D01*
G01*
X99669870Y-43243163D02*
G75*
G02X101751961Y-43243000I1041130J-1079837D01*
G01*
X102271000Y-45559000D02*
X102271000Y-45403000D01*
X102271000Y-43243000D02*
X102271000Y-43087000D01*
X80943267Y-32133000D02*
X80600733Y-32133000D01*
X80943267Y-31113000D02*
X80600733Y-31113000D01*
X60392000Y-38668000D02*
X63052000Y-38668000D01*
X60392000Y-36068000D02*
X60392000Y-38668000D01*
X63052000Y-36068000D02*
X63052000Y-38668000D01*
X60392000Y-36068000D02*
X63052000Y-36068000D01*
X60392000Y-34798000D02*
X60392000Y-33468000D01*
X60392000Y-33468000D02*
X61722000Y-33468000D01*
X109026000Y-38548000D02*
X106366000Y-38548000D01*
X109026000Y-41148000D02*
X109026000Y-38548000D01*
X106366000Y-41148000D02*
X106366000Y-38548000D01*
X109026000Y-41148000D02*
X106366000Y-41148000D01*
X109026000Y-42418000D02*
X109026000Y-43748000D01*
X109026000Y-43748000D02*
X107696000Y-43748000D01*
X96945267Y-32133000D02*
X96602733Y-32133000D01*
X96945267Y-31113000D02*
X96602733Y-31113000D01*
X67034665Y-45401608D02*
G75*
G03X70267000Y-45558516I1672335J1078608D01*
G01*
X67034665Y-43244392D02*
G75*
G02X70267000Y-43087484I1672335J-1078608D01*
G01*
X67665870Y-45402837D02*
G75*
G03X69747961Y-45403000I1041130J1079837D01*
G01*
X67665870Y-43243163D02*
G75*
G02X69747961Y-43243000I1041130J-1079837D01*
G01*
X70267000Y-45559000D02*
X70267000Y-45403000D01*
X70267000Y-43243000D02*
X70267000Y-43087000D01*
X44390000Y-43748000D02*
X47050000Y-43748000D01*
X44390000Y-43688000D02*
X44390000Y-43748000D01*
X47050000Y-43688000D02*
X47050000Y-43748000D01*
X44390000Y-43688000D02*
X47050000Y-43688000D01*
X44390000Y-42418000D02*
X44390000Y-41088000D01*
X44390000Y-41088000D02*
X45720000Y-41088000D01*
X28388000Y-41088000D02*
X29718000Y-41088000D01*
X28388000Y-42418000D02*
X28388000Y-41088000D01*
X28388000Y-43688000D02*
X31048000Y-43688000D01*
X31048000Y-43688000D02*
X31048000Y-43748000D01*
X28388000Y-43688000D02*
X28388000Y-43748000D01*
X28388000Y-43748000D02*
X31048000Y-43748000D01*
X32937267Y-31113000D02*
X32594733Y-31113000D01*
X32937267Y-32133000D02*
X32594733Y-32133000D01*
X77724000Y-32258000D02*
X91694000Y-32258000D01*
X91694000Y-32258000D02*
X91694000Y-46228000D01*
X91694000Y-46228000D02*
X77724000Y-46228000D01*
X77724000Y-46228000D02*
X77724000Y-32258000D01*
X45018000Y-43748000D02*
X43688000Y-43748000D01*
X45018000Y-42418000D02*
X45018000Y-43748000D01*
X45018000Y-41148000D02*
X42358000Y-41148000D01*
X42358000Y-41148000D02*
X42358000Y-38548000D01*
X45018000Y-41148000D02*
X45018000Y-38548000D01*
X45018000Y-38548000D02*
X42358000Y-38548000D01*
X92396000Y-43748000D02*
X95056000Y-43748000D01*
X92396000Y-43688000D02*
X92396000Y-43748000D01*
X95056000Y-43688000D02*
X95056000Y-43748000D01*
X92396000Y-43688000D02*
X95056000Y-43688000D01*
X92396000Y-42418000D02*
X92396000Y-41088000D01*
X92396000Y-41088000D02*
X93726000Y-41088000D01*
X42358000Y-33468000D02*
X43688000Y-33468000D01*
X42358000Y-34798000D02*
X42358000Y-33468000D01*
X42358000Y-36068000D02*
X45018000Y-36068000D01*
X45018000Y-36068000D02*
X45018000Y-36128000D01*
X42358000Y-36068000D02*
X42358000Y-36128000D01*
X42358000Y-36128000D02*
X45018000Y-36128000D01*
X83036665Y-45401608D02*
G75*
G03X86269000Y-45558516I1672335J1078608D01*
G01*
X83036665Y-43244392D02*
G75*
G02X86269000Y-43087484I1672335J-1078608D01*
G01*
X83667870Y-45402837D02*
G75*
G03X85749961Y-45403000I1041130J1079837D01*
G01*
X83667870Y-43243163D02*
G75*
G02X85749961Y-43243000I1041130J-1079837D01*
G01*
X86269000Y-45559000D02*
X86269000Y-45403000D01*
X86269000Y-43243000D02*
X86269000Y-43087000D01*
X76394000Y-38668000D02*
X79054000Y-38668000D01*
X76394000Y-36068000D02*
X76394000Y-38668000D01*
X79054000Y-36068000D02*
X79054000Y-38668000D01*
X76394000Y-36068000D02*
X79054000Y-36068000D01*
X76394000Y-34798000D02*
X76394000Y-33468000D01*
X76394000Y-33468000D02*
X77724000Y-33468000D01*
X29718000Y-46228000D02*
X29718000Y-32258000D01*
X43688000Y-46228000D02*
X29718000Y-46228000D01*
X43688000Y-32258000D02*
X43688000Y-46228000D01*
X29718000Y-32258000D02*
X43688000Y-32258000D01*
X44390000Y-38668000D02*
X47050000Y-38668000D01*
X44390000Y-36068000D02*
X44390000Y-38668000D01*
X47050000Y-36068000D02*
X47050000Y-38668000D01*
X44390000Y-36068000D02*
X47050000Y-36068000D01*
X44390000Y-34798000D02*
X44390000Y-33468000D01*
X44390000Y-33468000D02*
X45720000Y-33468000D01*
X28388000Y-33468000D02*
X29718000Y-33468000D01*
X28388000Y-34798000D02*
X28388000Y-33468000D01*
X28388000Y-36068000D02*
X31048000Y-36068000D01*
X31048000Y-36068000D02*
X31048000Y-38668000D01*
X28388000Y-36068000D02*
X28388000Y-38668000D01*
X28388000Y-38668000D02*
X31048000Y-38668000D01*
X61020000Y-38548000D02*
X58360000Y-38548000D01*
X61020000Y-41148000D02*
X61020000Y-38548000D01*
X58360000Y-41148000D02*
X58360000Y-38548000D01*
X61020000Y-41148000D02*
X58360000Y-41148000D01*
X61020000Y-42418000D02*
X61020000Y-43748000D01*
X61020000Y-43748000D02*
X59690000Y-43748000D01*
X93024000Y-38548000D02*
X90364000Y-38548000D01*
X93024000Y-41148000D02*
X93024000Y-38548000D01*
X90364000Y-41148000D02*
X90364000Y-38548000D01*
X93024000Y-41148000D02*
X90364000Y-41148000D01*
X93024000Y-42418000D02*
X93024000Y-43748000D01*
X93024000Y-43748000D02*
X91694000Y-43748000D01*
X51032665Y-45401608D02*
G75*
G03X54265000Y-45558516I1672335J1078608D01*
G01*
X51032665Y-43244392D02*
G75*
G02X54265000Y-43087484I1672335J-1078608D01*
G01*
X51663870Y-45402837D02*
G75*
G03X53745961Y-45403000I1041130J1079837D01*
G01*
X51663870Y-43243163D02*
G75*
G02X53745961Y-43243000I1041130J-1079837D01*
G01*
X54265000Y-45559000D02*
X54265000Y-45403000D01*
X54265000Y-43243000D02*
X54265000Y-43087000D01*
X38263000Y-43243000D02*
X38263000Y-43087000D01*
X38263000Y-45559000D02*
X38263000Y-45403000D01*
X35661870Y-43243163D02*
G75*
G02X37743961Y-43243000I1041130J-1079837D01*
G01*
X35661870Y-45402837D02*
G75*
G03X37743961Y-45403000I1041130J1079837D01*
G01*
X35030665Y-43244392D02*
G75*
G02X38263000Y-43087484I1672335J-1078608D01*
G01*
X35030665Y-45401608D02*
G75*
G03X38263000Y-45558516I1672335J1078608D01*
G01*
X92396000Y-38668000D02*
X95056000Y-38668000D01*
X92396000Y-36068000D02*
X92396000Y-38668000D01*
X95056000Y-36068000D02*
X95056000Y-38668000D01*
X92396000Y-36068000D02*
X95056000Y-36068000D01*
X92396000Y-34798000D02*
X92396000Y-33468000D01*
X92396000Y-33468000D02*
X93726000Y-33468000D01*
X77022000Y-38548000D02*
X74362000Y-38548000D01*
X77022000Y-41148000D02*
X77022000Y-38548000D01*
X74362000Y-41148000D02*
X74362000Y-38548000D01*
X77022000Y-41148000D02*
X74362000Y-41148000D01*
X77022000Y-42418000D02*
X77022000Y-43748000D01*
X77022000Y-43748000D02*
X75692000Y-43748000D01*
X61722000Y-32258000D02*
X75692000Y-32258000D01*
X75692000Y-32258000D02*
X75692000Y-46228000D01*
X75692000Y-46228000D02*
X61722000Y-46228000D01*
X61722000Y-46228000D02*
X61722000Y-32258000D01*
X64941267Y-32133000D02*
X64598733Y-32133000D01*
X64941267Y-31113000D02*
X64598733Y-31113000D01*
X29016000Y-43748000D02*
X27686000Y-43748000D01*
X29016000Y-42418000D02*
X29016000Y-43748000D01*
X29016000Y-41148000D02*
X26356000Y-41148000D01*
X26356000Y-41148000D02*
X26356000Y-38548000D01*
X29016000Y-41148000D02*
X29016000Y-38548000D01*
X29016000Y-38548000D02*
X26356000Y-38548000D01*
X60392000Y-43748000D02*
X63052000Y-43748000D01*
X60392000Y-43688000D02*
X60392000Y-43748000D01*
X63052000Y-43688000D02*
X63052000Y-43748000D01*
X60392000Y-43688000D02*
X63052000Y-43688000D01*
X60392000Y-42418000D02*
X60392000Y-41088000D01*
X60392000Y-41088000D02*
X61722000Y-41088000D01*
X45720000Y-32258000D02*
X59690000Y-32258000D01*
X59690000Y-32258000D02*
X59690000Y-46228000D01*
X59690000Y-46228000D02*
X45720000Y-46228000D01*
X45720000Y-46228000D02*
X45720000Y-32258000D01*
X74362000Y-36128000D02*
X77022000Y-36128000D01*
X74362000Y-36068000D02*
X74362000Y-36128000D01*
X77022000Y-36068000D02*
X77022000Y-36128000D01*
X74362000Y-36068000D02*
X77022000Y-36068000D01*
X74362000Y-34798000D02*
X74362000Y-33468000D01*
X74362000Y-33468000D02*
X75692000Y-33468000D01*
X58360000Y-36128000D02*
X61020000Y-36128000D01*
X58360000Y-36068000D02*
X58360000Y-36128000D01*
X61020000Y-36068000D02*
X61020000Y-36128000D01*
X58360000Y-36068000D02*
X61020000Y-36068000D01*
X58360000Y-34798000D02*
X58360000Y-33468000D01*
X58360000Y-33468000D02*
X59690000Y-33468000D01*
X48939267Y-32133000D02*
X48596733Y-32133000D01*
X48939267Y-31113000D02*
X48596733Y-31113000D01*
X77724000Y-28956000D02*
X77724000Y-14986000D01*
X91694000Y-28956000D02*
X77724000Y-28956000D01*
X91694000Y-14986000D02*
X91694000Y-28956000D01*
X77724000Y-14986000D02*
X91694000Y-14986000D01*
X80943267Y-13841000D02*
X80600733Y-13841000D01*
X80943267Y-14861000D02*
X80600733Y-14861000D01*
X86269000Y-25971000D02*
X86269000Y-25815000D01*
X86269000Y-28287000D02*
X86269000Y-28131000D01*
X83667870Y-25971163D02*
G75*
G02X85749961Y-25971000I1041130J-1079837D01*
G01*
X83667870Y-28130837D02*
G75*
G03X85749961Y-28131000I1041130J1079837D01*
G01*
X83036665Y-25972392D02*
G75*
G02X86269000Y-25815484I1672335J-1078608D01*
G01*
X83036665Y-28129608D02*
G75*
G03X86269000Y-28286516I1672335J1078608D01*
G01*
X90364000Y-16196000D02*
X91694000Y-16196000D01*
X90364000Y-17526000D02*
X90364000Y-16196000D01*
X90364000Y-18796000D02*
X93024000Y-18796000D01*
X93024000Y-18796000D02*
X93024000Y-18856000D01*
X90364000Y-18796000D02*
X90364000Y-18856000D01*
X90364000Y-18856000D02*
X93024000Y-18856000D01*
X76394000Y-16196000D02*
X77724000Y-16196000D01*
X76394000Y-17526000D02*
X76394000Y-16196000D01*
X76394000Y-18796000D02*
X79054000Y-18796000D01*
X79054000Y-18796000D02*
X79054000Y-21396000D01*
X76394000Y-18796000D02*
X76394000Y-21396000D01*
X76394000Y-21396000D02*
X79054000Y-21396000D01*
X76394000Y-23816000D02*
X77724000Y-23816000D01*
X76394000Y-25146000D02*
X76394000Y-23816000D01*
X76394000Y-26416000D02*
X79054000Y-26416000D01*
X79054000Y-26416000D02*
X79054000Y-26476000D01*
X76394000Y-26416000D02*
X76394000Y-26476000D01*
X76394000Y-26476000D02*
X79054000Y-26476000D01*
X92396000Y-23816000D02*
X93726000Y-23816000D01*
X92396000Y-25146000D02*
X92396000Y-23816000D01*
X92396000Y-26416000D02*
X95056000Y-26416000D01*
X95056000Y-26416000D02*
X95056000Y-26476000D01*
X92396000Y-26416000D02*
X92396000Y-26476000D01*
X92396000Y-26476000D02*
X95056000Y-26476000D01*
X96945267Y-13841000D02*
X96602733Y-13841000D01*
X96945267Y-14861000D02*
X96602733Y-14861000D01*
X109026000Y-26476000D02*
X107696000Y-26476000D01*
X109026000Y-25146000D02*
X109026000Y-26476000D01*
X109026000Y-23876000D02*
X106366000Y-23876000D01*
X106366000Y-23876000D02*
X106366000Y-21276000D01*
X109026000Y-23876000D02*
X109026000Y-21276000D01*
X109026000Y-21276000D02*
X106366000Y-21276000D01*
X106366000Y-16196000D02*
X107696000Y-16196000D01*
X106366000Y-17526000D02*
X106366000Y-16196000D01*
X106366000Y-18796000D02*
X109026000Y-18796000D01*
X109026000Y-18796000D02*
X109026000Y-18856000D01*
X106366000Y-18796000D02*
X106366000Y-18856000D01*
X106366000Y-18856000D02*
X109026000Y-18856000D01*
X93726000Y-28956000D02*
X93726000Y-14986000D01*
X107696000Y-28956000D02*
X93726000Y-28956000D01*
X107696000Y-14986000D02*
X107696000Y-28956000D01*
X93726000Y-14986000D02*
X107696000Y-14986000D01*
X92396000Y-16196000D02*
X93726000Y-16196000D01*
X92396000Y-17526000D02*
X92396000Y-16196000D01*
X92396000Y-18796000D02*
X95056000Y-18796000D01*
X95056000Y-18796000D02*
X95056000Y-21396000D01*
X92396000Y-18796000D02*
X92396000Y-21396000D01*
X92396000Y-21396000D02*
X95056000Y-21396000D01*
X102271000Y-25971000D02*
X102271000Y-25815000D01*
X102271000Y-28287000D02*
X102271000Y-28131000D01*
X99669870Y-25971163D02*
G75*
G02X101751961Y-25971000I1041130J-1079837D01*
G01*
X99669870Y-28130837D02*
G75*
G03X101751961Y-28131000I1041130J1079837D01*
G01*
X99038665Y-25972392D02*
G75*
G02X102271000Y-25815484I1672335J-1078608D01*
G01*
X99038665Y-28129608D02*
G75*
G03X102271000Y-28286516I1672335J1078608D01*
G01*
X93024000Y-26476000D02*
X91694000Y-26476000D01*
X93024000Y-25146000D02*
X93024000Y-26476000D01*
X93024000Y-23876000D02*
X90364000Y-23876000D01*
X90364000Y-23876000D02*
X90364000Y-21276000D01*
X93024000Y-23876000D02*
X93024000Y-21276000D01*
X93024000Y-21276000D02*
X90364000Y-21276000D01*
X45720000Y-28956000D02*
X45720000Y-14986000D01*
X59690000Y-28956000D02*
X45720000Y-28956000D01*
X59690000Y-14986000D02*
X59690000Y-28956000D01*
X45720000Y-14986000D02*
X59690000Y-14986000D01*
X48939267Y-13841000D02*
X48596733Y-13841000D01*
X48939267Y-14861000D02*
X48596733Y-14861000D01*
X54265000Y-25971000D02*
X54265000Y-25815000D01*
X54265000Y-28287000D02*
X54265000Y-28131000D01*
X51663870Y-25971163D02*
G75*
G02X53745961Y-25971000I1041130J-1079837D01*
G01*
X51663870Y-28130837D02*
G75*
G03X53745961Y-28131000I1041130J1079837D01*
G01*
X51032665Y-25972392D02*
G75*
G02X54265000Y-25815484I1672335J-1078608D01*
G01*
X51032665Y-28129608D02*
G75*
G03X54265000Y-28286516I1672335J1078608D01*
G01*
X58360000Y-16196000D02*
X59690000Y-16196000D01*
X58360000Y-17526000D02*
X58360000Y-16196000D01*
X58360000Y-18796000D02*
X61020000Y-18796000D01*
X61020000Y-18796000D02*
X61020000Y-18856000D01*
X58360000Y-18796000D02*
X58360000Y-18856000D01*
X58360000Y-18856000D02*
X61020000Y-18856000D01*
X44390000Y-16196000D02*
X45720000Y-16196000D01*
X44390000Y-17526000D02*
X44390000Y-16196000D01*
X44390000Y-18796000D02*
X47050000Y-18796000D01*
X47050000Y-18796000D02*
X47050000Y-21396000D01*
X44390000Y-18796000D02*
X44390000Y-21396000D01*
X44390000Y-21396000D02*
X47050000Y-21396000D01*
X44390000Y-23816000D02*
X45720000Y-23816000D01*
X44390000Y-25146000D02*
X44390000Y-23816000D01*
X44390000Y-26416000D02*
X47050000Y-26416000D01*
X47050000Y-26416000D02*
X47050000Y-26476000D01*
X44390000Y-26416000D02*
X44390000Y-26476000D01*
X44390000Y-26476000D02*
X47050000Y-26476000D01*
X60392000Y-23816000D02*
X61722000Y-23816000D01*
X60392000Y-25146000D02*
X60392000Y-23816000D01*
X60392000Y-26416000D02*
X63052000Y-26416000D01*
X63052000Y-26416000D02*
X63052000Y-26476000D01*
X60392000Y-26416000D02*
X60392000Y-26476000D01*
X60392000Y-26476000D02*
X63052000Y-26476000D01*
X64941267Y-13841000D02*
X64598733Y-13841000D01*
X64941267Y-14861000D02*
X64598733Y-14861000D01*
X77022000Y-26476000D02*
X75692000Y-26476000D01*
X77022000Y-25146000D02*
X77022000Y-26476000D01*
X77022000Y-23876000D02*
X74362000Y-23876000D01*
X74362000Y-23876000D02*
X74362000Y-21276000D01*
X77022000Y-23876000D02*
X77022000Y-21276000D01*
X77022000Y-21276000D02*
X74362000Y-21276000D01*
X74362000Y-16196000D02*
X75692000Y-16196000D01*
X74362000Y-17526000D02*
X74362000Y-16196000D01*
X74362000Y-18796000D02*
X77022000Y-18796000D01*
X77022000Y-18796000D02*
X77022000Y-18856000D01*
X74362000Y-18796000D02*
X74362000Y-18856000D01*
X74362000Y-18856000D02*
X77022000Y-18856000D01*
X61722000Y-28956000D02*
X61722000Y-14986000D01*
X75692000Y-28956000D02*
X61722000Y-28956000D01*
X75692000Y-14986000D02*
X75692000Y-28956000D01*
X61722000Y-14986000D02*
X75692000Y-14986000D01*
X60392000Y-16196000D02*
X61722000Y-16196000D01*
X60392000Y-17526000D02*
X60392000Y-16196000D01*
X60392000Y-18796000D02*
X63052000Y-18796000D01*
X63052000Y-18796000D02*
X63052000Y-21396000D01*
X60392000Y-18796000D02*
X60392000Y-21396000D01*
X60392000Y-21396000D02*
X63052000Y-21396000D01*
X70267000Y-25971000D02*
X70267000Y-25815000D01*
X70267000Y-28287000D02*
X70267000Y-28131000D01*
X67665870Y-25971163D02*
G75*
G02X69747961Y-25971000I1041130J-1079837D01*
G01*
X67665870Y-28130837D02*
G75*
G03X69747961Y-28131000I1041130J1079837D01*
G01*
X67034665Y-25972392D02*
G75*
G02X70267000Y-25815484I1672335J-1078608D01*
G01*
X67034665Y-28129608D02*
G75*
G03X70267000Y-28286516I1672335J1078608D01*
G01*
X61020000Y-26476000D02*
X59690000Y-26476000D01*
X61020000Y-25146000D02*
X61020000Y-26476000D01*
X61020000Y-23876000D02*
X58360000Y-23876000D01*
X58360000Y-23876000D02*
X58360000Y-21276000D01*
X61020000Y-23876000D02*
X61020000Y-21276000D01*
X61020000Y-21276000D02*
X58360000Y-21276000D01*
X28388000Y-26476000D02*
X31048000Y-26476000D01*
X28388000Y-26416000D02*
X28388000Y-26476000D01*
X31048000Y-26416000D02*
X31048000Y-26476000D01*
X28388000Y-26416000D02*
X31048000Y-26416000D01*
X28388000Y-25146000D02*
X28388000Y-23816000D01*
X28388000Y-23816000D02*
X29718000Y-23816000D01*
X45018000Y-21276000D02*
X42358000Y-21276000D01*
X45018000Y-23876000D02*
X45018000Y-21276000D01*
X42358000Y-23876000D02*
X42358000Y-21276000D01*
X45018000Y-23876000D02*
X42358000Y-23876000D01*
X45018000Y-25146000D02*
X45018000Y-26476000D01*
X45018000Y-26476000D02*
X43688000Y-26476000D01*
X32937267Y-14861000D02*
X32594733Y-14861000D01*
X32937267Y-13841000D02*
X32594733Y-13841000D01*
X29718000Y-14986000D02*
X43688000Y-14986000D01*
X43688000Y-14986000D02*
X43688000Y-28956000D01*
X43688000Y-28956000D02*
X29718000Y-28956000D01*
X29718000Y-28956000D02*
X29718000Y-14986000D01*
X28388000Y-21396000D02*
X31048000Y-21396000D01*
X28388000Y-18796000D02*
X28388000Y-21396000D01*
X31048000Y-18796000D02*
X31048000Y-21396000D01*
X28388000Y-18796000D02*
X31048000Y-18796000D01*
X28388000Y-17526000D02*
X28388000Y-16196000D01*
X28388000Y-16196000D02*
X29718000Y-16196000D01*
X42358000Y-18856000D02*
X45018000Y-18856000D01*
X42358000Y-18796000D02*
X42358000Y-18856000D01*
X45018000Y-18796000D02*
X45018000Y-18856000D01*
X42358000Y-18796000D02*
X45018000Y-18796000D01*
X42358000Y-17526000D02*
X42358000Y-16196000D01*
X42358000Y-16196000D02*
X43688000Y-16196000D01*
X35030665Y-28129608D02*
G75*
G03X38263000Y-28286516I1672335J1078608D01*
G01*
X35030665Y-25972392D02*
G75*
G02X38263000Y-25815484I1672335J-1078608D01*
G01*
X35661870Y-28130837D02*
G75*
G03X37743961Y-28131000I1041130J1079837D01*
G01*
X35661870Y-25971163D02*
G75*
G02X37743961Y-25971000I1041130J-1079837D01*
G01*
X38263000Y-28287000D02*
X38263000Y-28131000D01*
X38263000Y-25971000D02*
X38263000Y-25815000D01*
X12386000Y-26476000D02*
X15046000Y-26476000D01*
X12386000Y-26416000D02*
X12386000Y-26476000D01*
X15046000Y-26416000D02*
X15046000Y-26476000D01*
X12386000Y-26416000D02*
X15046000Y-26416000D01*
X12386000Y-25146000D02*
X12386000Y-23816000D01*
X12386000Y-23816000D02*
X13716000Y-23816000D01*
X29016000Y-21276000D02*
X26356000Y-21276000D01*
X29016000Y-23876000D02*
X29016000Y-21276000D01*
X26356000Y-23876000D02*
X26356000Y-21276000D01*
X29016000Y-23876000D02*
X26356000Y-23876000D01*
X29016000Y-25146000D02*
X29016000Y-26476000D01*
X29016000Y-26476000D02*
X27686000Y-26476000D01*
X16935267Y-14861000D02*
X16592733Y-14861000D01*
X16935267Y-13841000D02*
X16592733Y-13841000D01*
X13716000Y-14986000D02*
X27686000Y-14986000D01*
X27686000Y-14986000D02*
X27686000Y-28956000D01*
X27686000Y-28956000D02*
X13716000Y-28956000D01*
X13716000Y-28956000D02*
X13716000Y-14986000D01*
X12386000Y-21396000D02*
X15046000Y-21396000D01*
X12386000Y-18796000D02*
X12386000Y-21396000D01*
X15046000Y-18796000D02*
X15046000Y-21396000D01*
X12386000Y-18796000D02*
X15046000Y-18796000D01*
X12386000Y-17526000D02*
X12386000Y-16196000D01*
X12386000Y-16196000D02*
X13716000Y-16196000D01*
X26356000Y-18856000D02*
X29016000Y-18856000D01*
X26356000Y-18796000D02*
X26356000Y-18856000D01*
X29016000Y-18796000D02*
X29016000Y-18856000D01*
X26356000Y-18796000D02*
X29016000Y-18796000D01*
X26356000Y-17526000D02*
X26356000Y-16196000D01*
X26356000Y-16196000D02*
X27686000Y-16196000D01*
X19028665Y-28129608D02*
G75*
G03X22261000Y-28286516I1672335J1078608D01*
G01*
X19028665Y-25972392D02*
G75*
G02X22261000Y-25815484I1672335J-1078608D01*
G01*
X19659870Y-28130837D02*
G75*
G03X21741961Y-28131000I1041130J1079837D01*
G01*
X19659870Y-25971163D02*
G75*
G02X21741961Y-25971000I1041130J-1079837D01*
G01*
X22261000Y-28287000D02*
X22261000Y-28131000D01*
X22261000Y-25971000D02*
X22261000Y-25815000D01*
M02*
